<?xml version="1.0" encoding="UTF-8" standalone="no"?>
<!-- Created with Inkscape (http://www.inkscape.org/) -->

<svg
   width="545mm"
   height="118.736mm"
   viewBox="0 0 545.00002 118.736"
   version="1.1"
   id="svg8"
   inkscape:version="1.3.2 (091e20e, 2023-11-25, custom)"
   sodipodi:docname="logo_light_title.svg"
   xmlns:inkscape="http://www.inkscape.org/namespaces/inkscape"
   xmlns:sodipodi="http://sodipodi.sourceforge.net/DTD/sodipodi-0.dtd"
   xmlns="http://www.w3.org/2000/svg"
   xmlns:svg="http://www.w3.org/2000/svg"
   xmlns:rdf="http://www.w3.org/1999/02/22-rdf-syntax-ns#"
   xmlns:cc="http://creativecommons.org/ns#"
   xmlns:dc="http://purl.org/dc/elements/1.1/">
  <defs
     id="defs2">
    <rect
       x="434.28571"
       y="20"
       width="1934.2857"
       height="408.57143"
       id="rect1" />
  </defs>
  <sodipodi:namedview
     id="base"
     pagecolor="#ffffff"
     bordercolor="#666666"
     borderopacity="1.0"
     inkscape:pageopacity="0.0"
     inkscape:pageshadow="2"
     inkscape:zoom="0.35"
     inkscape:cx="-120"
     inkscape:cy="4.2857143"
     inkscape:document-units="mm"
     inkscape:current-layer="layer1"
     showgrid="false"
     fit-margin-top="0"
     fit-margin-left="0"
     fit-margin-right="0"
     fit-margin-bottom="0"
     inkscape:window-width="2560"
     inkscape:window-height="1369"
     inkscape:window-x="-8"
     inkscape:window-y="-8"
     inkscape:window-maximized="1"
     inkscape:showpageshadow="2"
     inkscape:pagecheckerboard="0"
     inkscape:deskcolor="#d1d1d1" />
  <metadata
     id="metadata5">
    <rdf:RDF>
      <cc:Work
         rdf:about="">
        <dc:format>image/svg+xml</dc:format>
        <dc:type
           rdf:resource="http://purl.org/dc/dcmitype/StillImage" />
      </cc:Work>
    </rdf:RDF>
  </metadata>
  <g
     inkscape:label="Calque 1"
     inkscape:groupmode="layer"
     id="layer1"
     transform="translate(0,0.13315301)">
    <path
       style="fill:#e9e3cf;fill-opacity:1;stroke-width:0.176422"
       d="m 31.666609,107.79334 c -1.297547,-0.56517 -2.3457,-2.45162 -3.587043,-6.45589 -1.885459,-6.082036 -3.374923,-8.875226 -8.062956,-15.120436 -1.253245,-1.66952 -2.993139,-4.00687 -3.86643,-5.19412 -0.873292,-1.18725 -1.865668,-2.49902 -2.205281,-2.91505 -3.268533,-4.004025 -7.2767299,-9.445445 -8.4104159,-11.417755 -1.429224,-2.48648 -2.082161,-4.21304 -2.742868,-7.25298 -0.490109,-2.255014 -0.544043,-2.832057 -0.619867,-6.631908 -0.09065,-4.542865 0.16576,-7.103106 1.109097,-11.074208 1.480901,-6.234034 4.437283,-11.608991 8.3679149,-15.213578 3.067733,-2.813269 5.339143,-4.307813 8.4207,-5.540648 2.95509,-1.182245 5.543603,-1.695403 9.224197,-1.828642 l 3.087391,-0.111768 0.130498,-1.308789 c 0.272792,-2.735867 1.354464,-5.129277 3.058129,-6.766688 0.380972,-0.366157 1.010232,-0.9829212 1.398359,-1.3705882 1.515842,-1.514053 2.488761,-1.785056 3.298375,-0.918756 0.538743,0.576457 0.947974,1.6450212 0.78883,2.0597332 -0.06241,0.162725 -0.491573,0.458334 -0.953621,0.656905 -2.795686,1.201509 -3.271083,1.476221 -4.054839,2.343133 -1.075471,1.189573 -1.631791,2.441452 -1.758942,3.958114 l -0.102739,1.22546 1.215051,0.114462 c 5.781981,0.544697 8.329386,1.29816 12.153235,3.594638 5.589824,3.357072 10.220793,9.064046 12.505008,15.410548 2.397896,6.662355 2.965404,12.504054 1.787867,18.403391 -0.251788,1.26142 -0.530335,2.531659 -0.618991,2.822769 -0.08866,0.29109 -0.411986,1.36285 -0.718497,2.3817 -1.04634,3.47799 -2.906114,6.59006 -8.506654,14.234735 -2.15483,2.94132 -3.442262,4.63435 -6.529916,8.58717 -2.662227,3.40818 -4.56771,6.0531 -5.483191,7.61097 -2.563969,4.36312 -3.494872,6.77289 -4.60031,11.908516 -0.57821,2.68624 -0.992655,3.61369 -1.729649,3.87061 -0.705268,0.24586 -1.33192,0.22665 -1.992442,-0.0611 z m 2.129008,-5.41826 C 33.186348,98.716774 32.619,93.138164 32.365011,88.308394 l -0.12387,-2.35549 0.599227,0.30852 c 0.32957,0.16969 1.342996,0.73729 2.252056,1.26133 0.909053,0.52404 1.683554,0.92208 1.721114,0.88453 0.03754,-0.0375 -0.547444,-0.59502 -1.299994,-1.23881 -0.75255,-0.64378 -1.824667,-1.5894 -2.38248,-2.10137 l -1.014213,-0.93085 -0.168046,-4.93372 c -0.09242,-2.71355 -0.135846,-4.965925 -0.0965,-5.005275 0.03934,-0.0393 1.404961,0.74336 3.034698,1.739375 1.62973,0.996 3.631418,2.20052 4.448194,2.67671 0.816775,0.47619 1.714486,1.02917 1.994913,1.22885 0.997296,0.71014 0.637121,0.19962 -0.587192,-0.83228 -2.942807,-2.48033 -4.078883,-3.356845 -6.210189,-4.791285 -1.24239,-0.83618 -2.345367,-1.68191 -2.451067,-1.87941 -0.19311,-0.36083 -0.112735,-9.3732 0.08536,-9.57129 0.05041,-0.0504 0.43673,0.0835 0.858517,0.29749 3.053428,1.5493 15.868849,9.57286 17.128242,10.72377 0.739094,0.67542 0.742174,0.35828 0.0047,-0.50307 -1.261353,-1.47362 -8.19388,-6.37209 -13.857725,-9.79177 -1.434267,-0.86596 -2.894518,-1.81086 -3.245005,-2.09977 l -0.637248,-0.52528 0.09246,-4.536086 c 0.05088,-2.494848 0.147754,-4.625541 0.215321,-4.734875 0.136699,-0.221188 0.610469,0.02814 4.682638,2.464183 1.406968,0.84168 3.629891,2.111615 4.939827,2.822084 2.172814,1.178464 7.092018,3.925734 10.408923,5.813164 0.727745,0.41411 1.680426,1.00514 2.117069,1.31341 1.032904,0.7292 1.234962,0.84842 1.234962,0.72866 0,-0.12702 -2.885422,-2.2683 -4.792006,-3.55618 -0.809047,-0.5465 -2.979407,-1.90633 -4.823018,-3.021851 -1.843618,-1.115519 -4.661968,-2.820997 -6.262999,-3.789948 -4.074603,-2.46597 -5.437496,-3.314731 -6.398746,-3.984886 l -0.834579,-0.581844 0.0124,-4.005136 c 0.0068,-2.202826 0.06635,-4.139868 0.132312,-4.304533 0.102366,-0.255569 0.494421,-0.08582 2.678043,1.159481 7.358608,4.196566 14.569441,7.905825 18.738949,9.639342 1.233901,0.513005 2.2096,0.987502 2.168232,1.054434 -0.06108,0.09889 2.426349,1.331694 3.155161,1.563718 0.107661,0.03427 -0.43937,-0.38734 -1.215631,-0.936925 -1.441135,-1.020321 -4.597289,-2.812536 -10.408922,-5.910686 -4.395731,-2.343339 -5.17762,-2.78723 -11.158725,-6.334999 L 33.3512,39.506076 v -1.606373 c -7e-6,-3.385451 0.219181,-6.425564 0.463268,-6.425564 0.29569,0 2.876088,1.25716 6.593629,3.212392 1.601031,0.84206 4.181209,2.079696 5.733725,2.750297 1.552522,0.670601 3.247459,1.43464 3.766524,1.69787 0.519066,0.26323 0.979847,0.442511 1.023955,0.398409 0.21146,-0.21146 -4.218737,-2.811702 -8.759981,-5.141552 -1.869623,-0.959189 -2.06336,-1.062529 -5.581837,-2.977327 -2.309306,-1.256759 -2.501043,-1.39984 -2.583418,-1.927861 -0.112308,-0.71985 0.06314,-6.28693 0.211106,-6.699815 0.09578,-0.267191 0.478652,-0.121737 2.919043,1.108917 1.544841,0.779042 2.897638,1.490171 3.006206,1.580275 0.108574,0.09011 0.9469,0.551518 1.862948,1.025355 5.23431,2.707516 7.416166,3.894388 8.198615,4.459823 0.482171,0.348439 0.995756,0.692738 1.141304,0.765105 0.444538,0.221029 -0.529688,-0.555459 -2.293491,-1.827974 -3.671219,-2.648645 -13.537364,-8.303568 -14.487238,-8.303568 -0.284975,0 -0.33225,-0.1376 -0.33225,-0.966965 0,-0.873359 -0.04094,-0.977246 -0.423114,-1.073157 -0.232711,-0.05841 -0.609816,-0.07977 -0.838006,-0.04748 -0.382153,0.05408 -0.417987,0.149215 -0.454067,1.205476 -0.07997,2.340986 -0.425914,7.838646 -0.524173,8.329933 -0.07183,0.359155 -0.295779,0.607296 -0.763361,0.845835 -1.073825,0.547831 -4.490849,1.553789 -10.228968,3.011373 -6.404639,1.626897 -8.115435,2.156044 -8.115435,2.510111 0,0.190197 0.602931,0.09592 5.028041,-0.786216 3.963927,-0.79019 8.464344,-1.831129 8.997546,-2.081103 0.194063,-0.09098 1.265834,-0.440544 2.381707,-0.776801 1.115872,-0.336258 2.177488,-0.670675 2.359149,-0.743155 0.31945,-0.127438 0.326038,0.0097 0.200654,4.173621 -0.07131,2.367971 -0.158899,4.354936 -0.194653,4.415481 -0.03574,0.06055 -0.483305,0.308026 -0.994556,0.549945 -1.36736,0.647023 -4.403559,1.608333 -12.485211,3.953019 -3.541724,1.027536 -7.028959,2.335619 -6.263,2.349281 0.495262,0.0089 2.537201,-0.396589 5.733731,-1.138423 4.074111,-0.9455 5.218135,-1.245077 9.085758,-2.3792 1.94065,-0.569068 3.786468,-1.087047 4.101822,-1.151066 0.56178,-0.114042 0.573375,-0.103626 0.573375,0.515165 0,1.598391 -0.403196,7.802306 -0.520985,8.016233 -0.288802,0.524527 -5.727284,2.569429 -10.858268,4.082764 -5.754207,1.697157 -11.2720749,3.724543 -10.0560814,3.694831 1.0848844,-0.02654 5.0480104,-0.980874 10.5853484,-2.549059 1.843618,-0.52212 4.264152,-1.196815 5.378971,-1.499319 1.114813,-0.302504 2.643077,-0.817016 3.396134,-1.143358 l 1.369187,-0.593346 -0.0013,1.00097 c -0.0047,2.74571 -0.367169,7.708354 -0.57899,7.920174 -0.401043,0.40104 -3.096016,1.43811 -8.615727,3.31549 -5.012926,1.705 -9.157358,3.40673 -8.682422,3.56505 0.328556,0.10951 3.11467,-0.61371 6.234856,-1.61845 9.183409,-2.9572 10.738478,-3.44838 10.917432,-3.44838 0.250248,0 0.262583,0.30897 0.204332,5.11625 -0.02647,2.18323 -0.121036,4.10838 -0.210186,4.27812 -0.08915,0.16973 -2.005156,1.2078 -4.257778,2.30683 -3.930368,1.917565 -7.463221,3.995235 -7.035746,4.137735 0.242786,0.0809 5.328201,-1.96414 8.673791,-3.488115 1.309937,-0.5967 2.468964,-1.12285 2.575611,-1.16922 0.286901,-0.12474 0.423807,2.022655 0.422027,6.619595 l -0.0013,3.98699 -1.012886,0.65352 c -1.255512,0.81006 -3.637913,3.00123 -2.688899,2.47306 0.339612,-0.18901 1.322279,-0.71993 2.183696,-1.17982 1.791288,-0.95632 1.866169,-0.93188 1.872764,0.61137 0.0088,2.05587 1.088323,10.09469 1.587191,11.81913 0.09806,0.33898 0.178294,0.826086 0.178294,1.082476 0,0.25638 0.118596,0.69355 0.263544,0.97149 0.144954,0.27793 0.264037,0.67211 0.264637,0.87595 0.0013,0.41331 0.261836,1.28451 0.636001,2.12595 0.135959,0.30577 0.247194,0.67102 0.247194,0.81168 0,0.40169 0.407484,1.46767 0.479011,1.25309 0.03534,-0.10593 -0.218508,-1.89007 -0.564034,-3.96477 z"
       id="path826"
       inkscape:connector-curvature="0" />
    <text
       xml:space="preserve"
       transform="matrix(0.26458333,0,0,0.26458333,-36.285714,11.508515)"
       id="text1"
       style="font-size:333.333px;white-space:pre;shape-inside:url(#rect1);display:inline;fill:#e9e3cf;fill-opacity:1"><tspan
         x="434.28516"
         y="324.10981"
         id="tspan8"><tspan
           style="font-family:Sans;-inkscape-font-specification:Sans"
           id="tspan1">N</tspan><tspan
           style="font-size:266.667px;font-family:Sans;-inkscape-font-specification:Sans"
           id="tspan2">ATURE </tspan><tspan
           style="font-family:Sans;-inkscape-font-specification:Sans"
           id="tspan7">GO</tspan></tspan></text>
  </g>
</svg>
