<svg xmlns="http://www.w3.org/2000/svg" height="1024" preserveAspectRatio="none" style="display: block;" version="1.1" viewBox="0 0 2048 2048" width="1024">
<defs>
	<linearGradient gradientUnits="userSpaceOnUse" id="Gradient1" x1="749.792" x2="731.21" y1="530.127" y2="465.881">
		<stop class="stop0" offset="0" stop-color="rgb(11,10,10)" stop-opacity="1"></stop>
		<stop class="stop1" offset="1" stop-color="rgb(45,44,44)" stop-opacity="1"></stop>
	</linearGradient>
</defs>

<path d="M 716.365 58.4315 C 768.085 57.3189 815.387 75.9803 852.785 111.359 C 863.418 121.418 874.139 134.594 884.628 143.538 C 896.733 153.352 910.671 161.157 923.125 170.483 C 976.019 210.095 1020.71 258.564 1052.28 316.855 C 1058.43 328.217 1065.99 343.246 1068.02 355.883 C 1037.48 300.315 992.627 239.483 942.626 200.106 C 966.962 229.477 986.353 262.615 1000.04 298.218 C 1004.99 311.394 1022.27 372.732 1017.43 383.37 C 1016.51 382.593 1003.3 331.423 1000.16 323.512 C 981.777 277.154 952.727 224.733 917.49 189.26 L 916.451 188.224 C 934.37 216.365 945.334 234.367 948.615 268.51 C 957.219 359.104 910.665 456.587 819.846 485.46 C 798.45 492.262 733.007 508.8 735.002 537.589 C 737.202 569.33 757.536 613.19 796.17 610.339 C 836.983 607.327 851.178 547.027 878.799 523.027 C 917.436 483.139 954.513 457.388 1012.23 455.712 C 1071.01 454.005 1132.51 469.89 1185.5 494.573 C 1197.08 500.182 1218.01 514.604 1229.4 522.24 C 1277.27 554.013 1322.84 589.126 1365.77 627.317 C 1469.84 721.124 1546.87 828.594 1616.14 949.363 C 1646.89 1002.53 1674.48 1057.47 1698.77 1113.89 C 1712.36 1146.31 1724.27 1175.71 1735.01 1209.27 C 1741.21 1228.68 1747.95 1250.45 1754.66 1269.47 C 1756.33 1274.2 1769.33 1294.82 1773.11 1301.21 C 1782.8 1317.84 1792.04 1334.73 1800.84 1351.85 C 1827.88 1405.5 1846.91 1465.07 1863 1522.88 C 1873.6 1560.93 1878.91 1585.32 1880.97 1624.89 C 1856.07 1617.4 1839.28 1608.33 1816.27 1596.84 C 1824.05 1611.5 1843.02 1641.14 1824.05 1655.16 C 1807.51 1667.38 1779.33 1648.1 1763.53 1643.07 C 1756.56 1640.85 1744.62 1642.78 1737.05 1640.98 C 1712.58 1637.03 1695.03 1615.26 1678.81 1597.84 C 1647.25 1563.94 1620.05 1526.16 1593.27 1488.37 C 1582.49 1484.38 1568.8 1481.24 1557.55 1477.76 C 1535.86 1470.93 1514.31 1463.67 1492.91 1455.97 C 1502.39 1480.65 1520.85 1505.7 1507.96 1533.35 C 1486.22 1579.96 1462.5 1625.71 1439.89 1671.89 C 1427.29 1697.62 1416.47 1725 1403.62 1750.72 C 1390.09 1778.83 1379.6 1809.9 1368.78 1839.19 C 1393.11 1838.76 1480.01 1827.27 1492.42 1851.98 C 1491.69 1867.62 1460.48 1857.36 1450.16 1857.69 C 1426.85 1858.45 1403.77 1860.79 1380.53 1862.79 C 1406.36 1866.45 1419.88 1875.38 1443.26 1878.85 C 1460.38 1880.02 1478.74 1876.06 1495.59 1874.55 C 1532.82 1871.24 1569.2 1871.8 1606.63 1872.37 C 1709.62 1873.93 1810.13 1901.38 1905.9 1937.6 C 1913.11 1940.33 1922.4 1943.45 1929.07 1946.97 C 1927.84 1948.37 1917.33 1945.35 1915.09 1944.75 C 1806.69 1915.94 1696.79 1895.48 1584.48 1891.01 C 1539.15 1889.2 1492.65 1891.95 1447.21 1891.03 C 1423.56 1890.55 1401.8 1885.7 1378.54 1883.02 C 1328.95 1880.66 1277.73 1885.91 1228 1886.75 C 1218 1886.92 1183.42 1885.96 1175.83 1888.05 L 1175.54 1889.18 C 1182.81 1893.74 1209.78 1896.88 1220.71 1899.91 C 1243.83 1906.3 1261.79 1915.22 1274.44 1936.24 C 1231.47 1929.64 1188.7 1930.38 1147.5 1917.96 C 1103.91 1904.82 1070.01 1907.06 1033.59 1935.65 C 1007.82 1955.88 979.13 1977.47 946.607 1985.41 C 940.485 1986.89 928.067 1990.59 922.641 1987.36 L 922.399 1985.32 C 933.08 1969.4 963.638 1950.17 979.266 1937.56 C 990.316 1928.64 997.79 1921.7 1008.06 1911.73 C 935.629 1931.09 861.865 1954.93 786.806 1959.55 C 782.049 1960.29 777.093 1961.34 772.389 1962.24 C 735.545 1969.28 699.853 1977.17 664.062 1988.46 C 696.232 1969.26 726.753 1959.85 762.776 1951.47 C 774.908 1947.25 782.16 1933.45 794.678 1929.44 C 853.671 1910.55 914.086 1899.73 974.729 1887.46 C 937.432 1885.3 899.905 1882.53 863.007 1876.48 C 841.303 1872.93 821.62 1875.67 799.887 1877.84 C 774.63 1880.48 749.391 1883.3 724.172 1886.29 C 668.07 1893.27 609.544 1905.29 554.505 1915.88 C 537.389 1919.17 378.628 1950.14 375.225 1948.82 L 375.468 1948.53 L 376.574 1949.01 L 376.359 1948.19 C 469.609 1919.67 560.133 1892.73 657.142 1878.15 C 693 1872.76 731.746 1869.16 767.949 1865.89 C 791.002 1863.81 816.817 1864.61 839.754 1861.33 C 848.417 1860.09 863.412 1851.94 873.911 1850.55 C 905.08 1846.44 939.403 1850.34 970.513 1853.19 C 981.983 1854.24 991.801 1856.61 1002.95 1856.56 C 1004.08 1854.92 1008.46 1848.97 1009.77 1848.37 C 1025.19 1841.23 1067.16 1842.96 1083.17 1843.71 C 1097.94 1825.95 1116.06 1787.09 1128.39 1765.56 C 1148.39 1730.61 1168.26 1694.78 1187.77 1659.52 C 1194.98 1644.8 1203.76 1629.88 1210.56 1615.07 C 1219.67 1595.19 1249.44 1549.14 1248.07 1528.66 C 1246.06 1498.71 1237.23 1464.32 1231.27 1434.78 C 1225.22 1409.27 1220.71 1381.94 1211.57 1357.33 C 1207.81 1347.19 1196.42 1333.27 1190.74 1322.3 C 1081.8 1258.79 1018.14 1155.62 952.23 1052.94 C 960.416 1079.2 967.375 1106.05 976.348 1132.02 C 980.851 1145.06 988.082 1157.89 992.598 1171.46 C 967.769 1135.47 956.622 1102.57 941.499 1062.31 L 917.341 999.299 C 908.688 976.039 900.915 954.189 891.24 931.226 C 879.908 904.335 866.321 882.494 852.175 857.189 C 846.312 846.702 839.261 836.797 834.329 825.85 C 849.897 845.811 866.76 862.567 883.602 881.066 C 929.831 931.841 970.822 973.42 1026.64 1013.82 C 1009.89 985.173 1001.22 969.235 988.084 938.878 C 955.915 928.635 910 878.702 885.97 854.616 C 864.488 833.085 841.726 810.197 822.944 786.358 C 869.109 825.428 912.382 866.598 958.327 905.737 C 966.219 912.46 976.086 919.008 984.607 925.058 C 979.05 910.563 973.246 897.204 966.996 882.984 C 919.224 857.737 893.009 826.247 856.572 787.735 C 888.996 806.099 929.143 846.695 964.414 869.248 C 961.767 863.929 953.855 841.684 950.757 839.256 C 920.694 815.696 894.47 788.307 866.21 762.834 C 893.465 776.211 919.652 801.592 947.64 818.562 C 939.622 798.602 933.529 782.955 926.884 762.45 C 906.546 754.282 879.388 737.475 861.425 724.593 C 884.713 734.759 903.317 744.461 925.657 755.284 C 915.045 719.713 908.853 687.421 909.021 650.106 C 917.744 635.133 923.66 634.957 928.175 614.777 C 919.76 613.048 916.104 611.495 908.484 607.954 C 917.491 590.489 931.848 576.795 946.589 564.261 C 941.728 560.938 938.962 560.193 934.605 555.71 C 934.299 553.386 934.167 552.863 936.068 550.521 C 949.258 534.269 972.353 531.952 991.07 538.786 C 994.919 540.191 1005.11 545.293 1007.65 545.018 C 1007.16 538.536 998.189 533.168 997.634 528.484 C 1017.48 521.745 1040.38 531.862 1057.09 542.072 C 1051.99 534.061 1047.95 528.68 1041.91 521.439 C 1053.7 524.737 1062.45 529.433 1071.88 537.142 C 1103.09 562.646 1111.11 589.181 1115.36 627.259 C 1092.63 615.564 1083.54 607.728 1066 588.407 C 1067.62 594.404 1069.96 602.123 1070.52 608.089 L 1069.15 609.195 C 1059.25 609.658 1035.43 597.042 1025.91 592.426 C 1001.08 636.15 999.566 667.626 1007.78 715.719 C 996.984 700.254 981.528 668.149 973.683 650.695 C 972.821 652.973 972.018 655.273 971.276 657.593 C 956.356 703.702 970.979 771.088 993.219 813.818 C 974.55 799.323 963.993 788.111 950.067 769.459 C 962.876 811.607 978.313 827.085 1019.73 842.842 C 996.514 841.935 980.334 832.476 960.027 821.839 C 972.314 844.945 993.089 864.013 1013.68 879.485 C 995.111 874.05 978.036 861.662 962.402 850.212 C 964.923 857.487 967.956 864.91 972.945 870.882 C 990.173 891.503 1070.1 911.339 1097.54 914.068 C 1057.55 918.512 1024 915.308 988.03 896.174 C 993.588 907.469 1001.84 920.484 1008.05 932.236 C 1029.52 943.136 1044.43 950.664 1066.76 959.22 C 1043.05 957.99 1033.99 955.859 1011.66 949.117 C 1023.68 977.081 1036.14 995.827 1054.12 1020.31 C 1066.93 1037.46 1081.6 1055.49 1094.12 1072.48 C 1144.01 1140.16 1168.67 1179.83 1248.36 1215.89 C 1206.31 1156.4 1177.01 1100.27 1169.48 1026.74 C 1182.59 1053.45 1196.28 1081.64 1207.36 1109.28 C 1235.7 1179.96 1275.22 1247.13 1350.19 1276.44 C 1326.32 1232.99 1296.13 1167.14 1290.09 1118.17 C 1303.28 1135.64 1314.71 1166.56 1323.25 1187.68 C 1334.89 1216.44 1344.3 1239.91 1360.38 1266.7 C 1385.29 1309.07 1426 1339.83 1473.56 1352.23 C 1438.64 1314.57 1402.16 1247.12 1387.14 1197.56 C 1383.86 1186.73 1381.8 1173.31 1380.05 1161.97 C 1389.15 1170.49 1413.64 1226.62 1421.18 1242.33 C 1427.25 1254.82 1433.58 1267.17 1440.16 1279.39 C 1468.65 1332.55 1498.13 1367.93 1557.4 1385.89 C 1519.86 1337.35 1483.19 1282.35 1454.23 1228.12 C 1449.36 1218.99 1443.12 1202.87 1439.02 1192.97 C 1475.16 1235.27 1501.34 1291.86 1534.36 1337.44 C 1555.96 1367.25 1572.16 1384.07 1598.61 1409.7 C 1637.63 1447.52 1677.07 1480.38 1732.75 1489.53 C 1720.08 1476.05 1705.01 1463.84 1693.09 1449.73 C 1649.06 1397.65 1609.06 1341.67 1584.68 1277.91 C 1659.05 1364.69 1671.59 1452.94 1786.36 1507.18 C 1777.16 1492.92 1764.62 1480.41 1755.85 1466.47 C 1726.98 1420.61 1688.92 1378.58 1669.95 1327.38 C 1665.98 1316.67 1662.78 1305.69 1659.39 1295.17 C 1689.36 1329.6 1713.5 1384.96 1738.24 1423.9 C 1767.39 1469.78 1806.57 1519.87 1842.06 1561.47 C 1825.33 1555.05 1809.14 1547.32 1793.62 1538.36 C 1780.75 1530.83 1766.19 1521.06 1752.85 1514.96 C 1768.38 1538.39 1787.05 1548.37 1809.99 1563.54 L 1859.09 1596.47 C 1842.75 1547.39 1828.7 1500.3 1810.6 1451.4 C 1793.42 1404.97 1768.76 1351.13 1754.8 1304.76 C 1750.77 1314.36 1747.76 1337.25 1738.16 1341.08 C 1720.47 1348.14 1724.84 1324.76 1724.93 1318.13 C 1725.52 1274.1 1718.08 1228.8 1703.79 1187.23 C 1661.53 1064.29 1596.78 947.622 1523.77 840.376 C 1484.84 783.213 1445.44 730.735 1393.01 685.002 C 1338.24 637.229 1270.09 602.773 1205.29 570.177 C 1215.58 572.378 1234.66 580.991 1244.93 585.406 C 1278.75 599.588 1311.86 615.415 1344.14 632.831 C 1330.81 621.161 1311.76 605.887 1297.1 595.488 C 1254.61 565.349 1203.14 521.223 1155.49 501.376 C 1103.93 479.902 1035.84 468.769 981.873 479.368 C 923.691 490.795 881.805 542.717 852.762 591.152 C 842.594 607.274 825.779 624.804 805.966 627.7 C 759.161 634.543 726.874 596.936 718.788 554.559 C 707.802 505.781 746.255 488.935 785.543 477.939 C 831.074 465.196 869.71 446.612 896.679 404.942 C 925.148 360.954 938.88 306.081 928.672 253.949 C 922.151 220.653 904.124 191.759 875.774 173.204 C 835.784 145.935 826.179 162.631 783.194 156.079 C 774.433 154.744 758.335 148.958 750.189 144.944 C 716.275 128.233 701.5 128.249 664.516 135.834 C 681.457 147.704 685.256 166.01 672.173 182.947 C 659.957 198.761 638.925 200.263 620.475 202.26 C 633.795 206.764 637.175 210.843 646.334 221.298 C 640.238 218.295 628.508 212.556 621.927 212.298 C 599.045 211.402 574.665 216.916 551.6 218.566 C 479.698 223.713 409.19 230.914 338.009 242.373 C 292.392 249.717 247.987 260.117 202.576 267.533 C 233.848 269.823 274.719 266.36 305.966 263.628 C 342.347 260.603 378.702 257.266 415.026 253.616 C 456.619 249.828 492.648 249.699 533.879 249.379 C 536.313 243.448 538.416 239.041 541.294 233.315 C 548.496 228.863 563.143 223.566 571.535 220.43 C 558.741 232.768 550.669 229.297 539.987 249.05 C 582.351 242.16 613.471 250.793 654.179 258.98 C 669.073 261.976 684.326 263.985 699.305 267.196 C 666.603 269.398 627.644 254.405 593.451 253.245 C 565.871 252.309 545.884 255.26 518.672 257.844 C 496.173 259.893 473.638 261.524 451.078 262.737 C 494.111 277.703 528.485 277.05 573.309 277.163 C 602.033 277.503 630.761 276.987 659.455 275.615 C 687.021 274.071 739.569 267.509 764.577 276.784 C 837.625 303.876 797.342 411.307 720.876 377.82 C 769.929 381.581 799.631 365.829 791.656 310.981 C 790.785 333.411 786.013 356.404 763.761 367.751 C 742.53 378.578 717.824 370.214 696.736 363.214 C 706.003 368.133 709.278 371.147 717.177 377.907 C 695.275 382.022 679.941 381.571 658.397 393.817 C 649.357 398.957 640.86 406.164 631.42 409.966 C 619.126 414.917 606.307 415.265 593.508 419.424 L 592.092 419.893 C 580.687 436.306 576.94 446.09 571.667 465.209 C 581.433 449.668 618.831 419.055 633.929 411.958 C 631.364 415.517 627.92 419.249 625.134 422.759 C 606.777 445.889 602.909 475.855 581.557 496.81 C 576.814 501.466 570.576 509.787 566.613 515.209 C 565.279 535.484 568.2 566.749 570.55 587.019 C 573.73 579.398 594.321 538.284 594.308 536.224 C 594.113 502.796 598.825 480.304 614.598 448.969 C 611.401 468.655 603.921 491.758 604.529 511.742 C 605.845 555.014 615.547 600.604 621.457 643.639 C 624.36 664.783 631.264 685.766 633.445 706.853 L 633.582 708.244 C 622.447 684.033 616.793 671.275 610.786 645.178 C 608.29 666.08 604.252 686.768 598.705 707.074 C 601.86 720.88 608.881 739.451 613.109 754.227 C 616 741.994 616.79 731.547 617.537 719.165 C 621.937 727.319 625.109 739.131 629.827 748.009 C 649.761 785.673 676.255 818.535 704.393 850.288 C 727.709 876.6 744.94 902.052 763.462 931.762 C 759.687 915.273 755.876 896.643 750.016 880.988 C 744.957 867.472 737.867 854.57 732.619 840.847 C 763.255 891.668 791.547 946.55 809.752 1003.25 C 817.618 1027.75 821.396 1054.05 829.073 1078.8 C 815.944 1059.55 811.461 1043.48 803.087 1022.5 C 794.72 1001.54 786.85 980.052 778.4 959.215 C 791.836 1030.56 780.136 1095.44 756.811 1163.48 L 756.083 1163.47 C 756.571 1158.75 760.749 1144.54 762.058 1138.7 C 765.751 1121.9 768.871 1104.97 771.412 1087.95 C 777.249 1046.28 777.052 990.893 763.149 950.343 C 760.385 942.284 752.163 931.683 746.891 924.679 C 748.93 934.18 763.482 985.512 763.404 990.577 C 760.372 984.394 756.789 972.532 754.359 965.602 C 750.328 954.141 745.714 942.894 740.534 931.905 C 729.606 909.047 700.13 877.492 683.007 856.049 C 688.269 867.82 693.079 875.758 700.483 886.317 C 673.071 861.664 635.369 792.114 620.237 757.797 C 617.795 765.822 616.036 771.502 612.785 779.177 C 607.84 771.795 602.254 759.001 598.356 750.819 C 576.157 704.212 560.667 642.31 554.512 591.038 C 546.828 527.018 544.341 445.064 586.794 392.238 C 617.345 354.224 653.467 338.203 701.985 348.03 C 715.048 350.676 735.328 356.564 747.792 354.637 C 756.549 353.347 764.391 348.517 769.485 341.278 C 792.441 308.545 772.356 290.759 738.139 289.982 C 719.676 289.563 702.247 290.247 683.836 290.647 C 643.122 291.571 602.393 291.693 561.674 291.012 C 515.025 290.184 471.82 291.94 430.963 266.361 C 406.91 267.785 377.102 271.57 352.575 273.741 C 302.844 278.483 252.926 280.998 202.971 281.278 C 190.471 281.288 126.688 281.405 120.845 273.364 C 120.45 271.405 119.685 269.387 121.377 267.744 C 127.651 261.653 144.986 256.161 152.799 253.096 C 189.154 238.835 226.437 229.07 263.717 218.034 C 345.057 193.955 426.743 176.11 509.588 158.448 C 514.896 151.765 520.423 145.258 526.16 138.939 C 576.089 84.8117 644.316 61.5872 716.365 58.4315 z" fill="rgb(43,41,42)" transform="translate(0,0)"></path>



<path d="M 490.45 180.174 C 495.381 179.796 529.282 181.489 531.052 183.78 C 525.336 191.495 478.869 199.144 467.283 200.635 C 461.127 201.822 431.96 202.603 427.003 199.518 L 427.87 198.107 C 434.996 194.423 481.075 182.236 490.45 180.174 z" fill="rgb(43,41,42)" transform="translate(0,0)"></path>








<path d="M 639.194 150.175 C 646.207 147.849 653.779 151.643 656.114 158.652 C 658.45 165.662 654.667 173.239 647.66 175.584 C 640.64 177.934 633.045 174.142 630.705 167.119 C 628.365 160.095 632.167 152.506 639.194 150.175 z" fill="rgb(43,41,42)" transform="translate(0,0)"></path>

















<path d="M 1015.75 1860.38 C 1022.59 1859.73 1031.74 1859.85 1038.15 1862.59 C 1031.59 1862.65 1021.9 1862.39 1015.75 1860.38 z" fill="rgb(149,149,146)" transform="translate(0,0)"></path>
<path d="M 1340.95 931.747 C 1344.04 934.218 1374.89 992.221 1379.45 1000.61 C 1406.19 1049.87 1433.01 1090.81 1469.4 1133.33 C 1468.15 1101.67 1461.99 1061.25 1455.16 1030.51 C 1451.16 1012.49 1445.36 995.481 1441.69 976.799 C 1458.06 1017.28 1497.04 1061 1524.59 1095.3 C 1539.29 1113.61 1558.52 1136.88 1575.44 1152.75 C 1585.17 1088.48 1581.99 1043.91 1580.69 980.686 C 1586.47 998.883 1592.5 1040.03 1594.31 1059.1 C 1600.66 1110.3 1597.11 1158.94 1581.2 1208.16 C 1539.8 1176.9 1510.78 1125.22 1483.25 1082.27 C 1493 1120.14 1495.43 1165.78 1497.09 1204.83 C 1464.98 1182.56 1443.85 1148.52 1423.56 1115.53 C 1417.88 1106.29 1413.28 1094.05 1407.41 1084.66 L 1406.93 1083.92 C 1409.88 1107.51 1410.08 1123.06 1405.85 1146.25 C 1399.03 1141.65 1393.56 1137.03 1390.92 1128.92 C 1378.85 1091.89 1372.8 1051.59 1364.19 1013.33 C 1357.68 984.446 1347.69 959.009 1340.95 931.747 z" fill="rgb(43,41,42)" transform="translate(0,0)"></path>
<path d="M 669.958 727.284 C 705.488 778.071 748.475 818.471 786.623 866.903 C 802.541 887.113 817.048 914.471 829.415 937.144 C 839.124 958.737 854.989 987.293 860.169 1010.18 C 872.052 1062.68 887.287 1108.34 908.838 1157.72 C 922.245 1188.44 933.725 1217.81 949.013 1248.29 C 918.106 1209.46 891.544 1149.5 874.728 1102.97 C 877.642 1142.86 884.133 1191.57 890.415 1230.65 L 888.471 1231.34 C 885.308 1208.34 877.315 1183.4 873.74 1159.16 C 857.677 1050.24 830.085 934.116 756.038 849.046 C 742.534 833.532 730.874 816.019 717.232 800.56 C 694.919 775.485 681.734 758.599 669.958 727.284 z" fill="rgb(43,41,42)" transform="translate(0,0)"></path>
<path d="M 1272.99 859.53 C 1279.04 862.432 1286.35 873.385 1290.07 879.025 C 1324.55 931.372 1341.71 1013.44 1328.12 1075.46 C 1290.85 1047.38 1262.83 961.951 1249.2 917.532 C 1243.4 901.636 1236.52 879.015 1232.87 862.651 C 1238.34 875.394 1245.73 887.85 1251.07 900.545 C 1269.82 945.065 1292.59 986.348 1314.46 1029.19 C 1311.41 996.784 1311.52 964.447 1303.56 932.75 C 1296.87 906.118 1285.5 883.651 1272.99 859.53 z" fill="rgb(43,41,42)" transform="translate(0,0)"></path>
<path d="M 1642.93 1080.74 C 1646.21 1084.11 1663.74 1123.03 1666.52 1130.06 C 1685.13 1177.13 1702.06 1223.48 1682.69 1272.85 C 1654.14 1256.01 1642.94 1219.01 1627.26 1192.88 L 1626.78 1192.08 C 1628.33 1202 1633.44 1249.79 1623.76 1254.63 C 1620.73 1254.13 1620.05 1252.98 1617.86 1250.8 C 1608.4 1229.77 1617.71 1187.08 1616 1162.86 C 1615.27 1152.62 1613 1139.47 1613.16 1129.95 C 1616.09 1139.24 1623.17 1161.95 1627.37 1169.84 C 1637.99 1189.74 1657.4 1211.81 1671.44 1230.4 C 1669.62 1179.36 1655.36 1130.19 1642.93 1080.74 z" fill="rgb(43,41,42)" transform="translate(0,0)"></path>
<path d="M 792.057 821.789 C 799.162 826.605 819.751 853.118 825.922 861.07 C 846.654 887.787 870.026 916.552 885.893 946.516 C 906.792 985.752 920.721 1028.02 937.469 1068.95 C 958.007 1119.15 980.894 1175.53 1009.77 1221.39 C 989.248 1208.62 933.035 1099.32 921.71 1072.55 C 903.123 1028.6 886.141 982.1 864.009 938.148 C 843.398 897.218 814.187 861.755 792.645 822.869 L 792.057 821.789 z" fill="rgb(43,41,42)" transform="translate(0,0)"></path>
<path d="M 1325.91 697.687 C 1329.64 699.451 1334.62 706.437 1337.15 709.88 C 1387.33 778.09 1409.21 850.394 1415.22 933.995 C 1407.94 923.365 1401.3 910.202 1394.23 899.132 C 1376.18 870.894 1360.01 844.298 1345.06 814.219 C 1337.49 798.945 1317.73 750.908 1313.89 734.879 C 1338.16 778.379 1362.18 817.282 1387.54 859.929 C 1371.99 799.887 1355.2 752.21 1325.91 697.687 z" fill="rgb(43,41,42)" transform="translate(0,0)"></path>
<path d="M 1268.3 657.541 C 1273.46 661.465 1281.91 681.477 1285.06 688.215 C 1309.57 740.593 1314.94 790.385 1311.89 848.119 C 1271.76 796.978 1247.78 732.936 1215.74 675.648 C 1219.74 678.95 1222.61 683.391 1225.72 687.603 C 1245.89 715.097 1274.95 763.889 1292.9 794.119 C 1286.88 766.461 1279.99 743.282 1268.67 717.148 C 1264.18 706.777 1258.9 696.804 1254.62 686.571 C 1273.64 712.617 1280.5 725.486 1294.14 754.248 C 1290.75 739.828 1288.69 725.204 1285.05 710.562 C 1280.46 692.1 1274.11 675.563 1268.3 657.541 z" fill="rgb(43,41,42)" transform="translate(0,0)"></path>
<path d="M 1408.96 800.637 C 1413.32 802.441 1429.34 818.724 1433.31 822.862 C 1476.86 868.283 1491.6 943.192 1491.41 1004.13 C 1458.73 978.467 1445.02 943.663 1432.94 905.546 C 1426.25 883.335 1421.48 866.177 1416.52 843.587 C 1432.85 882.297 1450.88 920.264 1470.56 957.378 C 1464.62 898.657 1446.3 846.833 1408.96 800.637 z" fill="rgb(43,41,42)" transform="translate(0,0)"></path>
<path d="M 1488.47 881.708 C 1490.91 883.942 1496.01 890.769 1498.23 893.618 C 1521.25 923.148 1539.99 961.368 1552.27 996.709 C 1549.73 954.542 1545.43 932.438 1532.89 892.032 C 1544.96 913.127 1549.36 923.895 1556.93 946.5 C 1570.68 994.674 1568.45 1008.97 1561.07 1056.02 C 1557.98 1047.99 1554.39 1039.63 1550.97 1031.7 C 1535.42 995.58 1526.45 957.491 1509.09 922.008 C 1502.71 908.989 1494.53 895.737 1488.9 882.746 L 1488.47 881.708 z" fill="rgb(43,41,42)" transform="translate(0,0)"></path>
<path d="M 776.584 897.655 C 779.116 899.949 783.94 906.826 785.762 909.764 C 825.458 973.735 842.42 1051.9 855.605 1125.21 C 858.072 1138.93 865.741 1156.91 866.902 1170.14 C 836.052 1114.61 826.02 1044.21 807.218 983.925 C 802.645 969.261 799.051 957.471 793.401 943.038 C 787.85 928.859 780.729 912.038 776.584 897.655 z" fill="rgb(43,41,42)" transform="translate(0,0)"></path>
<path d="M 828.513 915.614 C 831.086 917.845 839.712 930.203 842.068 933.742 C 880.553 991.562 906.045 1060.05 925.525 1126.33 C 929.258 1139.04 934.448 1159.67 935.927 1172.22 C 930.676 1165.14 918.709 1129.63 913.905 1119.36 C 882.755 1052.75 858.345 982.508 828.513 915.614 z" fill="rgb(43,41,42)" transform="translate(0,0)"></path>
<path d="M 1195.48 773.509 C 1196.94 775.006 1198.01 777.095 1198.82 779.009 C 1219.37 827.536 1228.21 899.444 1209.88 949.047 C 1199.05 931.881 1190.04 889.821 1186.5 868.93 C 1183.07 844.633 1178 829.937 1173.46 807.129 C 1184.42 831.62 1195.12 865.421 1204.56 891.777 C 1208.31 852.071 1202.76 812.45 1195.48 773.509 z" fill="rgb(43,41,42)" transform="translate(0,0)"></path>
<path d="M 1140.97 743.883 C 1164.61 780.183 1174.7 850.673 1153.99 890.142 C 1145.46 877.109 1131.94 832.686 1127.36 816.999 C 1121.58 799.598 1116.75 781.898 1112.88 763.976 C 1124.04 788.736 1136.8 818.806 1149.26 842.635 C 1152.63 807.648 1147.59 777.73 1140.97 743.883 z" fill="rgb(43,41,42)" transform="translate(0,0)"></path>
<path d="M 1626.75 1929.43 C 1670.11 1925.89 1717.89 1935.79 1759.4 1947.05 C 1746.58 1947.35 1725.92 1945.45 1712.76 1944.71 C 1691.78 1943.45 1670.77 1942.89 1649.75 1943.03 C 1621.92 1942.99 1594.09 1943.61 1566.28 1944.86 C 1551.42 1945.5 1533.53 1947.17 1519.04 1946.73 C 1548.01 1938.49 1596.89 1931.6 1626.75 1929.43 z" fill="rgb(43,41,42)" transform="translate(0,0)"></path>
<path d="M 628.95 635.742 C 634.577 642.828 641.593 671.163 645.81 680.978 C 667.19 730.735 686.671 777.004 694.406 831.438 C 692.171 827.357 689.712 821.214 688.292 816.714 C 678.182 784.682 663.871 755.381 651.057 724.64 C 639.314 696.27 631.863 666.308 628.95 635.742 z" fill="rgb(43,41,42)" transform="translate(0,0)"></path>
<path d="M 1523.49 1234.57 C 1528.46 1239.08 1552.39 1276.56 1556.47 1284.45 C 1579.53 1328.93 1601.33 1367.6 1634.12 1406.14 C 1633.12 1405.76 1632.17 1405.26 1631.3 1404.64 C 1599.87 1382.72 1528.94 1272.15 1523.49 1234.57 z" fill="rgb(43,41,42)" transform="translate(0,0)"></path>
<path d="M 1229.91 1059.78 C 1233.25 1063.63 1246.2 1090.77 1248.82 1096.19 C 1267.63 1135.06 1288.16 1187.27 1313.19 1222.26 C 1311.87 1221.85 1309.6 1220.89 1308.69 1219.82 C 1275.39 1180.88 1235.08 1109.03 1229.91 1059.78 z" fill="rgb(43,41,42)" transform="translate(0,0)"></path>
<path d="M 1347.8 866.034 C 1383.36 917.411 1413.19 951.994 1416.42 1016.28 C 1392.86 963.027 1373.9 920.223 1346.67 868.177 L 1347.8 866.034 z" fill="rgb(43,41,42)" transform="translate(0,0)"></path>
<path d="M 767.077 1905.43 C 783.587 1904.8 797.322 1907.14 812.377 1913.61 C 793.563 1921.27 784.506 1921.31 764.326 1922.84 C 760.053 1922.92 755.778 1922.93 751.504 1922.87 C 744.083 1922.7 725.332 1922.46 720.09 1916.9 L 720.329 1914.83 C 728.861 1907.33 755.512 1905.99 767.077 1905.43 z" fill="rgb(43,41,42)" transform="translate(0,0)"></path>
<path d="M 1404.52 746.802 C 1411.11 749.242 1420.08 757.976 1425.29 762.799 C 1454.22 789.128 1478.08 820.53 1495.69 855.452 C 1499.62 863.1 1504.85 873.173 1507 881.258 C 1495.96 874.109 1456.74 807.257 1445.9 793.517 C 1433.02 777.193 1420.11 761.637 1404.52 746.802 z" fill="rgb(43,41,42)" transform="translate(0,0)"></path>
<path d="M 793.246 452.504 C 747.525 465.512 687.179 479.921 688.044 539.802 C 688.105 544.007 690.222 554.216 689.711 556.705 C 681.83 536.84 685.96 508.927 698.254 491.555 C 718.648 462.735 761.913 455.88 794.26 447.271 L 795.055 449.424 L 793.246 452.504 z" fill="url(#Gradient1)" transform="translate(0,0)"></path>
<path d="M 1338.71 1144.6 C 1341.61 1146.69 1345.21 1151.85 1346.67 1155.11 C 1361.36 1188.03 1379.6 1220.75 1394.45 1253.32 C 1391.36 1251.17 1384.81 1242 1382.39 1238.75 C 1364.75 1215.05 1340.63 1173.91 1338.71 1144.6 z" fill="rgb(43,41,42)" transform="translate(0,0)"></path>
<path d="M 794.26 447.271 C 810.137 441.686 822.353 437.22 836.942 428.728 C 883.475 401.645 905.961 350.081 904.297 297.488 C 904.125 292.04 902.014 276.417 903.25 271.876 C 912.486 301.504 904.772 349.209 890.146 376.385 C 867.554 418.361 835.678 436.52 793.246 452.504 L 795.055 449.424 L 794.26 447.271 z" fill="rgb(43,41,42)" transform="translate(0,0)"></path>
<path d="M 1146.2 1057.8 C 1148.13 1059.75 1151.9 1069.34 1153.1 1072.36 C 1164.6 1101.18 1175.29 1124.47 1190.63 1151.31 C 1187.06 1149.09 1183.02 1143.7 1180.29 1140.38 C 1162.45 1118.75 1149.15 1085.49 1146.2 1057.8 z" fill="rgb(43,41,42)" transform="translate(0,0)"></path>
<path d="M 1351.84 1915.4 C 1369.08 1914.36 1392.76 1916.28 1409.89 1918.33 C 1400.3 1919.31 1390.26 1920.18 1380.76 1921.62 C 1356.03 1923.91 1350.6 1926.99 1323.87 1923.43 C 1334.65 1917.21 1339.88 1916.51 1351.84 1915.4 z" fill="rgb(43,41,42)" transform="translate(0,0)"></path>
<path d="M 890.415 1230.65 C 891.45 1235.26 892.318 1239.07 893.002 1243.77 L 891.667 1244.98 L 892.692 1246.24 C 890.458 1243.49 889.222 1235.19 888.471 1231.34 L 890.415 1230.65 z" fill="rgb(75,74,76)" transform="translate(0,0)"></path>
<path d="M 1346.67 868.177 C 1344.52 864.573 1342.62 862.053 1341.83 857.935 C 1344.08 859.022 1346.2 863.46 1347.8 866.034 L 1346.67 868.177 z" fill="rgb(75,74,76)" transform="translate(0,0)"></path>
<metadata><recraft-signature>{"signed_by": "recraft", "signature_b64": "p1gMAaQ26hSDP4j5BpDM/7zKgEL6oatXV+A66MPKAXkOSSxbLLcDhXNP6kUWH4Pu44ImLob20EjQsiAiw/xHDw==", "signing_algo": "Ed25519", "generation_timestamp": 1771176469, "identifier": "8637f777-9b4b-4a26-9935-1fd1f72f37df"}</recraft-signature></metadata></svg>