<svg xmlns="http://www.w3.org/2000/svg" height="1024" preserveAspectRatio="none" style="display: block;" version="1.1" viewBox="0 0 2048 2048" width="1024">
<path d="M 0 0 L 2048 0 L 2048 2048 L 1757.93 2048 L 1719.33 2048 L 1679.3 2048 L 1658.47 2048 L 1657.83 2048 L 1642.18 2048 L 1587.54 2048 L 1559.53 2048 L 1555.73 2048 L 1520.32 2048 L 1464.56 2048 L 1449.42 2048 L 1391.09 2048 L 1328.96 2048 L 1251.29 2048 L 1228.97 2048 L 0 2048 L 0 0 z" fill="rgb(255,255,255)" transform="translate(0,0)"></path>
<path d="M 698.047 163.59 C 680.027 145.716 677.89 127.392 676.967 102.534 C 676.649 93.9663 677.877 73.2899 682.453 66.2357 L 684.219 65.591 C 688.115 68.4029 693.548 76.6427 696.57 80.9987 C 710.409 100.593 721.489 121.996 729.5 144.607 C 733.681 156.223 737.415 170.127 742.284 181.103 C 765.118 194.464 787.114 207.278 809.132 222.026 C 923.322 298.508 984.065 408.725 1056.88 520.449 C 1057.48 492.416 1064.71 425.481 1083.95 404.733 L 1085.96 404.32 C 1092.79 410.649 1102.72 460.548 1104.85 472.357 C 1111.51 509.371 1112.61 557.634 1101.11 593.641 C 1110.82 614.23 1121.85 634.634 1132.17 655.014 C 1148.33 687.109 1164.02 719.44 1179.23 751.997 C 1222.52 845.873 1254.61 928.882 1289.95 1025.31 C 1360.72 963.578 1433.23 1118.21 1456.74 1166 C 1482.31 1218.18 1505.87 1271.32 1527.36 1325.31 C 1535.59 1345.75 1546.84 1378.15 1555.6 1397.07 C 1568.15 1345.7 1583.3 1294.99 1600.98 1245.15 C 1606.94 1228.05 1614.52 1212.02 1620.54 1195.21 C 1641.87 1135.56 1655.77 1084.21 1658.2 1020.85 C 1658.96 1004.37 1658.62 987.864 1657.17 971.434 C 1656.07 959.021 1654.15 945.089 1653.98 932.696 C 1653.92 928.892 1654.8 928.366 1657.09 926.689 C 1662.95 927.278 1666.72 932.038 1670.4 936.488 C 1714.06 989.263 1717.43 1054.34 1711.29 1119.02 C 1699.02 1248.26 1633.45 1363.72 1612.48 1491.31 C 1607.4 1522.19 1603.82 1536.73 1617.45 1566.04 C 1633.68 1611.25 1646.31 1660.12 1659.27 1706.48 C 1665.03 1728.07 1668.31 1752.03 1675.14 1773.47 C 1679.52 1753.61 1682.9 1733.2 1688.67 1713.75 C 1695.99 1689.09 1705.52 1664.64 1714.83 1640.65 C 1726.24 1610.43 1738.15 1580.4 1750.55 1550.56 C 1774.94 1490.79 1797.42 1430.25 1817.93 1369.04 C 1837.57 1309.61 1855.32 1249.58 1871.18 1189.03 C 1887.67 1126.53 1901.92 1063.71 1925.69 1003.66 C 1932.61 986.174 1961.54 930.557 1979.56 924.854 C 1984.45 926.662 1983.16 933.846 1982.17 938.125 C 1979.1 951.376 1975.08 964.437 1971.78 977.66 C 1964.29 1007.52 1957.67 1037.58 1951.93 1067.83 C 1927.03 1205.98 1923.39 1349.4 1893.67 1486.93 C 1870.78 1592.85 1834.64 1698.62 1804.78 1802.9 C 1780.33 1888.29 1761.58 1958.16 1757.93 2048 L 1719.33 2048 L 1679.3 2048 L 1658.47 2048 L 1657.83 2048 L 1642.18 2048 L 1587.54 2048 L 1559.53 2048 L 1555.73 2048 L 1520.32 2048 L 1464.56 2048 L 1449.42 2048 C 1433.18 2011.88 1411.04 1975.14 1392.69 1939.92 C 1346.16 1850.65 1293.6 1764.71 1238.39 1680.59 C 1235.3 1675.89 1228.5 1666.49 1230.52 1660.81 C 1231.97 1659.95 1233.8 1658.56 1235.47 1659.76 C 1246.07 1667.35 1259.61 1677.32 1269.91 1684.73 C 1341.81 1735.47 1404.95 1797.6 1456.85 1868.66 C 1471.91 1889.55 1486.1 1910.51 1497.52 1933.64 L 1413.66 1622.41 L 1353.82 1394.54 C 1344.58 1359.52 1335.39 1320.04 1325.27 1285.73 C 1268.5 1269.44 1218.02 1213.35 1191.14 1162.51 C 1187.99 1156.56 1185.64 1151.88 1186.3 1145.11 C 1187.23 1143.55 1188.31 1141.17 1190.58 1141.43 C 1209.63 1143.65 1249.45 1168.58 1263.65 1179.13 C 1272.79 1186.03 1281.42 1193.57 1289.47 1201.71 C 1296.36 1208.69 1301.78 1215.27 1307.76 1222.99 C 1301.96 1206.91 1295.01 1188.86 1290.19 1172.65 L 1288.67 1171.62 C 1276.21 1163.09 1265.8 1152.55 1253.69 1143.53 C 1219.99 1118.44 1182.27 1108.13 1140.67 1115.04 C 1105.29 1120.91 1073.12 1147.3 1053.26 1176.18 C 1045.23 1188.01 1038.4 1200.59 1032.85 1213.76 C 1066.94 1229.67 1095.82 1245.49 1109.44 1283.03 C 1110.16 1285.04 1110.83 1287.07 1111.43 1289.12 C 1119.39 1316.12 1115.86 1341.54 1112.33 1368.77 C 1106.04 1417.25 1101.79 1468.04 1125.56 1512.84 C 1129.34 1519.97 1141.4 1529.21 1140.37 1536.49 C 1126.62 1548.03 1093.26 1511.7 1085.3 1502.35 C 1081.95 1520.8 1081.86 1542.97 1086.44 1561.49 C 1087.61 1566.26 1092.94 1579.1 1092.56 1584.62 C 1091.88 1585.33 1091.21 1586.03 1090.53 1586.74 C 1082.9 1589.49 1074.93 1586.44 1067.45 1584.29 C 1042.03 1576.97 1023.9 1560.62 1008.29 1539.98 C 1017.07 1558.23 1024.13 1575.47 1016.51 1596.21 C 1010.91 1611.5 1001.87 1615.28 987.639 1607.62 C 982.642 1599.93 979.843 1592.38 976.421 1583.89 C 973.903 1599.1 971.008 1618.74 956.971 1626.79 C 933.289 1640.38 924.395 1619.11 920.145 1602.18 C 908.037 1601.04 897.634 1600.81 889.224 1590.25 C 880.11 1578.8 878.853 1566.78 879.973 1553 C 871.2 1551.89 863.142 1549.64 857.758 1542.27 C 842.264 1521.04 857.856 1501.04 870.26 1486.04 C 839.518 1496.56 814.704 1500.49 784.365 1485.36 C 778.419 1482.39 772.528 1479.45 768.67 1473.92 C 767.92 1467.41 784.53 1460.29 789.748 1455.98 C 800.172 1447.35 810.155 1437.95 817.809 1426.75 C 801.895 1423.94 756.019 1407.38 756.885 1388.7 C 760.139 1385.97 770.35 1390.9 775.128 1391.28 C 826.221 1395.24 849.578 1358.22 861.562 1313.6 C 880.5 1243.1 916.008 1199.28 994.822 1204.13 C 998.618 1204.33 1002.4 1204.75 1006.15 1205.38 C 1027.52 1158.2 1068.02 1115.48 1116.57 1095.74 C 1160.59 1077.84 1231.98 1085.38 1268.86 1116.22 C 1265.78 1097.52 1254.23 1067.45 1247.94 1048.32 C 1218.63 957.939 1185.39 868.881 1148.3 781.406 C 1136.25 752.363 1124.74 722.738 1110.11 694.88 C 1106.78 688.526 1098.9 682.404 1093.25 678.007 C 1056.86 649.701 1008.65 624.65 961.17 631.901 C 920.15 638.165 890.167 666.922 866.041 698.683 C 864.047 701.308 863.343 706.012 864.776 709.012 C 872.807 708.86 889.087 707.619 895.986 708.769 C 936.387 715.509 964.967 741.301 982.191 777.405 C 993.471 801.048 1005.59 836.305 1036.75 835.236 C 1055.1 835.053 1058.23 826.695 1070.61 820.803 C 1063.4 837.103 1056.35 847.571 1038.57 854.481 C 1021.97 860.934 996.92 861.184 980.648 853.668 C 951.182 840.058 946.757 808.338 934.802 781.801 C 929.861 770.832 923.538 761.853 915.77 752.745 C 930.375 779.214 939.843 798.102 942.643 829.423 C 943.68 842.176 943.695 854.992 942.689 867.748 C 941.496 881.797 938.856 896.123 937.315 910.197 C 933.491 944.344 931.251 978.702 934.462 1012.99 C 936.606 1035.88 937.709 1072.42 968.643 1073.31 C 974.501 1073.48 977.689 1068.59 983.074 1068.45 C 983.882 1070.74 983.343 1072.51 982.063 1074.65 C 959.6 1112.24 912.439 1097.88 883.284 1082 C 891.015 1094.93 901.595 1110.19 916.965 1113.92 C 924.259 1115.69 928.922 1114.53 936.282 1113.52 C 911.751 1143.73 873.42 1132.06 848.24 1110.1 C 835.804 1099.25 826.826 1086.66 817.475 1073.24 C 813.663 1083.81 799.49 1125.42 791.409 1129.97 C 789.501 1131.05 786.876 1131.31 784.897 1130.31 C 775.535 1125.61 769.506 1105.58 766.939 1096.03 C 765.089 1089.14 763.182 1082.2 761.713 1075.22 C 759.238 1091.69 756.944 1106.77 756.518 1123.53 C 756.11 1139.6 767.335 1146.03 763.802 1161.47 C 761.314 1172.34 751.569 1181.38 740.013 1179.57 C 735.617 1178.9 731.701 1176.43 729.208 1172.74 C 715.446 1152.43 739.046 1137.75 738.955 1138.36 C 744.383 1101.81 747.872 1068.4 759.295 1032.79 C 751.969 1036.5 748.043 1038.3 740.343 1041.03 C 734.231 1061.72 726.997 1086.61 719.343 1106.62 C 727.212 1116.97 730.71 1125.3 729.012 1138.98 C 727.696 1149.6 720.084 1165.19 711.236 1171.46 C 706.282 1175.01 700.053 1176.27 694.109 1174.94 C 675.338 1170.83 675.187 1145.78 678.435 1130.81 C 680.808 1119.87 689.037 1114.79 697.816 1109.38 C 703.508 1091.87 711.214 1071.14 716.209 1053.87 C 701.309 1062.68 693.76 1073.86 683.176 1087.05 C 680.391 1090.52 677.596 1095.35 673.158 1095.64 C 664.735 1096.18 659.368 1107.84 655.569 1114.19 C 658.288 1130.06 656.387 1131.06 644.391 1142.37 C 646.09 1143.3 649.075 1142.71 650.962 1142.17 C 673.874 1135.53 667.969 1110.8 673.796 1098.42 L 675.133 1098.41 C 678.276 1104.44 676.19 1113 674.071 1119.57 C 667.561 1139.76 655.916 1153.48 632.853 1147.54 C 607.84 1141.11 605.657 1103.49 626.613 1091.77 C 635.32 1086.9 642.992 1092.29 650.217 1097.62 C 663.205 1082.89 671.515 1072.83 682.757 1056.61 C 658.329 1069.2 657.105 1062.74 663.385 1039.16 C 624.932 1047.23 588.316 1044.48 555.128 1022.07 C 548.026 1017.28 533.826 1010.01 537.01 1000.54 C 538.961 998.949 539.534 998.546 543.081 999.446 C 563.174 1004.55 594.46 999.748 612.63 988.076 L 612.16 987.431 C 589.406 995.879 557.707 993.75 535.194 983.843 C 512.308 973.773 478.017 929.857 492.082 904.809 C 501.581 902.265 516.49 958.933 551.035 927.985 C 593.755 889.714 616.355 838.589 646.553 791.134 C 657.985 773.414 670.556 756.455 684.186 740.364 C 651.943 736.409 619.742 703.862 612.846 672.654 C 610.628 680.098 604.309 707.163 600.403 711.173 L 599.656 710.602 C 598.738 702.504 603.579 690.58 605.363 682.161 C 603.367 685.02 595.058 698.358 593.359 699.034 L 593.565 694.57 C 589.344 695.05 575.728 704.65 572.134 707.864 C 573.365 711.944 574.594 716.717 576.446 720.482 C 579.456 722.681 582.569 725.051 585.697 727.049 C 609.933 718.324 605.854 708.772 619.387 691.714 C 616.845 705.35 610.304 723.622 598.381 731.237 C 579.118 743.539 566.895 728.628 561.693 711.774 C 554.261 714.619 545.15 719.322 537.847 717.393 C 531.202 712.653 531.815 703.678 531.371 696.08 C 523.178 702.001 515.236 707.435 507.9 714.429 C 470.675 697.408 475.863 676.006 502.258 651.153 C 476.476 656.516 451.362 654.524 425.914 648.314 C 419.491 646.747 408.187 645.633 406.686 638.333 C 410.647 626.717 439.424 604.642 450.003 595.978 C 435.868 594.655 424.06 592.517 411.533 585.383 C 406.484 582.507 393.606 576.817 394.004 570.168 C 400.468 566.719 423.405 572.26 437.764 559.112 C 452.697 545.696 462.896 528.415 473.384 511.358 C 502.118 464.627 532.867 404.295 588.79 386.73 C 614.875 378.537 632.965 379.842 653.487 398.712 L 654.711 397.613 C 667.221 386.285 675.233 372.463 686.124 360.374 C 716.014 327.198 757.668 301.831 803.694 304.284 C 828.677 305.616 850.299 315.147 872.485 325.955 C 878.514 328.892 883.899 332.497 890.02 335.235 C 880.581 323.431 867.084 311.23 855.751 300.671 C 787.313 236.91 695.858 182.567 601.753 170.939 C 542.351 163.599 482.114 175.38 431.056 206.294 C 419.27 213.43 408.071 221.878 396.903 230.033 C 416.052 251.606 437.889 294.249 434.382 324.009 C 428.017 378.024 398.457 431.177 379.069 481.793 C 367.346 512.398 351.557 540.893 368.036 573.552 C 370.982 579.391 376.499 587.041 371.324 592.604 C 360.971 594.948 327.389 559.418 320.315 550.284 C 318.568 563.623 309.755 612.501 299.1 617.689 C 297.454 617.168 257.926 582.542 254.812 578.822 C 272.866 585.51 284.622 591.56 296.956 606.615 C 302.065 587.697 313.133 558.656 311.567 540.126 C 311.221 536.027 305.489 520.356 304.062 512.631 C 301.142 516.451 295.804 523.041 293.964 527.162 C 286.151 544.654 283.788 562.445 267.41 574.623 C 253.598 584.893 254.66 574.312 244.095 573.654 C 240.955 573.458 224.825 581.167 221.352 583.014 C 215.341 585.728 202.175 596.151 197.205 597.201 C 193.302 592.018 191.631 587.261 189.055 581.448 C 174.837 549.372 163.068 541.845 178.349 506.01 C 157.983 523.073 151.029 527.976 123.171 524.739 C 114.929 523.781 96.2341 522.928 95.5319 512.65 C 100.317 505.357 107.397 498.982 113.036 492.272 C 119.541 484.532 127.148 473.971 132.066 465.229 C 123.584 464.378 86.3118 463.22 87.6116 451.404 C 92.9617 446.136 112.899 442.725 121.997 437.452 C 173.321 407.704 205.623 354.926 237.048 306.548 C 260.797 269.986 289.942 216.401 340.007 217.993 C 351.54 218.32 361.59 220.254 372.696 222.789 C 448.899 138.368 596.748 114.489 698.047 163.59 z" fill="rgb(36,35,35)" transform="translate(0,0)"></path>
<path d="M 1318.38 1023.2 C 1349.55 1028.26 1365.6 1044.47 1383.16 1070.5 C 1440.64 1155.69 1476.91 1254.23 1518.61 1347.52 C 1555.41 1429.84 1587.12 1509.37 1614.01 1595.72 C 1632.64 1656.29 1649.18 1717.49 1663.61 1779.2 C 1668.73 1801.38 1672.4 1825.64 1677.71 1847.08 C 1694.09 1913.28 1709.14 1980.49 1719.33 2048 L 1679.3 2048 C 1676.93 2025.66 1671.64 1996.7 1667.72 1974.49 C 1660.46 1931.61 1652.01 1888.94 1642.36 1846.54 C 1631.81 1798.5 1622.53 1750.85 1609.83 1703.18 C 1583 1602.52 1552.14 1503.64 1518.81 1404.82 C 1486.62 1310.6 1454.35 1215.27 1409.42 1126.2 C 1392.78 1093.2 1360.34 1037.12 1319.02 1033.22 C 1307.68 1032.16 1299.55 1048.96 1295.8 1050.37 C 1294.65 1048.56 1292.64 1046.14 1293.41 1043.87 C 1296.77 1034 1309.57 1026.43 1318.38 1023.2 z" fill="rgb(255,255,255)" transform="translate(0,0)"></path>
<path d="M 381.312 224.42 C 426.703 176.685 494.893 151.934 559.904 150.354 C 627.621 148.708 687.05 169.42 746.125 200.176 C 876.981 267.925 963.767 384.276 1037.36 508.069 C 1133.04 669.013 1205.47 840.189 1269.4 1015.9 C 1296.92 1091.54 1323.85 1164.19 1347.33 1241.34 C 1373.13 1329.16 1397.05 1417.52 1419.08 1506.36 L 1476.61 1731.12 L 1531.64 1941.2 C 1540.65 1975.24 1552.11 2013.95 1559.53 2048 L 1555.73 2048 L 1457.28 1690.84 L 1397.3 1461.51 C 1385.1 1413.38 1372.17 1365.44 1358.5 1317.71 C 1339.74 1255.53 1319.45 1193.82 1297.66 1132.63 C 1290.32 1111.95 1281.2 1091.39 1274.17 1070.63 C 1251.05 1002.26 1227.4 933.843 1201.27 866.556 C 1152.57 739.022 1092.83 615.984 1022.73 498.844 C 953.89 385.722 870.776 277.891 752.834 212.323 C 673.071 167.98 578.652 143.294 488.91 169.612 C 456.645 178.983 411.251 198.449 391.927 227.253 L 381.312 224.42 z" fill="rgb(255,255,255)" transform="translate(0,0)"></path>
<path d="M 1587.54 2048 C 1569.72 1980.17 1550.52 1913.62 1540.96 1843.81 C 1534.2 1794.43 1533.3 1737.72 1534.14 1687.68 C 1534.76 1650.53 1540.13 1611.37 1542.55 1573.72 C 1546.83 1592.2 1551.77 1612.57 1558.13 1630.36 C 1567.9 1657.68 1575.37 1675.65 1575.59 1705.19 C 1575.78 1730.62 1579.51 1758.19 1581.69 1783.6 C 1589.64 1876.36 1608.43 1961 1642.18 2048 L 1587.54 2048 z" fill="rgb(255,255,255)" transform="translate(0,0)"></path>
<path d="M 1259.42 1695.45 C 1342.26 1772.45 1414.21 1874.85 1474.06 1971.01 C 1489.41 1995.67 1506.4 2022.56 1520.32 2048 L 1464.56 2048 C 1450.22 2022.72 1437.65 1994.83 1423.68 1969.02 C 1373.82 1876.93 1319.71 1781.25 1259.42 1695.45 z" fill="rgb(255,255,255)" transform="translate(0,0)"></path>
<path d="M 1657.83 2048 C 1652.57 2033.29 1647.69 2015.82 1643.22 2000.71 C 1625.08 1939.93 1611.23 1877.94 1601.79 1815.21 C 1596.55 1781.2 1592.99 1746.33 1587.95 1712.07 C 1599.27 1741.25 1606.78 1780.91 1614.22 1811.84 C 1633.1 1890.28 1645.32 1968.58 1658.47 2048 L 1657.83 2048 z" fill="rgb(255,255,255)" transform="translate(0,0)"></path>
<path d="M 784.695 327.372 C 836.458 323.274 895.943 355.775 933.576 390.063 C 946.995 402.289 965.783 431.518 976.41 447.185 C 1003.11 486.551 1025.66 529.327 1048.54 571.001 C 1060.46 593.019 1069.36 613.207 1083.04 634.689 C 1059.59 621.847 1048.09 612.038 1019.59 605.276 C 974.508 594.582 938.989 596.746 899.012 620.918 C 871.833 639.193 849.11 663.345 832.523 691.586 C 828.931 686.663 824.617 680.716 819.81 676.923 C 799.103 660.584 765.836 661.113 741.068 663.43 C 725.115 664.922 698.312 674.948 683.938 665.728 C 682.263 662.68 683.506 660.302 684.273 656.516 C 697.374 591.829 748.76 493.502 705.118 433.267 C 699.959 426.146 689.635 420.092 682.963 415.522 C 683.374 408.614 684.258 407.273 681.928 400.5 C 715.963 367.274 729.757 334.624 784.695 327.372 z" fill="rgb(255,255,255)" transform="translate(0,0)"></path>
<path d="M 1317.62 1042.99 C 1328.73 1043.02 1338.05 1048.68 1346.38 1055.54 C 1417.04 1113.78 1486.86 1350.08 1514.3 1442.58 C 1518.77 1457.63 1536.69 1510.64 1537.15 1522.99 C 1537.56 1533.91 1532.8 1547.3 1530.73 1558.13 C 1528.38 1571.11 1526.37 1584.16 1524.7 1597.24 C 1519.3 1639.76 1514.48 1687.43 1513.9 1729.95 C 1513.55 1755.19 1516.66 1785.52 1519.09 1810.75 C 1519.11 1813.13 1518.92 1814.73 1518.7 1817.09 L 1517.8 1816.77 C 1514.99 1809.53 1514.12 1801.46 1512.16 1793.88 L 1496.54 1735.3 L 1447 1555.05 C 1415.03 1436.17 1383.57 1317.05 1347.75 1199.25 C 1333.97 1153.94 1316.98 1109.63 1302.11 1064.73 C 1305.92 1058.67 1313.01 1048.16 1317.62 1042.99 z" fill="rgb(255,255,255)" transform="translate(0,0)"></path>
<path d="M 1949.51 985.882 L 1951.96 988.492 C 1946.87 1001.63 1940.23 1031.83 1937.45 1045.86 C 1923.17 1117.93 1917.23 1193.37 1908.83 1266.62 C 1901.15 1339.32 1889.62 1411.56 1874.28 1483.04 C 1860.75 1543.1 1843.69 1602.31 1823.21 1660.37 C 1786.68 1767.28 1742.78 1880.02 1732.08 1992.93 C 1727.32 1973.34 1700.4 1866.37 1701.36 1854.95 C 1702.2 1845.07 1705.06 1834.82 1707.22 1825.16 C 1713.03 1799.28 1720.16 1773.68 1726.95 1748.05 C 1757.93 1631.07 1796.16 1516.38 1829.54 1400.14 C 1845.84 1344.31 1860.86 1288.13 1874.61 1231.62 C 1893.29 1154.44 1914.22 1057.53 1949.51 985.882 z" fill="rgb(255,255,255)" transform="translate(0,0)"></path>
<path d="M 670.017 1049.18 C 677.718 1023.29 678.633 1010.05 678.673 983.246 C 678.78 910.721 716.548 794.366 768.95 742.513 C 787.919 723.741 806.105 713.867 832.979 714.061 C 815.725 769.137 805.577 819.038 784.315 873.891 L 785.905 875.026 C 803.491 831.323 817.568 787.226 831.935 742.408 C 834.31 734.999 836.884 724.247 840.311 717.487 L 842.191 717.871 C 846.794 722.399 851.689 731.398 853.755 737.631 C 874.964 801.643 850.857 880.231 824.908 939.128 C 808.776 975.746 777.364 1016.86 738.89 1027.94 C 714.036 1035.1 694.702 1039.85 670.017 1049.18 z" fill="rgb(255,255,255)" transform="translate(0,0)"></path>
<path d="M 784.315 873.891 L 785.905 875.026 C 782.474 886.343 757.376 944.323 750.711 952.758 C 750.551 954.212 781.939 879.325 784.315 873.891 z" fill="rgb(123,123,126)" transform="translate(0,0)"></path>
<path d="M 365.96 233.18 C 379.587 232.32 401.503 236.427 405.072 251.796 C 406.116 256.29 405.319 266.75 402.874 270.662 L 394.792 266.255 C 394.902 279.542 395.523 296.338 392.289 309.246 C 377.872 366.784 351.114 420.104 324.162 472.605 C 319.624 481.444 315.481 490.513 309.978 498.803 C 300.512 501.43 286.802 522.422 276.298 529.767 C 263.931 538.416 258.534 541.963 244.041 547.535 C 259.622 524.118 258.998 519.864 257.341 492.069 C 256.965 485.773 257.981 472.704 257.657 464.817 L 256.427 463.709 C 251.119 464.622 235.101 474.113 229.201 477.069 C 206.272 488.558 190.949 494.863 165.77 498.144 C 170.449 482.729 175.761 468.096 181.627 453.136 C 182.562 450.751 182.198 450.318 181.096 448.397 C 175.974 447.838 162.988 452.211 156.177 452.998 C 144.886 454.302 137.993 454.4 126.565 454.102 C 122.596 453.72 118.572 453.105 114.614 452.563 C 161.032 433.863 200.09 384.264 229.855 345.029 C 258.351 307.467 282.226 253.041 329.033 236.618 C 299.021 265.523 262.131 321.734 246.865 360.189 C 273.095 324.813 323.02 243.273 365.96 233.18 z" fill="rgb(255,255,255)" transform="translate(0,0)"></path>
<path d="M 373.466 239.712 L 374.807 239.826 L 376.112 241.461 C 376.716 249.102 365.556 260.644 360.48 266.67 C 328.648 304.461 309.52 348.511 283.539 390.538 L 282.674 391.589 L 282.398 390.662 C 301.441 345.69 333.918 267.225 373.466 239.712 z" fill="rgb(36,35,35)" transform="translate(0,0)"></path>
<path d="M 422.45 635.233 C 436.167 622.128 449.565 609.412 462.367 595.363 C 466.869 590.422 466.2 592.296 467.855 585.099 C 468.188 583.649 479.065 574.741 480.425 572.943 C 497.946 554.576 509.084 531.57 522.046 509.794 C 537.517 483.118 556.162 457.182 578.803 436.174 C 586.653 428.89 631.837 400.798 640.004 403.824 C 639.069 405.788 631.709 409.154 629.197 411.257 C 612.043 425.623 601.757 443.378 591.835 463.133 C 568.193 510.203 544.597 559.442 533.949 611.343 C 533.914 611.726 533.879 612.108 533.843 612.491 C 544.216 583.313 620.105 389.281 654.507 411.055 C 656.674 414.194 656.283 416.599 656.386 420.464 L 657.757 418.595 C 658.855 421.019 658.631 420.429 659.191 422.999 L 660.965 424.36 C 660.789 422.592 660.695 420.941 660.586 419.169 L 661.906 417.818 C 666.606 420.007 671.017 432.156 672.241 437.228 C 686.601 497.22 664.479 557.795 641.238 612.515 C 621.903 658.037 591.387 694.24 542.589 708.164 C 538.617 689.922 535.505 664.282 535.785 645.904 C 535.933 636.169 537.726 623.427 538.427 613.104 C 530.883 622.211 532.376 628.902 519.745 636.01 C 491.607 651.844 451.949 643.009 422.45 635.233 z" fill="rgb(255,255,255)" transform="translate(0,0)"></path>
<path d="M 656.386 420.464 L 657.757 418.595 C 658.855 421.019 658.631 420.429 659.191 422.999 L 660.965 424.36 C 656.524 457.831 644.417 504.628 633.565 536.748 L 631.919 534.973 C 637.867 507.335 645.954 479.819 650.768 451.69 C 652.563 441.195 655.312 431.232 656.386 420.464 z" fill="rgb(36,35,35)" transform="translate(0,0)"></path>
<path d="M 633.565 536.748 C 632.105 542.942 626.539 559.449 623.544 564.965 L 622.918 565.089 L 631.919 534.973 L 633.565 536.748 z" fill="rgb(67,65,67)" transform="translate(0,0)"></path>
<path d="M 1007.08 1222.98 C 1009.41 1224.24 1009.23 1224.31 1010.7 1226.57 C 1011.21 1231.71 1002.62 1260.17 1000.77 1267.23 C 983.123 1334.51 956.706 1401.09 941.16 1468.85 C 948.053 1456.31 957.558 1424.68 963.032 1409.32 C 983.827 1350.96 1005.14 1292.68 1019.04 1232.23 C 1042.45 1271.83 1046.1 1315.74 1038.32 1360.31 C 1020.83 1434.58 990.269 1480.27 935.95 1533.23 C 927.975 1541.01 920.791 1549.18 912.284 1556.55 C 911.278 1554.89 910.386 1553.16 909.613 1551.38 C 880.213 1484.98 899.9 1391.79 924.421 1326.13 C 943.758 1274.35 955.599 1246.57 1007.08 1222.98 z" fill="rgb(255,255,255)" transform="translate(0,0)"></path>
<path d="M 874.263 734.67 C 909.362 748.966 922.627 788.609 925.513 823.593 C 929.495 871.858 914.904 919.721 914.863 968.063 C 914.838 998.644 913.345 1031.47 925.782 1060.08 C 930.924 1071.94 937.638 1076.85 948.422 1082.86 C 878.154 1081 846.913 1038.5 817.1 980.639 C 842.404 942.72 857.684 899.512 868.511 855.534 C 877.887 804.819 876.498 786.124 861.908 738.134 C 867.198 746.176 872.141 754.126 874.97 763.586 C 888.572 809.073 875.576 860.166 876.04 907.291 C 876.376 941.466 878.579 973.328 887.33 1006.46 C 890.911 1020.02 895.277 1037.55 902.582 1048.95 C 902.515 1048.21 897.374 1029.21 896.727 1027.04 C 879.431 968.322 884.713 911.585 892.048 851.927 C 897.435 808.112 899.797 772.165 874.263 734.67 z" fill="rgb(255,255,255)" transform="translate(0,0)"></path>
<path d="M 1680.75 979.51 C 1687.5 987.484 1695.73 1023.1 1697.04 1034.19 C 1715.19 1187.64 1628.23 1328.24 1600.55 1475.28 C 1599.65 1480.04 1597.46 1496.59 1595.35 1499.42 L 1593.95 1497.97 C 1590.8 1489.9 1571.99 1436.19 1572.66 1431.61 C 1595.93 1271.29 1688.04 1146.97 1680.75 979.51 z" fill="rgb(255,255,255)" transform="translate(0,0)"></path>
<path d="M 1042.49 1234.61 C 1097.87 1282.78 1099.03 1321.7 1090.51 1389.94 C 1083.51 1445.98 1063.55 1522.57 1081.01 1575.96 C 1031.9 1565.65 1002.56 1526.88 992.154 1479.36 C 1017.32 1437.2 1027.18 1420.83 1043.59 1373.28 C 1042.56 1390.17 1039.34 1408.46 1037.93 1425.54 C 1036.28 1445.53 1036.27 1463.28 1037.13 1483.32 L 1037.73 1483.85 L 1038.85 1483.59 L 1039.9 1476.88 C 1040.52 1453.69 1042.18 1430.55 1044.88 1407.52 C 1052.08 1350.42 1067.47 1290.21 1042.49 1234.61 z" fill="rgb(255,255,255)" transform="translate(0,0)"></path>
<path d="M 1039.9 1476.88 C 1040.01 1484.2 1040.41 1491.51 1039.09 1498.71 C 1037.56 1495.52 1037.06 1486.99 1037.13 1483.32 L 1037.73 1483.85 L 1038.85 1483.59 L 1039.9 1476.88 z" fill="rgb(67,65,67)" transform="translate(0,0)"></path>
<path d="M 969.862 1222.18 L 972.468 1222.17 C 972.192 1222.94 960.301 1232.42 957.68 1235.01 C 945.729 1246.91 935.805 1260.69 928.301 1275.79 C 906.452 1319.75 889.846 1410.09 889.758 1459.19 C 861.353 1487.15 832.433 1490.95 794.672 1479.34 C 790.775 1477.96 786.006 1475.57 782.174 1473.78 C 880.251 1411.98 864.069 1249.8 969.862 1222.18 z" fill="rgb(255,255,255)" transform="translate(0,0)"></path>
<path d="M 710.784 801.974 L 711.026 802.266 C 711.408 804.874 704.649 820.949 703.133 824.455 C 687.06 861.625 678.334 899.357 669.136 938.67 C 662.24 943.772 656.038 949.831 648.76 954.664 C 607.821 981.846 569.992 987.609 529.014 960.223 C 521.155 954.152 518.05 950.718 512.262 942.943 C 555.99 962.675 607.546 920.792 634.917 890.43 C 661.008 861.488 686.709 832.639 710.784 801.974 z" fill="rgb(255,255,255)" transform="translate(0,0)"></path>
<path d="M 410.501 270.749 C 413.913 274.043 415.817 285.138 416.985 290.2 C 427.189 334.382 404.859 374.926 388.889 414.774 C 373.228 453.851 354.132 499.834 351.649 542.346 C 351.036 552.849 355.179 566.182 358.796 575.753 C 352.631 571.028 346.623 565.763 340.699 560.711 C 322.617 544.95 314.892 527.81 309.769 504.882 C 348.97 428.395 395.099 357.528 410.501 270.749 z" fill="rgb(255,255,255)" transform="translate(0,0)"></path>
<path d="M 675.307 422.548 C 689.928 428.625 699.553 449.082 701.874 464.112 C 709.696 514.748 694.797 567.529 683.198 616.568 C 679.574 631.89 676.069 647.433 671.952 662.604 C 666.4 659.639 659.915 653.903 653.657 655.882 C 648.162 666.428 673.468 690.476 674.484 698.115 C 675.175 703.312 681.747 729.016 681.688 731.752 C 678.698 731.862 676.43 730.282 673.418 728.905 C 644.256 714.875 619.869 690.192 619.877 656.073 C 645.801 629.239 676.5 560.824 684.729 523.958 C 692.569 488.831 694.548 454.024 675.307 422.548 z" fill="rgb(255,255,255)" transform="translate(0,0)"></path>
<path d="M 789.656 708.412 C 791.896 708.177 791.767 708.298 794.053 708.56 C 792.395 710.728 780.796 716.231 777.215 718.561 C 750.439 735.868 734.716 762.329 715.496 786.126 C 677.235 833.499 616.073 922.546 557.078 940.861 L 553.255 941.547 L 553.103 940.641 C 643.778 880.508 659.997 720.678 789.656 708.412 z" fill="rgb(255,255,255)" transform="translate(0,0)"></path>
<path d="M 808.414 990.672 C 810.864 993.443 817.972 1009.69 820.505 1014.64 C 833.271 1039.15 851.505 1060.39 873.794 1076.72 C 879.695 1097.14 887.361 1106.05 904.322 1118.11 C 862.525 1115.47 837.798 1082.9 816.452 1050.16 C 808.458 1036.62 802.539 1022.52 794.382 1009.13 C 797.227 1025.15 805.644 1045.99 811.471 1061.85 C 803.68 1079.9 795.132 1092.98 789.906 1112.37 C 780.821 1099.11 768.392 1073.92 769.113 1057.66 C 769.522 1048.45 772.622 1033.09 774.388 1023.38 C 791.126 1013.21 795.883 1005.03 808.414 990.672 z" fill="rgb(255,255,255)" transform="translate(0,0)"></path>
<path d="M 247.674 475.902 C 250.447 480.093 249.591 513.851 247.846 519.97 C 244.698 531.007 236.306 540.835 233.588 553.005 C 235.215 558.898 236.269 560.772 238.998 566.044 C 224.02 571.763 215.143 574.441 201.819 583.444 L 198.523 572.883 C 194.812 564.7 187.744 556.077 183.525 547.572 C 176.409 533.226 182.286 518.353 187.319 504.025 C 213.418 494.851 223.857 489.875 247.674 475.902 z" fill="rgb(255,255,255)" transform="translate(0,0)"></path>
<path d="M 877.005 715.441 C 884.467 715.02 890.333 715.271 897.64 716.643 C 909.583 718.923 920.902 723.721 930.845 730.718 C 968.518 756.865 969.299 797.832 999.802 829.222 C 1010.85 840.593 1021.92 842.166 1036.79 844.882 C 1031.62 846.163 1026.45 847.049 1021.21 848.019 C 939.497 852.033 961.599 755.197 894.002 731.609 C 887.923 729.488 864.504 721.82 862.926 719.421 L 864.213 717.475 C 868.254 714.995 872.103 715.53 877.005 715.441 z" fill="rgb(255,255,255)" transform="translate(0,0)"></path>
<path d="M 665.62 956.828 C 666.032 959.212 665.148 977.663 665.099 981.538 C 664.919 995.818 665.117 1009.89 665.303 1024.17 C 638.22 1037.65 601.098 1030.64 574.422 1019.45 C 569.067 1016.79 562.726 1013.05 557.408 1010.1 C 584.113 1010.54 608.966 1006.15 624.764 982.154 C 640.216 976.695 653.501 967.682 665.62 956.828 z" fill="rgb(255,255,255)" transform="translate(0,0)"></path>
<path d="M 599.182 403.102 L 602.682 403.091 C 602.361 404.818 596.636 407.051 594.285 408.36 C 581.035 415.739 569.437 426.437 559.638 437.894 C 549.095 450.402 539.728 463.855 531.657 478.084 C 518.472 501.091 489.557 567.096 469.275 580.391 C 458.24 587.625 444.69 584.749 432.686 582.263 L 420.897 578.75 C 458.218 565 471.815 546.433 493.242 512.857 C 515.936 477.296 538.175 437.547 574.057 413.593 C 581.271 408.777 591.041 405.729 599.182 403.102 z" fill="rgb(255,255,255)" transform="translate(0,0)"></path>
<path d="M 1193.84 1150.56 C 1195.91 1150.99 1196.53 1151.31 1198.33 1152.3 C 1230.65 1170.14 1262.9 1191.24 1287.31 1219.27 C 1293.77 1226.68 1301 1236.84 1306.96 1244.84 C 1311.86 1251.41 1321 1262.67 1323.19 1269.87 C 1287.25 1262.8 1244.38 1214.44 1221.55 1187.36 C 1212.98 1177.19 1199.79 1162.14 1193.84 1150.56 z" fill="rgb(255,255,255)" transform="translate(0,0)"></path>
<path d="M 886.628 1479.75 L 887.516 1480.65 C 888.69 1484.92 888.211 1492.65 888.158 1497.36 C 880.251 1503.51 873.361 1510.41 870.471 1520.37 C 868.362 1527.64 872.281 1535.98 880.266 1536.55 C 885.287 1529.64 865.832 1526.99 887.719 1505.13 C 889.108 1510.49 890.357 1517.06 891.552 1522.56 C 889.565 1525.55 888.434 1526.84 887.478 1530.35 L 888.44 1530.92 L 892.214 1527.04 C 899.908 1539.32 899.552 1581.64 925.32 1555.21 C 929.829 1550.59 934.374 1546.01 938.978 1541.48 C 941.946 1545.53 943.497 1548.66 945.844 1553.05 C 951.797 1583.89 914.523 1608.94 893.021 1581.61 C 882.617 1568.38 895.469 1542.81 891.104 1536.02 C 886.276 1536.73 881.661 1544.87 877.167 1544.68 C 862.933 1544.1 855.234 1524.84 861.021 1512.28 C 865.204 1503.21 878.665 1487.84 886.628 1479.75 z" fill="rgb(255,255,255)" transform="translate(0,0)"></path>
<path d="M 930.117 1555.56 L 931.52 1558 C 931.556 1566.32 925.787 1577.17 920.687 1583.47 L 918.95 1581.85 C 918.651 1575.43 926.271 1560.78 930.117 1555.56 z" fill="rgb(36,35,35)" transform="translate(0,0)"></path>
<path d="M 901.737 1565.39 C 908.905 1568.22 909.207 1583.68 908.736 1590.52 C 903.628 1581.28 899.586 1575.93 901.737 1565.39 z" fill="rgb(36,35,35)" transform="translate(0,0)"></path>
<path d="M 1081.76 430.948 C 1082.55 432.293 1082.3 431.588 1082.56 433.045 C 1092.36 489.308 1105.03 521.782 1092.95 580.12 L 1089.8 575.523 C 1081.76 561.925 1072.79 546.398 1066.23 532.114 C 1067.49 523.816 1066.98 509.822 1068.04 500.299 C 1070.58 477.491 1075.07 452.882 1081.76 430.948 z" fill="rgb(255,255,255)" transform="translate(0,0)"></path>
<path d="M 1150.65 1095.37 C 1155.42 1094.54 1164.06 1094.49 1169.15 1094.56 C 1207.56 1095.08 1250.36 1107.91 1277.76 1135.92 C 1279.38 1137.57 1282.22 1144.46 1283.23 1146.82 C 1275.93 1142.82 1267.95 1136.81 1260.78 1132.22 C 1209.46 1099.34 1157.48 1090.53 1102.41 1119.89 C 1079.57 1133.87 1056.16 1154.53 1041.88 1177.58 C 1035.61 1187.69 1030.67 1200.01 1024.75 1210.65 C 1021.31 1211.91 1022.92 1211.95 1019.78 1211.09 C 1013.37 1202.53 1035.53 1170.13 1041.09 1163.12 C 1068.85 1128.1 1105.46 1101.15 1150.65 1095.37 z" fill="rgb(255,255,255)" transform="translate(0,0)"></path>
<path d="M 662.543 666.65 C 669.309 669.384 678.691 676.662 685.51 678.271 C 705.307 682.945 726.859 674.832 746.474 672.17 C 758.201 670.581 770.09 670.619 781.806 672.28 C 794.314 674.109 813.911 680.191 821.705 690.751 C 822.321 694.488 822.611 692.759 820.749 696.108 C 817.676 698.217 817.53 698.66 813.776 699.145 C 807.965 696.204 801.092 697.096 797.433 695.323 C 772.693 683.334 747.018 680.426 722.076 693.823 C 715.957 697.11 709.5 701.825 702.869 705.545 C 684.229 696.086 674.736 683.225 662.543 666.65 z" fill="rgb(255,255,255)" transform="translate(0,0)"></path>
<path d="M 169.307 461.497 C 169.818 461.625 170.329 461.753 170.84 461.881 C 169.738 472.545 157.45 490.434 156.856 502.068 C 156.588 507.301 169.081 505.787 172.349 505.508 C 155.677 515.622 153.553 516.697 134.247 515.27 C 125.764 514.76 118.291 513.916 109.84 512.895 C 122.89 498.327 133.24 482.879 140.518 464.636 L 169.307 461.497 z" fill="rgb(255,255,255)" transform="translate(0,0)"></path>
<path d="M 782.825 313.356 C 827.306 307.068 879.753 332.703 912.2 361.635 C 902.471 356.901 892.303 350.069 882.568 344.938 C 842.994 324.08 811.698 312.403 767.487 324.067 C 735.739 334.625 717.835 348.144 694.912 373.429 C 688.563 380.432 683.984 390.59 675.695 394.91 C 671.882 394.958 673.539 395.532 670.57 393.083 C 671.258 390.67 671.99 389.948 673.464 387.993 C 701.429 350.894 735.506 320.39 782.825 313.356 z" fill="rgb(255,255,255)" transform="translate(0,0)"></path>
<path d="M 986.296 1493.71 C 993.461 1518.97 1000.86 1539.57 1001.1 1567.35 C 1001.16 1574.24 994.838 1589.83 996.219 1596.34 L 998.143 1596.61 C 1009.19 1587.25 1006.7 1559.22 1005.39 1546.1 L 1010.23 1555.56 C 1011.67 1559.69 1012.85 1564.07 1013.16 1568.44 C 1013.81 1577.68 1011.72 1605.19 999.274 1604.26 C 985.969 1596.49 984.242 1563.18 982.304 1548.55 C 979.877 1530.22 979.204 1511.06 986.296 1493.71 z" fill="rgb(255,255,255)" transform="translate(0,0)"></path>
<path d="M 962.567 1519.87 L 963.546 1521.11 C 967.962 1547.1 972.709 1573.82 965.57 1599.84 C 962.434 1611.27 954.859 1627.08 940.052 1622.31 C 933.426 1620.17 930.254 1610.07 927.781 1604.11 C 931.108 1600.14 934.562 1597.49 938.505 1594.17 C 944.256 1588.44 947.811 1581.19 951.539 1574.08 C 949.377 1587.14 946.631 1595.9 942.236 1608.28 C 941.818 1609.46 942.759 1610.79 943.708 1611.57 C 962.239 1601.05 957.781 1545.12 955.016 1527.55 C 957.415 1524.93 960.05 1522.39 962.567 1519.87 z" fill="rgb(255,255,255)" transform="translate(0,0)"></path>
<path d="M 891.262 645.381 C 923.714 620.07 956.669 607.545 999.009 612.44 C 1032.05 616.259 1070.3 630.71 1093.51 656.07 C 1095.66 658.411 1099.21 666.074 1100.88 669.312 C 1044.61 622.256 956.059 594.626 893.318 646.383 L 891.262 645.381 z" fill="rgb(255,255,255)" transform="translate(0,0)"></path>
<path d="M 521.402 650.083 L 528.745 641.143 C 527.053 654.023 527.239 666.083 527.4 679.021 C 527.475 685.006 523.467 691.75 518.631 695.076 L 517.84 694.374 C 518.822 687.125 523.851 684.474 520.727 677.248 C 519.66 674.781 517.745 670.282 515.438 668.989 C 515.771 678.54 520.757 692.672 513.182 700.049 C 506.913 706.154 497.609 698.178 494.382 692.541 C 486.61 678.965 489.564 668.066 501.867 659.18 C 509.025 654.082 508.916 650.51 518.82 646.337 C 520.951 647.458 520.015 646.998 521.402 650.083 z" fill="rgb(255,255,255)" transform="translate(0,0)"></path>
<path d="M 518.82 646.337 C 520.951 647.458 520.015 646.998 521.402 650.083 C 515.028 656.056 508.164 662.197 502.436 668.741 C 504.998 672.784 507.221 676.145 509.356 680.459 L 508.616 681.521 C 499.067 678.685 497.989 668.586 504.83 661.68 L 501.867 659.18 C 509.025 654.082 508.916 650.51 518.82 646.337 z" fill="rgb(36,35,35)" transform="translate(0,0)"></path>
<path d="M 501.867 659.18 C 509.025 654.082 508.916 650.51 518.82 646.337 C 516.227 650.602 509.284 659.605 504.83 661.68 L 501.867 659.18 z" fill="rgb(225,225,227)" transform="translate(0,0)"></path>
<path d="M 716.99 1110.6 C 727.292 1126.12 721.721 1145.47 712.66 1160.43 C 703.874 1174.93 684.284 1166.77 683.186 1151.13 C 682.358 1139.33 685.206 1127.95 692.612 1118.5 C 694.253 1116.2 694.298 1116 696.427 1114.2 L 696.113 1114.76 L 698.131 1115.47 C 698.288 1122.04 693.058 1130.18 698.543 1132.75 C 702.164 1131.2 705.72 1125.25 709.223 1121.67 L 710.51 1121.99 C 713.542 1131.7 705.504 1141.71 706.049 1150.54 C 721.845 1143.09 712.755 1118.62 716.99 1110.6 z" fill="rgb(255,255,255)" transform="translate(0,0)"></path>
<path d="M 687.218 1133.4 L 689.129 1134.35 C 692.873 1141.84 699.688 1147.51 700.321 1151.35 C 690.183 1151.12 685.34 1142.83 687.218 1133.4 z" fill="rgb(67,65,67)" transform="translate(0,0)"></path>
<path d="M 633.073 1093.99 C 636.583 1094.02 640.696 1093.88 643.68 1095.55 L 639.615 1098.41 C 634.911 1109.72 670.724 1107.67 642.966 1136.69 C 618.516 1150.74 610.911 1108.49 633.073 1093.99 z" fill="rgb(255,255,255)" transform="translate(0,0)"></path>
<path d="M 635.058 1105.6 L 636.359 1107.14 C 633.547 1119.39 636.736 1119.19 645.148 1126.77 C 630.335 1127.38 629.52 1116.52 635.058 1105.6 z" fill="rgb(36,35,35)" transform="translate(0,0)"></path>
<path d="M 687.805 90.7332 C 699.965 107.172 722.13 153.342 726.091 172.57 C 713.293 166.665 696.555 146.986 692.042 133.366 C 688.056 121.335 686.125 103.206 687.805 90.7332 z" fill="rgb(255,255,255)" transform="translate(0,0)"></path>
<path d="M 838.93 1384.35 L 839.483 1384.84 C 835.264 1396.76 829.475 1406.66 823.236 1417.54 C 809.367 1416.51 805.042 1414.85 792.422 1409.09 C 787.844 1406.78 782.916 1403.84 778.409 1401.29 C 803.915 1401.74 816.469 1396.04 838.93 1384.35 z" fill="rgb(255,255,255)" transform="translate(0,0)"></path>
<path d="M 1095.29 1432.06 L 1097.57 1432.76 C 1092.25 1459.28 1107.41 1497.56 1118.31 1521.15 C 1103.95 1509.51 1097.01 1501.91 1086.54 1486.73 C 1089.28 1471.36 1093.87 1447.07 1095.29 1432.06 z" fill="rgb(255,255,255)" transform="translate(0,0)"></path>
<path d="M 751.133 1104.67 C 752.966 1111.65 747.743 1127.37 749.266 1132.57 C 752.481 1143.56 759.59 1144.97 756.474 1159.62 C 755.557 1163.93 753.435 1168.38 749.21 1170.74 C 746.372 1172.36 742.965 1172.66 739.892 1171.55 C 729.957 1167.88 731.051 1156.48 734.466 1148.56 C 736.186 1147.01 736.03 1147.05 738.245 1146.43 C 739.677 1149.42 738.28 1155.65 738.876 1160.98 C 744.565 1168.76 755.05 1157.97 750.569 1152.57 C 749.133 1155.54 747.65 1159.58 745.111 1161.34 L 743.588 1160.06 C 742.896 1151.11 748.405 1114.48 751.133 1104.67 z" fill="rgb(255,255,255)" transform="translate(0,0)"></path>
<path d="M 281.585 537.809 L 282.526 538.682 C 282.696 548.888 266.233 577.62 251.998 572.024 L 251.816 570.386 C 255.053 567.585 258.533 567.444 262.866 566.593 C 266.972 562.869 274.635 556.957 271.942 550.929 C 266.723 558.672 256.929 567.127 247.016 566.138 C 243.6 562.532 240.783 557.244 242.418 552.325 C 243.603 553.123 244.773 553.941 245.929 554.779 C 261.627 551.986 268.707 546.387 281.585 537.809 z" fill="rgb(255,255,255)" transform="translate(0,0)"></path>
<path d="M 748.714 694.329 C 757.984 693.417 763.736 694.552 772.839 696.08 C 748.669 701.913 735.77 703.713 713.294 717.552 C 710.46 719.678 700.626 727.643 698.111 727.936 L 697.948 725.919 C 703.097 713.126 710.837 718.928 713.265 709.281 C 722.66 700.215 736.049 696.034 748.714 694.329 z" fill="rgb(255,255,255)" transform="translate(0,0)"></path>
<path d="M 877.358 1296.47 C 887.714 1267.37 899.974 1241.62 929.484 1227.49 C 931.45 1226.55 933.436 1225.66 935.442 1224.81 C 911.491 1243.54 889.559 1269.08 879.097 1298.05 L 877.358 1296.47 z" fill="rgb(255,255,255)" transform="translate(0,0)"></path>
<path d="M 846.924 695.34 C 848.335 695.475 850.492 695.946 851.953 696.212 C 857.054 700.536 856.486 708.645 857.088 715.619 C 852.898 713.439 848.556 710.92 844.406 708.611 C 838.78 706.401 833.649 705.585 828.716 702.242 L 829.772 699.446 C 834.624 697.493 841.788 696.16 846.924 695.34 z" fill="rgb(255,255,255)" transform="translate(0,0)"></path>
<path d="M 683.71 702.988 L 696.096 710.671 C 689.379 718.999 689.062 722.844 695.946 731.006 C 693.669 733.269 693.728 733.24 690.922 734.787 C 688.89 731.704 684.167 707.85 683.71 702.988 z" fill="rgb(255,255,255)" transform="translate(0,0)"></path>
<path d="M 893.318 646.383 C 886.81 652.786 866.629 669.416 864.286 677.287 C 862.367 678.765 862.521 679.147 860.54 679.444 C 861.466 672.265 884.492 650.756 891.262 645.381 L 893.318 646.383 z" fill="rgb(67,65,67)" transform="translate(0,0)"></path>
<path d="M 664.135 403.027 C 668.424 404.172 673.773 405.742 675.306 410.422 C 673.334 412.876 674.617 411.933 670.872 412.62 C 667.189 411.649 661.048 410.668 659.001 407.953 C 660.047 404.769 660.489 405.399 664.135 403.027 z" fill="rgb(255,255,255)" transform="translate(0,0)"></path>
<path d="M 1095.29 1432.06 C 1096.99 1416.06 1099.62 1398.53 1100.78 1382.8 C 1101.35 1390.67 1099.41 1426.39 1097.57 1432.76 L 1095.29 1432.06 z" fill="rgb(67,65,67)" transform="translate(0,0)"></path>
<path d="M 712.547 1091.73 C 713.832 1096.89 710.774 1107.84 706.106 1111.26 C 704.665 1104.87 709.359 1098.21 712.547 1091.73 z" fill="rgb(255,255,255)" transform="translate(0,0)"></path>
<path d="M 1949.51 985.882 C 1952.06 980.974 1954.69 976.108 1957.39 971.287 L 1951.96 988.492 L 1949.51 985.882 z" fill="rgb(225,225,227)" transform="translate(0,0)"></path>
<path d="M 877.358 1296.47 L 879.097 1298.05 C 877.638 1301.57 877.064 1305 874.5 1307.12 C 874.487 1303.05 875.908 1300.29 877.358 1296.47 z" fill="rgb(225,225,227)" transform="translate(0,0)"></path>
<path d="M 1228.97 2048 C 1214.36 2034.47 1202.81 2017.37 1188.12 2003.58 C 1169.5 1985.89 1150.65 1969.03 1130.63 1952.88 C 1105.34 1932.41 1077.49 1914.67 1050.07 1897.13 C 898.097 1799.93 708.495 1754.96 595.118 1604.95 C 590.951 1599.43 581.38 1588.2 585.61 1581.54 C 586.342 1581.35 587.075 1581.16 587.807 1580.97 C 599.046 1586.05 609.932 1591.91 621.169 1597 C 631.15 1601.48 641.271 1605.63 651.517 1609.46 C 696.695 1626.63 742.789 1642.09 788.406 1658.12 C 1013.8 1737.32 1251.25 1844.32 1391.09 2048 L 1328.96 2048 L 1251.29 2048 L 1228.97 2048 z" fill="rgb(36,35,35)" transform="translate(0,0)"></path>
<path d="M 619.599 1612.68 C 644.398 1626.47 670.327 1637.3 695.867 1649.56 C 785.013 1692.36 880.546 1726.44 969.776 1768.46 C 1102.18 1830.8 1247.08 1923.29 1328.96 2048 L 1251.29 2048 C 1231.26 2016.93 1209.51 1997.11 1183.39 1971.9 C 1032.68 1826.36 814.43 1787.15 658.723 1649.31 C 646.33 1638.34 630.544 1625.01 619.599 1612.68 z" fill="rgb(255,255,255)" transform="translate(0,0)"></path>
<metadata><recraft-signature>{"signed_by": "recraft", "signature_b64": "Ec9zHcFzmUpkmJwIvDINr0r3GQTZaYlYG3uheFbpVn1ax2MuTuQJNmXlTlXuIFRk2JDuSxjMhW0P/rlmjcdwCg==", "signing_algo": "Ed25519", "generation_timestamp": 1771171983, "identifier": "b7315a6c-ae69-48b8-ae8e-1a59e306435b"}</recraft-signature></metadata></svg>