<svg xmlns="http://www.w3.org/2000/svg" height="1024" preserveAspectRatio="none" style="display: block;" version="1.1" viewBox="0 0 2048 2048" width="1024">

<path d="M 1736.03 173.592 C 1756.27 179.093 1785.3 189.334 1803.45 199.533 C 1736.55 216.251 1668.55 254.217 1607.59 286.11 C 1589.93 295.353 1571.57 304.878 1555.23 316.299 C 1534.37 330.884 1530.74 354.202 1519.33 374.268 L 1518.43 373.538 C 1512.35 368.532 1504.45 356.799 1497.76 358.142 C 1489.34 359.831 1471.16 371.42 1463.44 375.751 C 1427.09 396.143 1393.57 420.372 1360.08 445.002 C 1311.48 480.049 1265.3 518.338 1221.86 559.607 C 1209.94 571.049 1180.87 600.493 1172.32 613.358 C 1155.86 638.099 1157.6 704.163 1162.6 732.6 C 1167.81 762.165 1186.33 816.841 1204.66 840.11 L 1207.42 839.66 C 1205.46 854.509 1248.91 900.557 1265.79 885.914 C 1275.1 877.834 1287.7 856.185 1296.33 846.246 C 1309.33 832.06 1326.15 812.977 1339.66 799.766 C 1336.75 807.047 1333.64 814.512 1330.88 821.828 C 1349.13 806.537 1367.52 791.624 1386.29 776.959 C 1390.8 773.438 1393.05 766.857 1398.5 763.418 L 1400.17 763.698 C 1402.13 767.69 1400.7 774.365 1399.91 778.777 C 1418.4 772.728 1426.84 765.311 1439.29 761.058 L 1440.36 761.731 C 1438.94 764.189 1437.7 765.934 1437.05 768.707 C 1438.84 768.562 1467.42 755.977 1474.13 754.06 L 1463.93 763.743 C 1478.44 760.14 1499.16 757.505 1514.98 754.3 C 1482.21 768.9 1454.84 774.995 1426.22 799.371 C 1413.95 809.825 1398.67 824.588 1385.42 834.191 C 1375.57 837.726 1348.91 844.258 1336.55 848.089 C 1352.27 830.06 1378.3 796.844 1387.99 776.385 C 1367.5 801.926 1339.74 829.785 1315.84 852.63 C 1308.47 859.671 1293.39 864.874 1285.44 872.02 C 1274.88 880.533 1263.1 890.584 1263.56 905.356 C 1264.11 923.315 1323.93 999.736 1316.85 1010.53 C 1313.55 1009.86 1311.8 1007.63 1309.24 1005.27 C 1315.1 1019.61 1320.14 1027.92 1323.15 1043.22 L 1314.6 1033.12 C 1315.17 1044.9 1315.6 1072.18 1309.44 1082.51 C 1308.56 1083.06 1307.9 1083.64 1307 1083.8 C 1317.7 1018.54 1292.34 997.829 1259.5 944.1 C 1250.43 929.263 1244.54 918.459 1248.72 900.824 L 1248.6 898.089 C 1243.29 895.014 1235.04 896.028 1229.91 892.564 C 1198.3 871.223 1179.45 834.685 1165.44 800.028 C 1146.7 753.645 1134.77 691.313 1145.71 642.541 C 1126.51 666.622 1101.5 688.737 1080.2 711.408 C 1024.74 770.419 966.001 823.804 913.268 885.535 C 872.858 932.84 867.777 943.656 875.626 1005.38 C 882.223 1057.27 895.234 1102.2 937.732 1136.73 C 948.529 1145.55 977.528 1155.88 980.627 1160.89 C 974.578 1166.36 952.343 1160.79 944.666 1159.22 C 972.27 1203.53 1002.25 1220.49 1044.54 1245.95 C 1069.32 1261.14 1094.19 1276.17 1119.16 1291.05 C 1152.81 1311.25 1186.74 1335.15 1220.17 1354.19 C 1210.57 1322.76 1220.45 1320.88 1218.39 1290.43 C 1217.6 1278.73 1208.89 1262.32 1205.8 1250.21 C 1217.95 1256.93 1249.69 1280.99 1253.38 1295.12 C 1258.58 1315.03 1249.91 1333.31 1248.5 1353.16 C 1250.18 1351.15 1260.28 1338.92 1261.67 1337.87 C 1264.83 1338.99 1263.27 1338.96 1266.52 1337.94 C 1269.33 1335.25 1270.3 1332.78 1271.56 1329.1 C 1271.67 1329.14 1273.26 1329.72 1273.69 1329.27 C 1282.16 1320.45 1291.23 1309.06 1302.23 1303.39 C 1305.98 1301.46 1308.24 1302.83 1309.89 1303.48 C 1308.62 1305.74 1298.42 1312.69 1295.08 1316.1 C 1286.83 1324.48 1283.03 1330.09 1277.5 1340.35 C 1287.15 1332.66 1292.59 1321.93 1302.75 1318.4 C 1313.88 1314.17 1335.14 1314.34 1346.26 1319.29 C 1355.52 1323.41 1359.36 1329.2 1362.46 1338.51 C 1375.17 1339.96 1386.59 1343.41 1394.77 1354.16 C 1400.61 1361.84 1403.81 1373.96 1400.6 1383.28 C 1400.11 1384.73 1400.27 1384.7 1400.19 1386.48 L 1402.28 1389.12 C 1405.55 1389.9 1406.49 1391.18 1408.97 1393.45 C 1417.58 1402.27 1425.4 1412.86 1419.25 1425.35 C 1414.21 1435.59 1430.86 1443.89 1427.14 1454.57 C 1424.99 1460.71 1419.35 1465.56 1414.02 1469.02 C 1417.59 1482.06 1418.11 1485.07 1417.57 1498.47 C 1414.41 1502.63 1412.61 1505.04 1408.84 1508.8 C 1409.42 1519.17 1410.22 1530.62 1402.72 1539.43 C 1397.62 1545.43 1388.48 1542.96 1383.74 1546.16 C 1390.75 1562.62 1373.84 1578.56 1355.09 1571.29 C 1353.92 1568.52 1353.93 1569.9 1354.42 1567.15 C 1360.67 1564.23 1362.47 1568.68 1371.86 1564.36 L 1369.19 1563.61 C 1366.4 1563.95 1366.38 1563.91 1363.59 1563.51 C 1359.04 1560.68 1356.91 1554.85 1354.42 1549.88 C 1350.96 1548.68 1343.63 1545.22 1341.15 1545.55 C 1341.15 1546.3 1341.17 1547.05 1341.2 1547.8 C 1341.59 1557.33 1345.26 1559.49 1351.96 1565.55 L 1351.93 1567.03 C 1341.55 1570.67 1339.24 1577.82 1328.55 1579.43 C 1309.75 1582.26 1306 1570.58 1294.59 1562.1 C 1294.18 1564.18 1294.5 1563.1 1293.53 1565.32 C 1283.32 1565.9 1273.37 1555.53 1265.31 1549.23 C 1259.55 1551.04 1254.07 1552.17 1248.01 1551.23 C 1239.68 1549.86 1232.22 1545.28 1227.25 1538.46 C 1225.02 1535.98 1225.01 1535.11 1223.64 1531.99 C 1221.62 1530.99 1221.72 1531.04 1219.36 1531.42 C 1204.59 1533.8 1195.19 1526.64 1186.82 1515.42 C 1182.27 1507.92 1181.99 1504.27 1180.85 1495.76 C 1167.75 1500.38 1150.32 1503.96 1138.53 1509.61 C 1135.11 1511.25 1125.14 1525.75 1119.79 1525.27 C 1117.58 1517.85 1136.9 1478.35 1140.85 1469.97 C 1131.79 1473.21 1109.49 1481.34 1100.07 1476.96 L 1099 1475.04 L 1099.62 1473.02 C 1117.85 1463.89 1128.05 1457.95 1142.3 1442.56 C 1160 1423.45 1183.03 1413.93 1207.87 1407.24 L 1206.45 1407.25 C 1193.26 1407.36 1179.03 1411.39 1165.94 1413.56 C 1139.82 1417.91 1113.72 1412.38 1093.48 1394.91 C 1100.08 1395.69 1108.89 1397.86 1115.05 1397.62 C 1132.34 1396.95 1144.75 1382.83 1159.03 1376 C 1177.51 1367.17 1200.77 1377.01 1218.3 1384.41 L 1217.12 1383.47 C 1205.07 1374.04 1189.76 1367.02 1177.93 1358.31 C 1151.8 1338.46 1125.81 1319.77 1097.22 1303.54 C 1072.24 1289.35 1041.66 1279.29 1018.71 1261.91 C 936.806 1199.89 874.695 1118.11 861.281 1014.75 C 859.359 1000.04 857.867 985.264 856.808 970.458 C 856.103 961.092 855.479 945.915 853.576 937.27 C 849.079 956.412 849.063 998.257 848.48 1018.49 C 847.374 1047.8 847.004 1077.12 847.37 1106.45 C 847.446 1121.76 847.108 1141.59 849.316 1156.36 C 851.011 1167.12 854.876 1177.42 860.677 1186.64 C 863.396 1191.1 866.419 1195.37 869.724 1199.41 C 858.543 1194.94 857.5 1193.17 849.949 1183.08 C 850.462 1200.37 852.756 1217.6 854.407 1235.05 C 857.631 1269.13 860.153 1306.86 871.49 1339.39 C 876.162 1352.79 885.05 1364.81 894.866 1374.85 C 900.417 1380.53 919.553 1391.83 920.903 1394.48 L 919.964 1395.62 C 907.333 1396.36 889.344 1387.47 880.027 1379.21 C 878.7 1378.04 877.396 1376.84 876.114 1375.61 C 895.638 1454.85 919.797 1533.49 956.803 1606.46 C 957.689 1580.3 967.587 1561.55 965.818 1535.62 C 964.998 1523.61 962.978 1512.98 959.73 1501.38 C 958.437 1496.76 953.638 1486.25 954.036 1482.98 L 955.622 1482.12 C 969.057 1487.21 994.351 1584.54 996.166 1602.73 C 997.106 1612.16 992.313 1635.16 993.506 1649.11 L 993.911 1647.98 C 996.816 1639.75 998.25 1631.93 1001.34 1623.69 C 1009.26 1602.56 1027.51 1590.92 1046.91 1581.26 C 1069.79 1569.87 1098.91 1565.82 1118.22 1548.57 C 1123.25 1544.08 1128.54 1536.28 1135.31 1538.6 C 1135.06 1552.54 1106.2 1583.64 1096.07 1593.42 C 1089.71 1599.49 1083.04 1605.21 1076.09 1610.58 C 1081.21 1611.51 1084.52 1611.99 1089.49 1613.78 C 1091.81 1616.4 1094.17 1618.92 1096.15 1621.81 C 1115.27 1622.17 1118.71 1625.39 1133.42 1637.05 C 1138.99 1641.46 1146.66 1644.11 1152.52 1649.6 C 1165.13 1661.42 1174.74 1694.4 1145.45 1685.31 C 1145.42 1668.12 1144.97 1663.72 1138.04 1647.78 C 1138.94 1655.68 1141.75 1696.13 1129.07 1699.45 C 1128.72 1699.54 1125.89 1698.66 1125.4 1698.51 L 1125.59 1699.78 C 1128.77 1719.77 1167.22 1742.23 1145.94 1770.84 C 1123.47 1801.05 1103.16 1766.02 1091.82 1747.36 C 1089.52 1743.57 1076.74 1731.82 1073.02 1728.16 L 1065.94 1739.35 C 1071.99 1745.45 1079.38 1746.85 1081.29 1748.84 C 1096.96 1765.04 1112.48 1793.38 1093.79 1813.35 C 1081.45 1826.53 1059.74 1820.96 1047.96 1809.86 C 1042.52 1807.15 1037.38 1782.79 1034.2 1781.23 C 1018.71 1773.59 993.827 1777.63 994.686 1752.26 C 995.841 1718.1 1023.29 1675.49 978.954 1657.14 C 955.767 1660.95 938.743 1676.22 940.67 1701.21 C 942.473 1724.59 963.216 1741.23 974.202 1760.57 C 984.404 1778.21 985.883 1795.92 961.803 1800.3 C 918.294 1806.87 905.832 1751.23 929 1723 C 932.156 1719.26 936.965 1716.72 936.854 1712.51 C 934.955 1709.3 936.276 1710.3 932.926 1709.2 C 928.608 1710.06 925.834 1711.9 923.155 1715.78 C 899.084 1750.64 905.861 1804.28 955.69 1809.15 C 961.613 1809.73 966.397 1808.37 971.99 1805.94 C 975.198 1820.17 978.181 1829.14 983.409 1842.77 C 980.012 1851.25 973.508 1861.87 965.233 1864.61 C 935.955 1874.29 924.148 1849.15 927.309 1824.1 C 928.119 1817.68 929.555 1811.71 929.049 1805.55 C 928.272 1805.02 927.494 1804.48 926.717 1803.95 C 917.271 1803.91 916.368 1825.44 916.571 1830.97 C 917.622 1859.6 934.654 1871.86 960.867 1874.42 C 964.409 1874.77 964.66 1889.25 949.327 1887.23 C 936.966 1885.61 929.809 1865.81 925.022 1864.37 C 922.069 1866.42 918.678 1869.86 915.102 1868.8 C 890.103 1861.43 892.394 1831.47 892.95 1811.29 C 874.482 1800.41 872.503 1790.6 878.018 1770.98 L 879.113 1769.94 L 882.331 1770.13 C 859.205 1757.31 867.205 1739.41 872.928 1717.76 C 841.774 1725.6 816.713 1736.49 793.383 1757.89 C 791.682 1759.45 789.783 1759.36 787.68 1758.93 C 786.462 1755.99 786.688 1754.27 788.112 1751.03 C 802.274 1718.81 834.607 1682.7 866.846 1668.97 C 884.689 1660.5 897.447 1657.92 916.856 1657.9 C 920.892 1657.53 924.934 1657.21 928.979 1656.94 C 925.739 1655.12 917.809 1650.78 915.387 1648.28 C 898.054 1630.38 888.594 1601.45 881.573 1578.29 C 879.472 1571.35 875.056 1552.97 877.454 1546.71 C 880.819 1548.03 885.27 1559.8 886.424 1563.48 C 893.37 1585.6 911.747 1598.8 927.646 1614.47 C 939.288 1625.94 947.714 1638.52 955.641 1653.09 C 951.768 1635.15 943.595 1621.79 935.47 1605.29 C 890.29 1513.52 862.763 1412.29 845.752 1311.7 C 839.373 1273.98 834.583 1228.4 832.365 1190.3 C 815.419 1222.74 798.258 1254.02 778.383 1284.77 C 758.852 1315.76 742.062 1349.35 727.467 1382.91 C 716.455 1408.22 708.295 1436.27 701.874 1463.06 C 698.053 1479.01 696.152 1495.63 692.094 1511.6 C 729.551 1452.86 773.942 1491.73 819.465 1463.04 C 824.78 1459.64 829.668 1455.6 834.023 1451.03 C 837.987 1446.87 852.29 1427.61 855.844 1427.45 C 860.078 1434.46 850.872 1443.23 847.345 1449.91 C 833.133 1476.82 811.388 1496.28 783.533 1508.39 C 756.43 1520.97 728.947 1519.17 702.86 1530.5 C 732.439 1527.01 748.457 1527.95 773.077 1547.8 C 794.457 1565.04 808.314 1581.46 839.071 1579.22 C 850.87 1578.36 857.11 1573.32 866.852 1569.7 C 843.44 1599.13 820.782 1603.6 785.042 1595.25 C 784.838 1599.24 785.13 1603.21 783.051 1606.49 C 780.805 1606.88 778.824 1607.18 776.563 1607.46 C 781.724 1614.58 784.638 1616.15 782.751 1625.45 C 780.21 1637.98 771.729 1652.62 756.899 1649.12 C 748.863 1647.22 747.184 1640.44 741.521 1638.85 C 739.352 1640.51 740.125 1639.43 739.708 1642.55 C 745.733 1653.14 748.513 1660.93 745.022 1673.5 C 742.269 1683.71 735.437 1692.34 726.129 1697.36 C 706.688 1707.64 697.24 1695.8 690.271 1679.02 C 687.009 1681.02 684.474 1682.01 682.867 1685.39 C 682.505 1689.68 685.318 1693.9 687.363 1698 C 686.562 1708.39 685.492 1720.81 677.007 1728.13 C 672.974 1731.57 667.711 1733.22 662.435 1732.69 C 650.82 1731.62 642.366 1721.77 635.236 1713.62 L 631.275 1718.04 C 611.933 1733.97 584.141 1730.98 580.488 1702.71 C 553.786 1721.93 530.226 1705.07 527.348 1675.02 L 526.432 1679.01 L 525.384 1679.1 L 525.829 1677.7 C 524.339 1678.51 522.801 1679.6 521.076 1679.14 C 516.359 1678.17 515.096 1677.59 510.513 1678.43 C 485.79 1694.32 472.424 1725.56 498.881 1747.07 L 497.925 1748.72 C 490.806 1744.17 483.096 1739.85 478.305 1732.77 C 463.702 1711.2 469.633 1688.13 489.505 1673.58 C 467.458 1647.94 476.429 1629.69 499.701 1609.35 C 486.31 1590.82 493.137 1579.05 498.236 1560.2 C 502.168 1545.67 499.05 1542.18 514.647 1532.75 C 522.669 1527.89 522.626 1527.27 532.572 1526.46 C 537.98 1518.27 524.568 1515.63 548.815 1499.39 C 523.468 1473.76 517.683 1447.58 520.073 1412.4 C 498.809 1447.48 451.592 1544.3 443.466 1581.96 C 438.046 1607.08 456.301 1634.63 469.351 1654.71 C 449.095 1646.86 441.365 1640.56 428.497 1623.38 C 424.587 1637.02 419.481 1650.48 415.169 1664.03 C 401.877 1705.8 389.417 1747.45 378.879 1790.02 C 369.003 1829.91 362.006 1877.98 340.383 1913.35 C 327.316 1892.32 317.426 1876.64 309.859 1852.62 C 293.994 1801.76 290.422 1742.69 310.058 1692.31 C 320.027 1666.74 335.739 1644.36 346.442 1619.07 C 349.627 1611.54 354.008 1603.48 357.753 1596.15 C 349.603 1597.52 339.899 1597.68 332.088 1594.93 C 326.569 1592.99 300.369 1585.51 303.019 1577.77 C 307.477 1577.28 325.446 1575.61 328.293 1574.71 C 349.217 1568.07 375.095 1546.62 388.442 1529.66 C 397.764 1517.81 406.731 1499.54 413.715 1486.1 L 441.854 1431.89 C 460.398 1396.59 481.302 1361.39 500.339 1326.42 C 490.846 1318.89 481.545 1314.92 471.402 1308.43 C 511.453 1307.75 525.362 1293.56 545.974 1259.72 C 555.944 1243.35 573.401 1219.66 578.387 1202.4 C 581.43 1191.87 544.537 1154.49 546.201 1143.61 C 546.887 1143.48 547.573 1143.34 548.259 1143.2 C 556.613 1148.01 565.713 1152.94 574.6 1156.4 L 575.916 1156.9 C 580.613 1155.9 585.3 1154.86 589.977 1153.78 C 599.097 1151.62 621.094 1145.02 627.3 1138.18 C 653.427 1109.38 677.247 1076.4 701.986 1046.32 C 716.523 1028.95 731.215 1011.71 746.061 994.597 C 755.398 983.834 768.559 969.631 775.811 957.863 C 776.024 945.144 776.775 927.802 775.327 915.463 C 774.202 905.87 771.041 892.878 769.245 882.76 C 784.704 895.395 811.27 907.543 829.965 893.446 C 844.249 882.675 859.278 863.3 871.887 849.823 C 904.876 814.562 935.601 776.247 969.331 741.711 C 925.222 742.77 848.539 707.264 809.416 685.676 C 782.008 670.553 744.656 646.883 712.773 644.744 C 721.309 666.485 727.573 688.98 719.856 712.016 C 717.359 719.467 712.429 710.737 710.471 724.937 C 708.473 739.425 700.24 752.016 692.256 764.106 C 691.269 757.412 690.981 749.48 690.566 742.627 C 683.373 756.141 672.132 779.167 657.222 786.68 C 655.026 784.019 657.513 782.991 655.089 779.436 C 646.745 784.945 624.421 813.014 618.268 822.092 L 616.893 822.276 C 614.131 817.963 616.087 811.088 616.946 805.809 C 606.261 818.019 586.537 832.234 572.232 840.331 C 575.403 830.532 575.986 825.611 576.815 815.462 C 558.12 827.251 546.799 837.025 524.742 845.129 C 524.115 841.441 523.671 839.776 522.576 836.184 C 520.233 836.594 515.301 843.226 511.869 845.44 C 505.735 849.397 500.432 851.293 493.73 854.001 L 506.522 835.235 C 486.895 845.259 475.742 852.463 453.362 851.961 C 454.797 846.282 456.689 840.582 458.442 834.98 C 456.077 836.563 453.636 838.029 451.126 839.371 C 428.801 851.554 398.858 848.812 375.447 841.743 C 380.232 839.054 387.89 835.742 389.678 830.368 L 388.418 828.846 C 385.286 828.081 355.91 828.502 348.973 828.099 L 364.042 818.911 C 350.115 819.324 347.431 821.309 331.811 819.699 L 330.888 818.227 C 333.922 813.789 379.008 807.773 394.986 784.598 C 417.399 752.09 417.379 722.719 436.593 689.066 C 449.401 666.634 468.898 642.591 492.553 630.78 C 512.903 621.715 550.934 621.967 573.364 622.168 C 563.338 629.205 556.844 633.668 548.185 642.602 C 502.972 689.25 502.034 763.022 457.356 807.511 C 449.435 815.399 430.944 824.899 420.767 830.649 C 526.72 804.233 494.687 662.447 595.729 627.903 C 610.918 622.711 624.269 624.602 640.085 625.203 C 578.318 652.555 569.632 742.343 544.783 796.153 C 541.362 803.559 528.905 814.738 522.776 821.138 C 559.283 801.064 562.188 773.115 575.48 736.404 C 594.87 682.853 624.354 615.857 693.75 636.618 C 672.178 678.231 683.19 708.86 659.533 748.672 C 653.276 759.202 644.307 768.498 636.249 777.777 C 661.149 766.24 685.294 725.792 688.151 699.595 C 697.298 615.752 712.962 634.338 774.515 662.316 C 763.533 653.049 744.639 639.311 732.79 630.293 C 697.465 603.41 644.678 552.774 602.875 542.981 C 612.037 549.705 623.515 554.34 632.974 560.604 C 662.554 580.192 687.306 593.999 705.344 625.331 C 696.859 622.891 689.644 619.717 680.522 617.321 C 661.13 594.209 639.181 572.982 611.428 560.483 C 605.765 557.933 600.305 555.007 594.953 551.856 L 592.811 553.776 C 574.759 542.411 560.109 534.285 540.183 526.225 L 540.856 525.245 C 532.611 521.927 486.475 512.551 487.03 502.163 C 489.103 500.864 489.541 500.654 491.791 499.9 L 493.674 499.28 C 485.778 493.462 445.794 475.465 448.311 465.587 L 452.104 463.819 C 449.644 460.98 443.726 459.953 440.275 457.784 C 434.534 454.175 413.22 438.626 417.476 431.068 C 421.757 430.628 421.802 431.507 426.403 433.475 C 420.656 426.787 398.845 402.746 402.458 393.782 C 404.049 394.279 405.633 394.798 407.209 395.339 C 409.354 389.363 387.536 353.751 391.16 345.299 C 396.481 344.416 402.123 349.154 406.88 352.228 C 400.128 338.214 394.555 323.396 389.041 308.856 C 397.014 313.268 401.205 317.409 407.958 323.425 C 395.608 300.623 393.626 300.039 389.355 272.45 C 393.969 277.666 396.616 280.284 401.825 284.917 C 398.58 272.192 399.683 262.805 399.558 249.899 C 399.514 245.382 396.158 236.629 397.196 232.926 L 398.697 232.625 C 406.245 235.973 417.847 249.522 423.861 256.026 C 422.99 252.796 420.434 243.813 420.123 241.016 C 419.262 233.273 429.27 184.112 436.14 183.922 L 438.034 186.405 L 439.923 186.881 C 439.902 191.182 439.776 195.88 439.875 200.141 L 438.259 201.531 C 452.548 259.448 489.452 286.187 521.449 333.332 C 530.781 347.081 540.259 372.107 547.726 387.64 L 546.42 386.808 C 535.328 379.855 519.868 374.292 507.893 368.057 C 464.18 345.301 437.193 325.18 409.285 284.816 C 422.784 323.746 459.842 352.155 493.685 373.731 C 517.287 388.779 529.184 392.717 551.02 413.37 C 561.601 423.218 571.244 434.027 579.826 445.658 C 588.646 457.619 595.944 470.67 606.933 480.448 C 581.042 471.539 560.735 467.139 534.284 462.434 C 493.775 455.229 455.152 435.592 427.592 404.938 C 418.426 395.039 414.888 388.052 407.401 378.692 C 423.277 415.819 459.351 447.708 496.485 462.095 C 551.356 483.353 589.437 472.303 634.375 518.733 C 616.968 512.889 599.871 506.691 581.647 504.111 C 559.031 500.91 518.101 501.797 497.829 491.819 L 497.999 494.032 C 530.087 505.399 539.88 505.111 573.581 509.965 C 614.413 515.844 648.376 538.985 676.638 567.821 C 683.988 575.32 687.962 582.74 696.456 590.552 L 697.662 591.651 C 693.413 582.588 686.239 571.363 684.412 561.423 C 677.117 521.741 695.895 492.242 713.849 458.942 C 719.198 449.022 722.769 435.256 728.368 426.229 L 729.471 426.2 C 731.861 445.957 720.303 491.914 715.415 511.576 C 711.227 528.421 695.705 559.97 703.034 575.572 C 723.714 619.598 798.549 661.515 838.494 683.301 C 827.604 659.834 824.931 634.854 813.551 611.975 C 811.45 607.75 797.178 598.994 792.384 595.568 C 771.91 580.775 757.5 559.056 751.827 534.443 C 749.899 526.436 748.799 517.862 747.242 509.727 C 746.121 503.871 738.454 491.337 741.915 486.813 C 744.96 488.198 743.965 488.214 747.001 488.25 C 748.011 482.207 739.835 460.286 735.857 454.403 C 734.755 452.774 734.364 452.589 733.42 450.229 L 734.756 448.375 L 736.943 448.338 C 741.105 450.594 743.918 454.307 747.154 457.877 C 747.306 450.16 744.937 423.499 747.992 419.604 C 748.914 421.645 749.639 424.372 751.171 425.224 C 752.141 409.922 749.151 396.8 750.898 379.84 C 753.509 384.481 756.465 388.651 759.458 393.048 C 759.079 385.48 760.778 359.953 764.645 354.979 L 766.345 356.625 L 767.581 364.311 L 768.784 364.86 C 769.663 355.218 768.926 343.987 778.467 339.971 C 782.881 334.697 791.52 307.381 794.618 299.372 C 795.737 349.688 796.423 367.676 815.409 415.168 C 826.655 443.3 818.539 509.593 811.673 540.329 C 795.041 512.672 773.672 482.663 765.955 451.794 C 762.901 439.582 762.695 427.525 760.701 415.382 C 759.399 422.75 759.773 431.006 759.846 438.559 C 763.049 487.602 788.054 508.67 806.812 549.788 C 814.372 566.359 811.746 601.815 822.423 620.296 C 835.38 645.499 840.119 667.761 856.537 691.334 C 881.243 700.611 934.801 724.527 959.692 724.917 C 968.528 725.001 977.268 723.081 985.256 719.302 C 989.011 717.524 992.344 715.418 995.466 712.671 C 1007.25 702.308 1017.66 689.886 1028.72 678.714 C 1047.75 659.503 1155.77 553.824 1161.24 537.928 C 1164.23 529.256 1163.49 519.544 1166.32 510.799 C 1169.9 499.725 1177.98 491.187 1181.92 480.514 C 1184.71 472.947 1185.06 465.485 1185.94 457.566 C 1199.29 470.374 1204.2 475.434 1212.32 491.86 C 1235.26 472.891 1258.2 453.818 1281.27 434.843 C 1315.11 407.01 1348.17 391.607 1371.4 352.383 C 1385.19 329.079 1384.75 313.344 1393.98 293.564 L 1394.52 292.389 C 1400.72 311.609 1410.59 318.615 1415.4 335.026 L 1411.11 347.106 C 1459.14 314.223 1509.14 284.321 1560.83 257.57 C 1574.5 250.327 1588.58 243.875 1602.17 236.756 C 1609.23 217.524 1617.94 208.897 1632.7 195.196 C 1636.2 191.951 1644.28 184.009 1649.21 184.579 C 1649.59 187.738 1649.62 186.251 1648.4 189.331 C 1644.69 198.76 1643.75 206.5 1643.74 216.555 C 1671.94 200.939 1707.83 188.963 1736.03 173.592 z" fill="rgb(42,43,42)" transform="translate(0,0)"></path>
<path d="M 1297.17 1377.11 L 1291.1 1376.23 C 1303.42 1374.68 1307.63 1376.37 1319.86 1379.37 C 1322.21 1383 1323.24 1385.32 1326.71 1387.69 L 1327.41 1387.76 L 1328.22 1385.48 L 1325.06 1379.94 C 1326.5 1378.34 1334.68 1376.74 1337.07 1376.7 C 1347.04 1376.54 1352.73 1375.26 1361.75 1379.76 L 1363.19 1378.02 C 1361.54 1374.4 1356 1373.69 1352.22 1372.77 L 1351.71 1371.42 C 1354.27 1365.81 1356.64 1365.15 1358.7 1361.08 C 1360.61 1357.29 1360.39 1348.19 1364.73 1344.7 C 1371.73 1347.9 1387.47 1364.99 1391.87 1372.01 C 1396.23 1378.96 1388.25 1385.45 1383.13 1388.81 L 1382.59 1390.67 C 1387.13 1391.82 1390.95 1389.16 1394.37 1389.76 C 1401.08 1390.94 1400.88 1394.63 1408.97 1393.45 C 1417.58 1402.27 1425.4 1412.86 1419.25 1425.35 C 1414.21 1435.59 1430.86 1443.89 1427.14 1454.57 C 1424.99 1460.71 1419.35 1465.56 1414.02 1469.02 C 1417.59 1482.06 1418.11 1485.07 1417.57 1498.47 C 1414.41 1502.63 1412.61 1505.04 1408.84 1508.8 C 1409.42 1519.17 1410.22 1530.62 1402.72 1539.43 C 1397.62 1545.43 1388.48 1542.96 1383.74 1546.16 C 1390.75 1562.62 1373.84 1578.56 1355.09 1571.29 C 1353.92 1568.52 1353.93 1569.9 1354.42 1567.15 C 1360.67 1564.23 1362.47 1568.68 1371.86 1564.36 L 1369.19 1563.61 C 1366.4 1563.95 1366.38 1563.91 1363.59 1563.51 C 1359.04 1560.68 1356.91 1554.85 1354.42 1549.88 C 1350.96 1548.68 1343.63 1545.22 1341.15 1545.55 C 1341.15 1546.3 1341.17 1547.05 1341.2 1547.8 C 1341.59 1557.33 1345.26 1559.49 1351.96 1565.55 L 1351.93 1567.03 C 1341.55 1570.67 1339.24 1577.82 1328.55 1579.43 C 1309.75 1582.26 1306 1570.58 1294.59 1562.1 C 1294.18 1564.18 1294.5 1563.1 1293.53 1565.32 C 1283.32 1565.9 1273.37 1555.53 1265.31 1549.23 C 1259.55 1551.04 1254.07 1552.17 1248.01 1551.23 C 1239.68 1549.86 1232.22 1545.28 1227.25 1538.46 C 1228.89 1538.91 1229.78 1538.91 1230.94 1540.22 C 1236.57 1546.59 1253.69 1553.38 1261.44 1548.92 L 1261.57 1548.21 C 1256.62 1545.86 1252.96 1543.06 1249.95 1538.47 L 1250.42 1537.72 C 1253.54 1540.17 1257.72 1543.61 1260.99 1545.65 L 1262.04 1545.5 L 1262.24 1543.52 C 1268.54 1548.16 1274.22 1556.27 1281.63 1558.71 L 1282.74 1557.84 C 1280.63 1554.21 1274.41 1550.4 1270.25 1543.53 L 1271.79 1542.44 L 1272.83 1541.82 C 1271.89 1540.41 1272.27 1541.26 1271.98 1539.16 C 1273.83 1540.41 1294.49 1550.23 1295.49 1550.31 C 1295.86 1548.34 1295.7 1548.74 1296.49 1546.87 C 1324.85 1545.62 1320.37 1540.46 1318.64 1517.43 L 1317.39 1518.13 C 1314.09 1526.49 1317.23 1534.51 1305.92 1541.59 C 1297.42 1546.9 1297.46 1544.51 1289 1541.63 C 1284.75 1540.18 1283.99 1541.66 1279.05 1537.93 L 1279.68 1536.59 C 1272.92 1531.54 1270.5 1529.55 1265.74 1522.81 C 1274.21 1514.25 1276.72 1509.57 1279.21 1498.1 L 1278.31 1496.81 L 1279.36 1496.02 C 1283.3 1497.89 1288.58 1502.96 1292.25 1505.59 C 1297.74 1509.51 1304.69 1511.76 1311.03 1514.01 C 1311.46 1512.18 1311.26 1511.94 1310.97 1510.08 L 1312.75 1509.46 C 1304.49 1506.63 1286.71 1500.69 1282.32 1493.18 C 1282.01 1486.1 1291.48 1481.93 1296.28 1476.17 C 1300.53 1471.09 1303.66 1456.67 1298.7 1452.59 L 1297.78 1453.41 C 1297.6 1460.97 1295.03 1473.7 1287.59 1477.62 C 1283.45 1479.81 1265.7 1482.63 1263.45 1478.05 C 1247.47 1473.09 1241.8 1471.67 1234.17 1455.73 C 1239.06 1440.25 1240.36 1432.66 1237.26 1416.61 C 1235.44 1417.01 1236.04 1417.29 1235.3 1416.84 C 1237.3 1414.41 1260.13 1419.26 1264.4 1415.24 C 1265.36 1414.33 1268.09 1413.1 1269.26 1414.13 C 1276.26 1420.22 1283.35 1426.76 1290.39 1433 C 1292.81 1435.16 1293.71 1441.97 1295.5 1443.33 C 1295.43 1439.76 1294.9 1436.55 1296.53 1433.52 C 1299.97 1432.66 1301.37 1433.59 1305.15 1434.53 C 1308.25 1433.51 1307.4 1433.64 1309.84 1430.62 C 1307.34 1428.58 1289.44 1429.45 1276.55 1416.37 C 1270.06 1409.79 1273.56 1401.96 1274.45 1394.02 C 1275 1389.06 1274.83 1383.88 1274.98 1378.9 L 1275.78 1379.19 C 1282.92 1378.61 1290.05 1377.92 1297.17 1377.11 z" fill="rgb(4,3,3)" transform="translate(0,0)"></path>



















<path d="M 1414.76 1433.75 C 1420.9 1439.05 1420.38 1448.55 1418.66 1455.74 L 1418.45 1455.78 C 1418.2 1446.72 1417.01 1442.33 1414.76 1433.75 z" fill="rgb(139,138,140)" transform="translate(0,0)"></path>
<path d="M 516.215 1609.34 C 525.978 1611.61 530.156 1610.77 538.107 1604.76 C 541.893 1617.4 540.834 1629.4 554.589 1636.57 C 563.528 1641.23 570.316 1641.48 579.467 1637.84 C 585.988 1644.81 583.87 1663.25 606.472 1663.71 C 614.39 1663.86 620.66 1663.6 628.083 1659.96 C 632.184 1668.16 633.907 1672.44 641.453 1678.05 L 639.503 1678.36 C 650.087 1686.8 642.34 1705.19 635.236 1713.62 L 631.275 1718.04 C 611.933 1733.97 584.141 1730.98 580.488 1702.71 C 553.786 1721.93 530.226 1705.07 527.348 1675.02 L 526.432 1679.01 L 525.384 1679.1 L 525.829 1677.7 C 524.339 1678.51 522.801 1679.6 521.076 1679.14 C 516.359 1678.17 515.096 1677.59 510.513 1678.43 C 508.596 1676.67 507.455 1676.05 506.723 1673.61 L 508.088 1671.15 L 507.402 1670.05 C 492.514 1668.72 484.376 1618.47 511.646 1609.72 L 516.215 1609.34 z" fill="rgb(42,43,42)" transform="translate(0,0)"></path>

<path d="M 508.088 1671.15 C 514.577 1674.57 518.646 1677.26 525.931 1675.01 C 526.614 1674.8 527.294 1674.58 527.971 1674.34 L 527.348 1675.02 L 526.432 1679.01 L 525.384 1679.1 L 525.829 1677.7 C 524.339 1678.51 522.801 1679.6 521.076 1679.14 C 516.359 1678.17 515.096 1677.59 510.513 1678.43 C 508.596 1676.67 507.455 1676.05 506.723 1673.61 L 508.088 1671.15 z" fill="rgb(59,60,54)" transform="translate(0,0)"></path>

<path d="M 637.163 1591.85 C 636.866 1603.52 640.797 1609.29 641.962 1620.4 C 644.293 1642.62 612.62 1668.04 594.102 1649.97 C 579.338 1635.56 600.568 1614.14 601.13 1600.12 L 604.199 1598.45 C 617.826 1600.3 625.122 1598.26 637.163 1591.85 z" fill="rgb(42,43,42)" transform="translate(0,0)"></path>

<path d="M 898.231 1698.44 C 908.167 1690.97 920.522 1680.44 933.101 1678.37 L 934.411 1680.24 C 923.501 1683.5 912.276 1691.75 902.722 1698.14 L 898.231 1698.44 z" fill="rgb(4,3,3)" transform="translate(0,0)"></path>



<path d="M 1302.75 1318.4 C 1313.88 1314.17 1335.14 1314.34 1346.26 1319.29 C 1355.52 1323.41 1359.36 1329.2 1362.46 1338.51 C 1375.17 1339.96 1386.59 1343.41 1394.77 1354.16 C 1400.61 1361.84 1403.81 1373.96 1400.6 1383.28 C 1400.11 1384.73 1400.27 1384.7 1400.19 1386.48 L 1402.28 1389.12 C 1399.6 1388.55 1399.71 1388.67 1397.48 1387.13 L 1397.33 1385.13 C 1402.62 1376.14 1401.61 1372.73 1397.68 1363.17 L 1396.59 1363.74 C 1395.93 1367.08 1397.72 1371.78 1398.69 1375.25 L 1398.17 1375.86 C 1397.11 1373.81 1396.85 1373.4 1396.22 1371.21 C 1394.47 1368.81 1391.8 1363.95 1390.2 1361.23 L 1391.12 1359.87 L 1390.82 1359.31 C 1390.86 1359.17 1390.89 1359.04 1390.92 1358.91 C 1396.56 1344.53 1369.44 1343.39 1361.57 1339.44 C 1359.17 1338.24 1360.76 1334.19 1357.66 1331.55 C 1356.93 1332.16 1356.2 1332.78 1355.47 1333.39 C 1355.91 1340.61 1357.01 1349.14 1354.93 1356.06 L 1353.67 1355.85 C 1359.35 1323.58 1344.52 1321.64 1317.3 1322.98 C 1315.53 1326.5 1313.46 1329.73 1311.41 1333.08 L 1310.86 1331.47 C 1314.13 1324.34 1313.01 1322.63 1320.43 1320.77 L 1320.83 1318.76 L 1319.86 1317.38 C 1313.8 1316.11 1309.69 1319.78 1302.75 1318.4 z" fill="rgb(4,3,3)" transform="translate(0,0)"></path>
<path d="M 1391.12 1359.87 C 1394.47 1364.67 1394.69 1365.52 1396.22 1371.21 C 1394.47 1368.81 1391.8 1363.95 1390.2 1361.23 L 1391.12 1359.87 z" fill="rgb(139,138,140)" transform="translate(0,0)"></path>

<path d="M 1186.82 1515.42 C 1186.99 1514.7 1188.3 1511.55 1188.29 1511.54 C 1187.11 1506.68 1184.73 1500.63 1186.58 1495.68 C 1187.67 1492.76 1196.24 1489.57 1199.26 1490.71 L 1198.43 1492.13 L 1196.65 1491.49 C 1193.13 1493.22 1190.13 1494.71 1186.74 1496.66 C 1190.27 1516.28 1196.92 1522.1 1216.16 1527.46 C 1213.8 1528.47 1211.94 1527.97 1209.49 1527.64 L 1208.42 1529.34 C 1211.11 1531.09 1218.47 1529.81 1222.04 1529.28 L 1224.06 1530.38 L 1223.64 1531.99 C 1221.62 1530.99 1221.72 1531.04 1219.36 1531.42 C 1204.59 1533.8 1195.19 1526.64 1186.82 1515.42 z" fill="rgb(4,3,3)" transform="translate(0,0)"></path>
<path d="M 866.846 1668.97 C 884.689 1660.5 897.447 1657.92 916.856 1657.9 C 920.945 1658.26 925.041 1658.53 929.142 1658.71 C 923.43 1658.93 902.092 1660.53 898.279 1660.37 L 898.685 1661.59 C 905.176 1664.36 926.352 1659.61 931.69 1662.93 C 902.186 1663.57 890.323 1664.55 863.402 1677.59 L 863.523 1676.13 C 872.434 1669.33 885.414 1667.05 895.365 1663.93 L 894.935 1662.62 C 889.711 1660.27 874.913 1668.2 867.474 1670.14 L 866.846 1668.97 z" fill="rgb(4,3,3)" transform="translate(0,0)"></path>



<path d="M 759.846 438.559 C 758.723 434.099 757.941 410.03 759.985 406.937 C 761.214 410.842 761.199 411.305 760.701 415.382 C 759.399 422.75 759.773 431.006 759.846 438.559 z" fill="rgb(101,101,102)" transform="translate(0,0)"></path>
<path d="M 766.345 356.625 L 767.581 364.311 L 768.784 364.86 C 768.966 367.364 768.405 372.905 768.211 375.652 L 766.862 376.359 L 768.122 376.729 L 767.028 377.263 L 767.111 377.684 C 765.481 370.427 766.083 364.048 766.345 356.625 z" fill="rgb(139,138,140)" transform="translate(0,0)"></path>

<path d="M 438.034 186.405 L 439.923 186.881 C 439.902 191.182 439.776 195.88 439.875 200.141 L 438.259 201.531 C 437.627 198.71 437.995 189.793 438.034 186.405 z" fill="rgb(101,101,102)" transform="translate(0,0)"></path>
<path d="M 497.999 494.032 C 494.398 492.749 489.572 491.419 486.745 489.064 C 489.71 488.569 494.741 490.765 497.829 491.819 L 497.999 494.032 z" fill="rgb(139,138,140)" transform="translate(0,0)"></path>






<path d="M 565.906 1499.69 C 592.553 1504.86 617.514 1504.86 640.564 1519.08 C 640.704 1520.69 640.917 1522.18 640.848 1523.78 C 615.639 1507.81 592.537 1514.44 565.906 1499.69 z" fill="rgb(42,43,42)" transform="translate(0,0)"></path>





























<path d="M 670.362 1536.8 L 671.533 1536.27 C 675.341 1536.72 678.072 1536.75 681.529 1538.43 C 677.341 1539.04 674.455 1539.84 670.383 1538.75 L 670.362 1536.8 z" fill="rgb(101,101,102)" transform="translate(0,0)"></path>
<path d="M 1467.68 851.49 C 1486.61 853.024 1527.82 857.602 1543.02 867.743 C 1572.83 887.628 1582.09 930.84 1593.04 962.622 C 1601.57 987.349 1613.58 1015.3 1627.72 1037.38 C 1639.45 1054.36 1654.45 1063.8 1674.62 1066.96 C 1665.18 1061.14 1648.98 1053.24 1642.01 1044.44 C 1612.47 1007.18 1602.28 949.301 1583.72 905.837 C 1577.69 891.723 1568.53 878.685 1560.29 866.367 C 1589.33 879.101 1622.3 883.706 1647.63 901.2 C 1687.47 928.707 1685.71 998.388 1714.04 1035.12 C 1718.88 1041.4 1724.78 1044.86 1731.48 1048.93 C 1702.67 1012.72 1706.33 992.089 1692.17 949.046 C 1688.14 936.815 1682.86 926.671 1676.71 915.511 C 1702.69 932.381 1726.18 947.906 1749.07 969.467 C 1782.65 1001.1 1791.79 1039.61 1840.57 1049.33 C 1836.7 1046.65 1829.57 1043.55 1825.04 1041.4 C 1798.63 1028.87 1787.95 1004.02 1771.01 981.671 C 1745.52 948.054 1715.4 915.874 1679.81 892.573 C 1717.53 883.574 1747.06 896.694 1781.87 904.77 L 1778.73 906.607 L 1774.02 906.277 L 1773.29 907.39 C 1776.14 911.371 1783.26 920.932 1785.11 924.971 C 1791.74 939.421 1795.68 953.658 1802.99 968.099 C 1790.48 965.994 1787.69 964.291 1776.36 958.289 C 1788.44 981.182 1810.94 1022.42 1832.97 1034.62 C 1844.57 1041.04 1855.15 1042.34 1867.54 1051.09 C 1850.56 1052.1 1829.94 1052.39 1813.07 1049.83 L 1807.23 1050.85 C 1811.87 1053.59 1814.94 1056.42 1819.03 1059.87 C 1806.72 1056.28 1791.75 1049.32 1780.66 1046.91 C 1778.44 1049.21 1782.01 1049.79 1781.78 1055.62 C 1779.94 1056.16 1778.85 1056.21 1777.05 1055.12 C 1760.82 1045.38 1748.47 1040.05 1730.29 1034.66 C 1734.13 1041.1 1738.24 1045.39 1740.59 1052.27 C 1735.72 1056.7 1735.79 1050.28 1730.61 1049.44 C 1727.25 1048.89 1715.73 1050.68 1712.24 1051.25 C 1715.25 1053.71 1718.03 1055.09 1719.04 1058.28 L 1716.74 1059.26 C 1705.14 1058.81 1691.14 1053.76 1680.86 1048.39 L 1691.63 1061.04 L 1671.17 1063.46 C 1676.08 1067.25 1681.7 1070.75 1686.91 1074.17 C 1669 1073.5 1658.37 1074.02 1640.54 1070.08 C 1644.35 1073.59 1648.15 1077.12 1651.93 1080.67 C 1643.72 1080.32 1629.73 1077.64 1621.35 1076.27 C 1624.06 1079.62 1627.84 1083.65 1630.76 1086.95 C 1620.88 1083.56 1608.05 1078.87 1599.13 1073.61 C 1600.83 1077.87 1602.56 1082.12 1604.3 1086.35 C 1589.91 1079.86 1581.02 1078.93 1565.57 1076.2 L 1579.29 1092.06 C 1560.12 1084.75 1549.32 1074.56 1533.63 1061.85 C 1537.72 1067.56 1541.19 1073.02 1544.96 1078.95 C 1525.29 1071.08 1512.37 1059.19 1496.53 1045.73 C 1498.45 1051.66 1500.67 1057.76 1502.73 1063.66 C 1491.03 1050.93 1488.39 1050.88 1479.97 1034.96 C 1480.72 1040.95 1480.89 1048.75 1481.19 1054.9 C 1477.51 1050.83 1447.83 1026.5 1443.31 1023.41 C 1447.44 1031.38 1450.04 1037.25 1453.46 1045.58 C 1451.22 1043.37 1422.18 1016.29 1422.27 1016.33 C 1420.27 1020.04 1421.82 1028.08 1422.39 1032.62 C 1405.25 1011.89 1390.16 1001.45 1374.87 983.296 C 1378.41 992.035 1381.38 998.819 1385.57 1007.26 C 1372.48 997.544 1361.33 981.564 1352.07 968.104 C 1353.73 974.008 1354.65 978.226 1355.8 984.245 C 1344.08 972.271 1325.28 944.076 1318.15 928.662 L 1313.4 938.946 C 1300.9 918.054 1295.72 910.164 1279.75 892.515 C 1286.87 887.927 1298.9 878.395 1307.18 881.829 C 1328.47 890.664 1331.6 920.14 1337.63 939.361 C 1341.16 950.624 1343.89 958.838 1348.94 968.873 C 1344.83 945.971 1338.85 918.636 1330.05 897.187 C 1326.84 889.372 1314.02 880.649 1315.99 874.783 C 1323.5 870.443 1340.44 876.592 1347.12 880.978 C 1384.92 905.801 1386.19 956.793 1402.71 994.847 C 1404.98 1000.08 1407.17 1006.48 1411.5 1010.26 L 1412.2 1009.31 C 1395.49 963.487 1400.07 911.382 1360.57 877.653 C 1355.73 873.519 1342.5 868.032 1340.75 864.13 C 1340.94 863.915 1341.14 863.7 1341.33 863.484 C 1348.78 860.109 1373.38 859.646 1381.01 859.744 C 1395.16 859.926 1408.19 866.891 1418.75 875.005 C 1462.29 908.455 1460.8 969.123 1482.07 1015.73 C 1489.01 1030.93 1497.27 1039.6 1508.37 1051.87 C 1501.37 1034.73 1491.18 1020.95 1484.71 1002.54 C 1469.14 958.162 1468.13 903.127 1429.81 870.809 C 1420.7 863.12 1410.6 858.41 1400.09 853.264 C 1427.2 851.542 1444.57 849.276 1468.99 864.071 C 1502.23 883.85 1524.78 918.85 1534.48 955.834 C 1546.86 1003.06 1547.41 1049.93 1593.87 1077.34 C 1587.34 1066.45 1576.26 1055.42 1568.99 1043.27 C 1554.64 1019.28 1552.01 989.262 1545.2 962.395 C 1531.55 908.479 1514.47 880.223 1467.68 851.49 z" fill="rgb(42,43,42)" transform="translate(0,0)"></path>


<path d="M 1094.63 1025.85 C 1110.35 966.828 1168 933.012 1220.12 911.641 C 1225.73 909.34 1241.75 899.208 1246.83 899.741 L 1248.72 900.824 C 1244.54 918.459 1250.43 929.263 1259.5 944.1 C 1292.34 997.829 1317.7 1018.54 1307 1083.8 L 1304.88 1087.36 C 1296.27 1108.99 1306.73 1105.35 1281.25 1118.55 C 1279.39 1125.07 1279.46 1135.2 1277.6 1139.72 L 1276.25 1140.13 C 1274.23 1138.13 1274.56 1138.73 1273.18 1136.36 C 1259.49 1148.44 1254.61 1160.98 1245.28 1175.16 C 1245.22 1161.05 1246.5 1156.65 1236.86 1146.35 C 1238.03 1154.04 1241.01 1177.31 1234.84 1183.2 C 1231.48 1181.62 1231.7 1176.03 1231.42 1172.64 C 1226.82 1178.48 1216.28 1193.06 1210.21 1195.93 C 1208.5 1194.02 1208.52 1193.41 1207.61 1190.96 C 1203.62 1191.66 1194.31 1208.67 1190.44 1213.03 L 1189.23 1213.23 C 1189.34 1208.46 1189.77 1204.71 1188.44 1200.15 L 1187.45 1199.43 C 1184.51 1205.4 1168.05 1229.7 1160.41 1223.97 C 1158.65 1222.86 1157.65 1222.42 1155.78 1221.51 C 1148.52 1226.35 1135.1 1256.96 1124.17 1252.53 C 1119.15 1245.85 1115.54 1201.63 1115.75 1191.58 C 1114.06 1194.73 1112.85 1198.13 1109.75 1199.53 C 1095.36 1194.31 1099.52 1143.26 1100.81 1130.8 C 1097.46 1138.91 1094.24 1148.14 1091.14 1156.43 C 1073.75 1122.71 1090.93 1104.52 1095.37 1072.07 C 1089.92 1080.48 1087.25 1085.44 1083.36 1094.58 C 1082.07 1072.12 1085.51 1048.5 1091.35 1026.88 C 1092.28 1019.66 1092.87 1012.14 1093.63 1004.86 L 1094.63 1012.3 C 1094.23 1015.96 1092.95 1022.74 1094.07 1025.7 L 1094.63 1025.85 z" fill="rgb(42,43,42)" transform="translate(0,0)"></path>
<path d="M 1242.79 942.303 C 1243.88 943.298 1244.94 944.327 1245.96 945.389 C 1263.89 964.034 1300.22 1022.74 1303.89 1048.96 C 1305.47 1060.21 1305.11 1075.6 1304.88 1087.36 C 1296.27 1108.99 1306.73 1105.35 1281.25 1118.55 C 1279.39 1125.07 1279.46 1135.2 1277.6 1139.72 L 1276.25 1140.13 C 1274.23 1138.13 1274.56 1138.73 1273.18 1136.36 C 1259.49 1148.44 1254.61 1160.98 1245.28 1175.16 C 1245.22 1161.05 1246.5 1156.65 1236.86 1146.35 C 1238.03 1154.04 1241.01 1177.31 1234.84 1183.2 C 1231.48 1181.62 1231.7 1176.03 1231.42 1172.64 C 1226.82 1178.48 1216.28 1193.06 1210.21 1195.93 C 1208.5 1194.02 1208.52 1193.41 1207.61 1190.96 C 1203.62 1191.66 1194.31 1208.67 1190.44 1213.03 L 1189.23 1213.23 C 1189.34 1208.46 1189.77 1204.71 1188.44 1200.15 L 1187.45 1199.43 C 1184.51 1205.4 1168.05 1229.7 1160.41 1223.97 C 1175.49 1214.81 1176.58 1199.07 1180.02 1183.05 C 1182.12 1173.28 1183.22 1162.55 1184.13 1152.63 C 1185.18 1145.47 1183.16 1130.19 1185.61 1124 C 1191.65 1108.81 1198.86 1093.5 1204.55 1078 C 1205.98 1080.14 1207.29 1082.37 1208.47 1084.66 C 1225.94 1117.98 1227.9 1146.78 1216.96 1182.04 C 1245.6 1145.51 1227.16 1099.28 1208.37 1063.6 C 1214.84 1041.34 1220.9 1018.97 1226.54 996.482 C 1243.26 1027.29 1261.41 1066.49 1264.98 1101.22 C 1265.61 1107.35 1264.3 1131.78 1265.97 1134.43 C 1271.02 1129.14 1270.67 1112.49 1270.99 1105.33 C 1273.1 1058.97 1249.9 1023.42 1231.35 983.033 C 1235.02 969.21 1239.29 956.716 1242.79 942.303 z" fill="rgb(42,43,42)" transform="translate(0,0)"></path>

<path d="M 1093.63 1004.86 L 1094.63 1012.3 C 1094.23 1015.96 1092.95 1022.74 1094.07 1025.7 L 1094.63 1025.85 C 1093.9 1029.59 1093.2 1033.51 1092.24 1037.19 L 1091.18 1036.02 C 1091.49 1033.01 1091.75 1029.89 1091.35 1026.88 C 1092.28 1019.66 1092.87 1012.14 1093.63 1004.86 z" fill="rgb(139,138,140)" transform="translate(0,0)"></path>
<path d="M 789.205 1624.68 C 793.922 1643.53 800.617 1698.71 766.463 1699.03 C 765.752 1699.09 765.042 1699.15 764.332 1699.21 L 763.302 1700.68 L 764.32 1701.16 C 775.189 1706.34 774.666 1718.65 769.783 1728.13 C 766.468 1734.57 760.677 1739.38 753.742 1741.46 C 750.249 1742.53 748.289 1742.44 744.643 1742.01 C 748.888 1755.08 751.746 1766.92 745 1779.79 C 738.033 1793.08 723.911 1799.73 710.173 1792.91 C 711.12 1797.05 713.502 1800.93 714.581 1805.09 C 719.737 1824.98 715.045 1846.89 692.031 1851.06 C 677.541 1853.69 673.585 1845.77 664.075 1836.42 C 667.157 1842.77 672.771 1851.59 669.913 1858.72 C 664.155 1873.1 645.489 1882.94 630.81 1875.77 C 619.813 1870.4 618.408 1860.86 615.778 1850.18 C 611.92 1857.88 609.324 1861.71 600.993 1864.73 C 587.074 1869.77 571.213 1859.58 567.536 1845.84 C 566.39 1841.56 567.009 1835.32 567.283 1830.93 C 564.077 1838.34 561.466 1845.75 553.207 1848.59 C 527.818 1857.3 512.005 1825.9 517.736 1805.33 C 508.633 1796.48 500.297 1785.58 499.841 1772.29 C 499.638 1766.39 502.778 1759.05 504.203 1752.73 C 501.843 1750.45 500.812 1750.13 497.925 1748.72 L 498.881 1747.07 C 472.424 1725.56 485.79 1694.32 510.513 1678.43 C 515.096 1677.59 516.359 1678.17 521.076 1679.14 C 522.801 1679.6 524.339 1678.51 525.829 1677.7 L 525.384 1679.1 L 526.432 1679.01 L 527.348 1675.02 C 530.226 1705.07 553.786 1721.93 580.488 1702.71 C 584.141 1730.98 611.933 1733.97 631.275 1718.04 C 633.709 1726.95 638.254 1734.08 646.391 1738.88 C 653.132 1742.86 661.199 1743.93 668.745 1741.85 C 690.08 1736.14 694.334 1718.15 693.745 1698.92 C 704.414 1704.78 711.758 1707.91 724.725 1703.94 C 736.564 1700.31 742.286 1693.5 748.191 1683.58 C 754.399 1673.16 752.251 1661.55 754.766 1656.1 C 774.483 1663.59 785.477 1640.28 789.205 1624.68 z" fill="rgb(42,43,42)" transform="translate(0,0)"></path>








<path d="M 576.58 147.626 C 590.44 152.348 592.303 165.808 598.438 169.437 C 601.303 168.595 602.144 167.95 604.875 168.953 C 610.111 173.96 610.551 181.471 611.929 188.695 C 613.609 181.327 615.344 173.971 617.133 166.629 C 617.831 167.266 618.517 167.917 619.19 168.581 C 632.967 182.207 637.045 194.336 637.38 212.88 C 642.259 208.544 643.986 207.448 646.031 200.887 L 647.566 201.019 C 658.303 209.66 667.568 244.119 671.972 257.617 C 673.931 250.801 675.337 246.894 678.032 240.321 C 687.251 253.186 687.27 269.373 691.72 285.066 C 693.509 281.653 697.861 269.758 698.561 268.893 L 700.074 269.711 C 703.55 276.091 702.961 286.972 703.617 294.349 C 710.335 369.888 636.454 418.261 634.957 492.81 C 614.484 467.266 605.771 453.948 588.331 426.324 C 589.548 409.038 588.027 401.473 591.122 382.147 C 601.227 321.786 651.169 271.3 645.548 207.84 C 640.236 231.793 639.783 241.083 629.989 265.628 C 615.784 301.227 593.385 332.737 582.32 368.831 C 578.592 380.989 577.243 395.951 576.004 408.672 C 569.151 395.962 544.786 350.146 542.273 336.933 C 533.61 291.384 563.085 230.967 572.375 185.902 C 575.427 171.094 574.456 159.383 576.58 147.626 z" fill="rgb(42,43,42)" transform="translate(0,0)"></path>
<path d="M 1027.46 322.731 C 1033.56 334.113 1022.46 368.386 1018.77 380.144 L 1030.63 367.54 C 1030.73 383.344 1032.46 390.454 1034.86 405.325 C 1037.92 424.255 1020.57 450.402 1010.15 466.114 C 1017.9 459.803 1022.71 454.331 1029.37 446.919 C 1034.23 479.926 1014.31 503.595 988.921 521.425 C 1000.34 519.443 1002.03 518.406 1012.03 512.526 C 1007.56 521.681 991.172 546.191 983.313 552.198 C 978.844 551.29 978.737 550.467 973.974 551.318 C 919.594 561.037 877.569 545.522 827.392 576.258 C 816.652 463.501 993.116 549.83 1016.89 467.749 C 993.003 491.467 984.429 498.693 949.5 501.44 C 943.01 502.207 932.038 502.181 925.267 502.413 C 887.98 503.692 864.534 502.616 831.326 521.218 C 834.103 495.876 840.537 479.11 858.012 461.455 C 892.292 426.822 919.541 432.324 964.089 433.306 C 987.183 433.559 1007.97 426.497 1024.27 409.777 C 1027.81 406.145 1032.08 396.808 1027.51 393.103 C 1021.59 395.032 1013.8 406.975 1008.06 411.101 C 973.047 436.25 930.305 413.558 892.122 429.848 C 875.121 437.101 865.333 442.344 849.636 451.956 C 856.64 432.451 866.681 411.917 877.876 394.582 C 899.344 361.341 944.63 358.953 979.847 352.528 C 1002.74 348.351 1014.14 342.264 1027.46 322.731 z" fill="rgb(42,43,42)" transform="translate(0,0)"></path>
<path d="M 1402.3 834.877 C 1412.57 826.272 1423.92 815.703 1433.77 806.5 C 1474.94 768.02 1515.63 754.583 1571.67 754.353 C 1567.27 756.847 1558.79 761.116 1556.28 764.979 C 1563.51 770.668 1602.2 775.239 1612.4 777.03 C 1637.71 781.474 1660.19 788.98 1683.78 798.9 C 1678.03 800.076 1671.73 801.228 1666.06 802.545 C 1675 808.719 1684.04 814.571 1694.06 818.69 C 1707.58 824.248 1721.34 827.515 1733.23 836.272 C 1737.47 839.394 1742.78 842.356 1747.56 844.637 C 1741.72 845.891 1735.86 847.102 1730 848.27 C 1740.5 857.131 1790.99 899.062 1793.41 908.36 L 1792.22 909.261 L 1788.2 908.498 C 1784.94 908.069 1781.93 907.318 1778.73 906.607 L 1781.87 904.77 L 1783.07 904.68 C 1781.03 900.989 1774.22 898.32 1770.22 896.609 C 1740.72 883.987 1713.52 882.248 1681.94 882.557 C 1672.83 881.538 1653.68 882.723 1645.49 879.729 C 1622.85 871.459 1599.22 862.288 1576.36 854.767 C 1619.56 836.24 1663.58 833.06 1709.8 838.259 C 1713.39 838.242 1715.19 838.647 1718.05 836.557 C 1659.93 821.201 1613.71 828.127 1559.03 849.36 C 1532.68 842.652 1507.81 835.246 1480.51 833.727 C 1528.96 798.744 1556.01 804.024 1607.99 788.387 C 1554.74 787.611 1509.19 802.165 1464.69 830.763 C 1443.38 830.984 1423.46 831.687 1402.3 834.877 z" fill="rgb(42,43,42)" transform="translate(0,0)"></path>

<path d="M 1783.07 904.68 C 1786.2 904.644 1786.97 905.607 1789.53 907.449 L 1788.2 908.498 C 1784.94 908.069 1781.93 907.318 1778.73 906.607 L 1781.87 904.77 L 1783.07 904.68 z" fill="rgb(42,43,42)" transform="translate(0,0)"></path>
<path d="M 355.738 557.365 C 394.503 554.623 458.265 590.203 488.512 614.642 C 455.312 615.544 433.727 631.207 405.825 634.078 C 366.965 638.075 307.933 606.532 271.135 632.324 C 309.243 623.923 340.343 635.994 377.93 643.329 C 321.427 668.79 236.875 713.598 200.188 765.118 C 222.439 747.963 245.236 731.527 268.544 715.838 C 289.809 702.299 309.749 691.211 331.796 679.142 C 321.748 696.556 314.577 715.591 306.7 734.204 C 298.669 753.181 282.76 766.051 262.433 769.595 C 260.094 770.002 260.467 770.304 258.816 769.114 C 259.819 766.897 259.588 767.631 260.028 765.118 L 258.799 764.579 L 248.745 770.666 C 244.579 773.154 243.283 773.861 238.998 772.776 L 238.008 771.075 C 239.704 766.801 245.915 763.304 249.938 760.516 C 219.7 763.689 213.806 759.187 188.184 778.392 C 191.415 763.256 200.149 744.764 208.723 731.919 C 213.831 724.267 219.601 718.547 224.175 710.084 C 234.767 705.421 244.448 701.991 255.322 698.108 C 250.132 698.386 245.442 699.116 240.61 697.485 L 240.003 696.043 C 244.85 691.911 253.31 690.229 259.501 688.759 C 248.95 687.528 240.047 685.414 229.832 682.7 C 235.857 678.194 240.739 673.138 246.54 668.424 C 258.645 658.586 270.995 653.706 285.594 648.889 C 276.151 647.073 270.288 645.15 261.485 641.566 C 264.691 634.859 270.083 627.277 274.952 621.655 C 280.93 614.752 293.012 611.664 299.368 605.393 C 295.783 602.517 288.827 604.505 283.171 601.074 C 283.186 595.397 292.814 592.507 297.13 590.438 C 313.998 582.355 326.127 579.959 344.69 580.148 C 339.191 577.547 322.502 572.762 320.651 570.231 L 321.447 568.193 C 328.79 562.882 346.672 558.265 355.738 557.365 z" fill="rgb(42,43,42)" transform="translate(0,0)"></path>

<path d="M 1410.43 633.691 C 1414.04 637.028 1406.92 651.405 1408.45 657.751 C 1409.91 656.76 1411 656.088 1412.52 655.208 L 1413.83 656.737 C 1416.93 672.413 1410.63 679.883 1408.01 694.407 C 1410.49 694.013 1411.82 693.641 1414.21 693.022 L 1415.58 693.844 C 1415.6 694.094 1407.2 718.131 1406.68 719.102 C 1401.26 729.211 1390.93 737.116 1383.37 746.151 L 1400.37 741.206 C 1390.68 748.486 1375.37 755.52 1368.9 761.48 L 1369.01 762.556 C 1371.8 762.97 1373.86 763.326 1376.6 763.919 L 1376.83 765.456 C 1369.59 774.072 1360.17 772.184 1351.22 778.502 L 1351.32 779.592 L 1356.19 780.343 L 1356.61 781.266 C 1347.4 787.014 1339.39 788.769 1329.09 791.613 C 1329.49 792.353 1329.89 793.09 1330.3 793.826 C 1327.91 796.946 1324.11 797.589 1320.72 799.221 C 1286.08 815.888 1240.21 797.176 1216.42 834.938 C 1213.6 839.419 1211.39 844.237 1208.92 848.796 C 1210.89 838.532 1213.79 825.479 1220.46 817.324 C 1233.65 801.185 1258.02 795.408 1277.98 795.385 C 1290.45 795.371 1301.5 797.265 1313.89 795.644 L 1315.53 795.419 C 1292.43 788.692 1274.12 787.611 1250.81 792.594 C 1241.13 796.076 1236.02 798.826 1226.95 803.584 C 1231.26 793.995 1240.97 770.742 1247.44 764.294 C 1290.68 721.205 1359.46 759.717 1402 716.464 C 1346.77 745.902 1301.58 712.036 1249.35 754.096 C 1252.26 742.911 1262.12 710.797 1268.34 702.981 C 1297.7 666.094 1347.49 674.457 1385.01 655.455 C 1395.03 650.382 1403.15 641.623 1410.43 633.691 z" fill="rgb(42,43,42)" transform="translate(0,0)"></path>
<path d="M 971.231 1017.65 C 1033.37 1011.9 1048.08 925.004 1090.44 890.766 C 1099.85 883.161 1138.87 882.952 1150.83 883.832 C 1136.55 898.282 1129.6 906.016 1118.75 923.866 C 1105.79 945.17 1092.24 978.865 1074 995.273 C 1058.58 1009.13 1032.54 1021.86 1014.49 1032.87 L 1017.35 1020.28 C 1012.15 1023.32 1006.46 1027 1000.77 1028.73 C 996.594 1029.06 996.439 1031.46 992.658 1031.07 C 992.284 1027.48 994.469 1023.97 996.043 1020.28 C 988.064 1019.48 970.271 1022.46 961.643 1023.67 C 962.882 1021.05 964.642 1018.41 964.209 1015.76 C 961.074 1014.53 960.694 1015.28 956.729 1015.99 C 953.535 1016.57 950.796 1017.48 947.808 1016.49 C 948.411 1013.86 949.304 1014.07 952.227 1011.98 C 942.924 1013.48 933.665 1015.26 924.463 1017.29 L 925.323 1013.56 C 953.39 1004.19 969.79 953.277 980.353 927.255 C 1010.12 904.482 1040.24 897.5 1076.42 890.882 C 1067.91 902.229 1054.47 919.491 1047.11 931.122 C 1021.97 970.842 1015.74 997.706 971.231 1017.65 z" fill="rgb(42,43,42)" transform="translate(0,0)"></path>
<path d="M 952.227 1011.98 C 955.235 1011.51 958.793 1010.36 961.014 1011.53 C 958.816 1014.54 958.468 1013.34 956.729 1015.99 C 953.535 1016.57 950.796 1017.48 947.808 1016.49 C 948.411 1013.86 949.304 1014.07 952.227 1011.98 z" fill="rgb(59,60,54)" transform="translate(0,0)"></path>
<path d="M 996.043 1020.28 C 998.426 1023.95 998.496 1023.91 999.762 1028.03 L 1000.77 1028.73 C 996.594 1029.06 996.439 1031.46 992.658 1031.07 C 992.284 1027.48 994.469 1023.97 996.043 1020.28 z" fill="rgb(59,60,54)" transform="translate(0,0)"></path>
<path d="M 1413.62 502.981 L 1415.39 503.972 C 1417.5 514.237 1389.7 558.037 1377.97 564.661 C 1360.82 574.348 1343.19 585.277 1326.59 596.065 C 1341.81 557.074 1363.07 538.939 1399.09 520.444 L 1397.56 520.786 C 1373.81 526.166 1352.83 541.345 1336.62 559.212 C 1317.56 580.228 1313.27 606.173 1296.74 628.11 C 1292.18 634.16 1288.03 640.907 1283.98 647.335 C 1276.45 608.455 1282.2 593.696 1298.62 559.093 C 1263.73 594.838 1265.57 624.617 1268.3 666.61 C 1268.66 672.115 1246.01 722.579 1241.45 730.512 C 1235.75 711.561 1228.39 680.733 1229.52 661.745 C 1230.71 648.348 1235.83 633.05 1238.43 619.109 C 1222.2 654.461 1219.33 681.691 1225.95 720.317 C 1227.42 728.87 1231.77 748.936 1230.82 756.291 C 1228.94 770.998 1220.36 789.787 1215.82 805.153 C 1211.85 792.925 1192.2 726.424 1197.29 718.022 C 1199.77 720.033 1198.95 719.76 1201.77 720.816 C 1202.59 717.364 1200.44 691.118 1200.4 684.83 L 1201.69 684.218 L 1205.21 687.771 C 1207.55 684.586 1201.99 660.967 1208.9 654.946 C 1210.97 657.21 1210.31 657.325 1212.52 657.927 C 1216.52 644.173 1218.43 628.994 1222.5 614.536 C 1223.54 619.24 1224.62 622.784 1226.03 627.346 C 1226.61 624.112 1227.31 620.9 1228.12 617.716 C 1229.26 613.069 1230.06 606.736 1233.94 604.375 C 1236.4 607.016 1235.85 608.193 1236.67 612.461 C 1239.46 606.942 1254.69 580.368 1259.72 579.804 C 1259.84 582.213 1259.99 584.62 1260.18 587.025 C 1260.37 586.948 1279.09 555.279 1283.33 550.564 C 1284.61 553.026 1283.87 558.635 1283.71 561.694 C 1288.58 557.253 1302.39 543.965 1307.85 543.128 C 1308.55 546.008 1306.85 551.673 1306.14 554.858 C 1321.11 538.288 1332.97 530.38 1351.87 519.146 L 1344.9 533.604 C 1349.83 529.13 1375.68 510.136 1381.36 512.403 C 1380.2 514.958 1379.21 515.779 1379.77 517.85 C 1384.25 516.671 1407.58 505.69 1413.62 502.981 z" fill="rgb(42,43,42)" transform="translate(0,0)"></path>
<path d="M 473.534 629.501 L 474.637 629.536 C 474.151 631.272 458.43 643.619 454.878 647.143 C 446.614 655.404 439.345 664.604 433.22 674.556 C 425.156 687.472 418.803 701.585 414.413 715.756 C 404.414 748.039 399.188 783.475 365.979 800.613 C 355.779 805.876 336.1 814.502 324.673 813.848 C 320.606 813.615 315.037 811.911 311.025 810.726 C 316.533 807.633 328.445 801.635 331.689 796.559 L 330.937 795.508 C 320.697 798.29 295.093 796.039 286.618 789.844 L 286.507 788.33 C 291.072 787.42 300.255 786.389 302.201 781.885 C 295.677 780.363 261.79 790.198 254.124 780.498 C 254.865 777.521 257.723 777.615 260.853 777.042 C 312.833 767.52 318.671 721.167 347.41 686.181 C 368.119 660.971 413.546 640.931 444.771 632.672 C 452.371 630.662 465.038 630.113 473.534 629.501 z" fill="rgb(42,43,42)" transform="translate(0,0)"></path>
<path d="M 448.564 516.234 C 458.7 517.328 467.58 515.468 477.04 516.492 C 505.914 519.615 523.943 527.157 547.43 542.141 C 543.576 537.813 535.612 532.069 534.573 527.663 L 535.851 526.293 L 540.183 526.225 C 560.109 534.285 574.759 542.411 592.811 553.776 C 599.1 559.314 612.968 566.81 620.302 573.118 C 634.843 585.627 646.583 600.041 659.357 614.256 C 642.905 609.772 628.771 608.265 611.998 607.44 C 571.859 571.623 548.618 550.733 498.462 528.795 L 497.718 529.948 C 526.822 547.94 567.69 577.488 586.885 605.741 C 563.561 605.741 537.516 608.329 514.771 607.329 C 498.962 606.634 473.603 590.013 459.67 582.69 C 447.447 576.265 436.934 570.966 423.349 566.176 C 411.765 562.111 399.922 558.829 387.898 556.35 C 375.17 553.845 361.884 552.358 349.805 547.897 C 383.255 538.188 399.373 536.942 431.52 547.068 C 425.307 542.035 412.845 535.189 410.712 528.449 C 413.431 515.769 459.256 525.677 469.667 527.701 C 462.727 524.211 455.415 520.002 448.564 516.234 z" fill="rgb(42,43,42)" transform="translate(0,0)"></path>
<path d="M 497.718 529.948 C 494.859 528.739 488.586 526.503 487.085 524.124 C 490.901 523.815 495.24 526.783 498.462 528.795 L 497.718 529.948 z" fill="rgb(101,101,102)" transform="translate(0,0)"></path>
<path d="M 1029.55 181.955 L 1030.47 183.964 C 1028.64 210.413 1011.01 243.006 996.258 264.407 C 1003.63 260.2 1011.31 255.72 1017.74 250.206 C 1020.67 262.416 1024.96 275.992 1020.52 288.787 C 1019.7 291.172 1019.84 289.75 1019.13 292.883 C 1022.49 291.305 1025.18 287.497 1027.85 284.503 C 1030.76 351.598 973.937 343.248 926.897 355.117 C 915.196 358.069 906.599 360.45 895.271 364.855 C 902.375 347.673 916.631 324.021 930.441 311.423 C 951.827 291.914 986.59 290.439 1008.24 271.194 C 1011.09 268.664 1014.97 262.538 1017.21 259.227 L 1006.37 268.122 C 990.058 278.443 959.904 286.319 940.448 293.004 C 957.7 267.124 983.417 242.783 1002.44 217.67 C 1008.51 209.654 1015.74 202.6 1021.45 194.118 C 986.238 219.72 959.88 251.912 932.407 284.551 C 932.584 263.35 931.09 228.801 947.764 211.962 C 954.393 205.267 969.609 198.565 978.476 194.178 L 972.744 207.577 C 984.426 199.56 1014.23 189.105 1029.55 181.955 z" fill="rgb(42,43,42)" transform="translate(0,0)"></path>
<path d="M 830.186 296.137 C 833.428 283.437 838.119 253.043 855.476 255.989 C 862.494 251.497 869.31 236.738 877.035 233.961 C 882.162 240.25 874.972 254.403 872.726 262.002 C 868.24 276.684 865.113 291.747 863.385 307.002 C 862.437 315.482 862.057 324.015 862.246 332.546 C 862.523 342.609 865.52 376.665 862.663 384.146 C 853.933 407.006 840.937 426.844 834.013 451.257 L 831.046 451.513 C 827.485 414.42 816.773 402.678 805.685 369.752 C 796.121 341.349 800.117 303.284 820.094 279.946 C 821.934 277.797 823.099 276.172 825.907 275.303 C 830.132 277.665 829.458 290.805 830.186 296.137 z" fill="rgb(42,43,42)" transform="translate(0,0)"></path>
<path d="M 711.113 309.446 L 713.686 311.677 C 720.321 328.318 717.967 347.522 715.219 364.461 C 719.129 362.815 722.217 355.057 727.985 351.834 L 729.428 352.565 C 732.464 364.116 719.689 392.679 717.501 406.902 L 717.289 408.328 C 721.369 399.225 723.469 391.496 728.5 382.654 C 732.399 397.525 730.749 406.26 725.414 420.413 C 714.236 450.058 694.672 474.771 682.015 503.62 C 675.743 518.096 671.957 527.062 670.801 542.696 C 664.101 534.401 650.682 519.088 648.584 509.262 C 637.018 455.114 676.116 409.29 696.433 362.738 C 703.221 347.186 704.616 321.161 711.113 309.446 z" fill="rgb(42,43,42)" transform="translate(0,0)"></path>
<path d="M 1404.13 541.137 L 1406.65 544.554 C 1405.11 552.841 1400.95 573.888 1402.67 581.173 C 1404.96 580.018 1404.77 580.01 1407.32 580.097 C 1407.89 580.693 1408.66 581.395 1408.73 582.055 C 1409.56 590.418 1408.71 623.864 1405.11 629.634 C 1389.77 654.186 1346.97 657.761 1321.82 664.311 C 1307.11 668.14 1297.67 671.47 1284.68 676.385 C 1296.8 643.944 1303.52 631.546 1328.05 606.551 C 1354.36 579.753 1391.86 576.467 1404.13 541.137 z" fill="rgb(42,43,42)" transform="translate(0,0)"></path>
<path d="M 1170.81 1761.72 C 1183.31 1743.2 1187.11 1722.26 1172.19 1703.41 C 1168.74 1699.05 1162.94 1694.85 1160.92 1689.82 L 1161.71 1688.66 C 1188.16 1689.71 1209.82 1731.5 1187.77 1752 C 1184.42 1755.12 1181.91 1753.53 1178.9 1758.3 C 1179.43 1762.25 1182.84 1765.52 1185.46 1768.75 C 1185.9 1765.4 1186.15 1764.29 1187.02 1761.01 C 1191.95 1756.77 1200.1 1762.84 1203.1 1766.95 C 1220.76 1791.11 1211.94 1809.84 1190.08 1823.48 L 1190.5 1824.19 L 1188.81 1823.98 C 1189.36 1825.29 1189.91 1826.61 1190.44 1827.93 C 1199.41 1850.19 1196.04 1867.17 1172.44 1876.45 C 1165.31 1929.57 1138.85 1910.15 1127.88 1922.31 C 1121.69 1929.17 1127.46 1942.91 1113.74 1954.3 C 1107.68 1959.32 1099.82 1961.38 1092.05 1960.49 C 1082.15 1959.37 1074.85 1954.37 1068.8 1946.73 C 1084.64 1938.72 1090.46 1929.94 1094.14 1912.96 C 1098.83 1917.35 1102.47 1919.38 1108.83 1920.91 C 1116.33 1922.79 1124.27 1921.43 1130.7 1917.15 C 1144.12 1908.32 1148.78 1893.1 1151.43 1878.34 C 1176.98 1875.61 1184.46 1861.77 1183.14 1837.09 C 1182.7 1828.85 1182.44 1822.98 1177.46 1816.04 L 1175.9 1815.85 C 1172.58 1820.85 1176.16 1831.81 1176.68 1837.87 C 1177.97 1853.11 1172.51 1869.3 1154.7 1868.98 C 1149.22 1868.88 1145.19 1855.93 1140.7 1850.6 C 1147.13 1841.77 1150.6 1836.23 1153.64 1825.81 C 1188.21 1815.6 1190.05 1788.53 1170.81 1761.72 z" fill="rgb(42,43,42)" transform="translate(0,0)"></path>

<path d="M 516.184 110.511 C 525.502 114.144 534.176 143.673 536.81 153.25 C 538.385 144.821 539.905 138.044 542.062 129.744 C 556.38 141.033 560.744 152.69 563.047 169.814 C 564.416 165.642 566.787 157.171 569.876 154.588 C 577.596 165.79 549.499 239.745 543.985 254.665 C 536.207 275.763 532.622 286.999 528.766 309.096 C 520.956 286.087 509.658 250.675 508.301 226.85 C 507.264 208.642 513.957 183.991 516.171 165.349 C 518.542 145.386 517.333 130.427 516.184 110.511 z" fill="rgb(42,43,42)" transform="translate(0,0)"></path>
<path d="M 1079.98 838.727 C 1072.04 835.159 1063.1 834.441 1057.13 830.696 L 1056.89 829.335 C 1064.71 824.958 1085.58 826.623 1094.84 827.131 L 1095.6 830.46 C 1098.47 832.682 1123.55 841.963 1129.17 844.881 C 1142.56 851.829 1153.98 859.136 1166.81 866.955 C 1146.75 866.147 1127.17 868.119 1107.68 867.297 C 1091.51 866.615 1034.59 838.832 1020.84 847.017 C 1023.32 848.587 1041.25 852.958 1045.98 854.615 C 1061.91 860.205 1077.25 865.264 1092.34 873.068 C 1072.86 877.333 1053.53 882.222 1034.36 887.728 C 1033.52 887.402 1032.68 887.081 1031.84 886.764 C 1013.2 879.776 981.512 872.577 962.463 881.034 C 956.439 883.709 950.749 889.307 943.576 892.582 C 944.961 886.557 976.859 866.183 983.581 862.878 C 987.982 860.714 1002.69 855.911 1003.49 852.018 C 999.56 850.754 987.518 850.718 982.547 850.477 C 998.405 840.274 1013.66 843.66 1032.21 841.513 C 1028.36 840.687 1025.37 840.296 1021.87 838.515 C 1029.78 832.072 1067.72 838.706 1078.62 838.733 L 1079.98 838.727 z" fill="rgb(42,43,42)" transform="translate(0,0)"></path>
<path d="M 928.122 204.961 L 929.06 206.492 C 928.725 210.82 926.399 215.519 924.707 219.658 C 929.304 218.245 934.409 217.047 939.1 215.845 C 927.133 238.324 924.149 254.607 922.442 279.694 C 921.857 288.282 920.805 299.99 918.348 308.063 C 900.608 324.786 891.48 337.205 878.842 357.494 L 872.702 367.524 C 865.554 330.635 866.853 288.846 879.034 253.181 C 884.277 237.832 890.468 234.165 902.507 224.339 C 910.825 217.551 918.419 209.885 928.122 204.961 z" fill="rgb(42,43,42)" transform="translate(0,0)"></path>
<path d="M 458.338 148.506 C 465.341 164.58 472.567 180.558 480.011 196.433 C 484.68 206.228 491.93 220.191 495.773 229.905 C 498.055 235.672 501.162 251.937 502.752 258.987 L 513.373 303.971 C 504.998 291.843 495.545 283.935 485.838 273.116 C 466.079 251.094 449.026 228.476 439.875 200.141 C 439.776 195.88 439.902 191.182 439.923 186.881 C 439.704 179.401 443.65 162.587 447.719 156.304 L 449.578 155.529 C 453.317 158.099 455.699 164.025 457.998 168.354 C 458.093 161.819 458.092 155.011 458.338 148.506 z" fill="rgb(42,43,42)" transform="translate(0,0)"></path>
<path d="M 974.658 558.339 C 976.167 557.857 975.301 557.972 977.277 558.28 C 972.052 569.577 936.702 576.037 925.219 577.03 C 896.715 597.629 874.381 591.902 848.56 612.111 C 846.836 613.461 839.472 624.002 837.738 626.502 L 836.293 625.759 C 830.714 612.905 823.814 597.259 834.224 584.781 C 856.176 558.47 900.059 563.855 930.625 562.821 C 945.391 562.381 960.106 560.883 974.658 558.339 z" fill="rgb(42,43,42)" transform="translate(0,0)"></path>
<path d="M 993.815 1772.88 C 1003.56 1779.02 1017.73 1783.78 1028.73 1787.82 C 1029.64 1792.16 1031.95 1796.42 1033.86 1800.45 C 1042.76 1819.24 1043.86 1836.94 1024.12 1848.51 C 1023 1848.79 1021.86 1849.04 1020.71 1849.25 C 990.536 1854.67 982.091 1828.45 978.066 1804.78 C 986.386 1795.86 992.102 1784.99 993.815 1772.88 z" fill="rgb(42,43,42)" transform="translate(0,0)"></path>
<path d="M 489.986 80.8395 C 494.404 84.0112 496.048 87.5194 499.311 91.4988 C 527.119 125.418 509.013 164.991 502.805 204.953 C 499.067 189.35 494.369 166.259 493.268 150.484 C 491.677 127.679 497.354 111.906 489.199 89.1769 C 489.147 93.4607 489.487 98.5116 489.666 102.852 C 488.383 150.404 482.014 158.438 494.868 207.798 C 482.621 187.591 471.092 165.032 463.192 142.806 C 469.545 126.208 480.758 94.0768 489.986 80.8395 z" fill="rgb(42,43,42)" transform="translate(0,0)"></path>
<path d="M 1093.63 1004.86 L 1093.19 1002.75 C 1082.23 1003.78 1046.47 1026.49 1039.63 1025.75 L 1038.98 1024.01 C 1041.98 1018.76 1070.2 1007.83 1078.12 1000.86 C 1086.12 994.632 1091.42 987.109 1097.78 979.221 C 1122.1 949.063 1131.12 898.104 1171.05 883.483 C 1178.34 880.811 1187.85 882.079 1194.27 886.429 L 1194.56 888.025 C 1186.28 895.145 1167.22 906.717 1164.27 916.386 C 1157.83 937.419 1149.8 939.077 1134.17 953.125 C 1118.15 967.528 1101.33 991.185 1094.63 1012.3 L 1093.63 1004.86 z" fill="rgb(42,43,42)" transform="translate(0,0)"></path>
<path d="M 1044.83 1816.01 C 1059.74 1826.89 1065.26 1827.42 1083.01 1826.97 C 1093.9 1845.78 1098.35 1873.52 1073.11 1882.3 C 1043.83 1886.66 1042.53 1874.57 1027.38 1856.57 L 1026.73 1855.82 C 1044.06 1843.57 1045.65 1836.36 1044.83 1816.01 z" fill="rgb(42,43,42)" transform="translate(0,0)"></path>
<path d="M 924.204 964.853 C 920.375 967.364 916.405 970.863 911.805 969.585 L 911.518 967.324 C 914.76 958.622 920.476 953.067 926.697 946.322 L 926.609 945.349 L 919.843 948.452 C 919.738 947.808 919.498 946.786 919.816 946.195 C 932.192 923.21 952.116 915.449 976.88 921.175 C 965.441 926.117 957.93 932.909 947.037 938.687 C 942.771 940.95 932.918 943.618 930.856 947.095 C 934.039 948.598 942.245 947.652 946.358 947.488 L 947.616 948.947 L 948.209 951.603 C 953.536 945.515 957.329 942.032 963.544 936.727 C 957.572 962.084 949.746 990.302 929.602 1008.5 L 925.371 1007.16 C 924.712 1006.48 924.054 1005.8 923.395 1005.12 C 917.925 1006.08 910.208 1008.82 904.908 1008.24 L 904.878 1006.81 L 908.445 1004.21 L 905.843 1002.25 C 906.269 991.75 918.295 974.563 924.204 964.853 z" fill="rgb(42,43,42)" transform="translate(0,0)"></path>
<path d="M 963.544 936.727 C 957.572 962.084 949.746 990.302 929.602 1008.5 L 925.371 1007.16 C 924.712 1006.48 924.054 1005.8 923.395 1005.12 C 917.925 1006.08 910.208 1008.82 904.908 1008.24 L 904.878 1006.81 L 908.445 1004.21 C 912.523 1001.09 915.226 996.332 917.996 992.032 C 927.137 977.838 937.753 964.856 948.209 951.603 C 953.536 945.515 957.329 942.032 963.544 936.727 z" fill="rgb(42,43,42)" transform="translate(0,0)"></path>

<path d="M 1100.39 1851.4 C 1112.61 1859.43 1121.3 1860.51 1134.77 1854.87 C 1148.26 1875.37 1146.46 1894.07 1127.93 1910.25 C 1103.15 1923.54 1094.81 1905.41 1083.68 1887.44 C 1096.62 1876.3 1098.11 1867.62 1100.39 1851.4 z" fill="rgb(42,43,42)" transform="translate(0,0)"></path>
<path d="M 989.112 1848.74 C 1000.12 1855.4 1006.66 1858.58 1019.79 1857.27 C 1027.18 1875.52 1036.4 1900.72 1009.98 1908.57 C 994.71 1907.56 974.261 1899.47 969.415 1882.85 C 965.58 1869.7 981.687 1862.03 988.496 1849.86 L 989.112 1848.74 z" fill="rgb(42,43,42)" transform="translate(0,0)"></path>
<path d="M 1034.78 1878.53 C 1050.97 1890.85 1060.12 1890.88 1079.23 1888.75 C 1086.94 1908.91 1093.21 1917 1075.89 1934.91 C 1068.75 1940.26 1059.16 1942.29 1050.78 1938.29 C 1035.61 1931.04 1033.94 1918.38 1029.02 1904.22 C 1034.91 1893.34 1035.14 1890.42 1034.78 1878.53 z" fill="rgb(42,43,42)" transform="translate(0,0)"></path>
<path d="M 1108.04 1784.87 C 1120.74 1790.21 1130.94 1788.04 1140.17 1802.11 C 1145.09 1809.56 1146.82 1818.66 1144.96 1827.39 C 1142.64 1837.77 1136.88 1843.98 1128.08 1849.28 C 1107.95 1855.78 1097.94 1842.24 1092.18 1824.87 C 1106.76 1812.56 1107.83 1802.82 1108.04 1784.87 z" fill="rgb(42,43,42)" transform="translate(0,0)"></path>
<path d="M 979.098 1905.84 C 994.514 1916.83 1005.84 1919.45 1023.17 1910.77 C 1023.27 1928.14 1023.86 1935.31 1012.32 1948.71 C 998.855 1960.09 978.742 1949.68 971.115 1936.37 C 969.143 1932.92 968.281 1927.44 967.519 1923.5 C 974.748 1917.63 976.731 1914.6 979.098 1905.84 z" fill="rgb(42,43,42)" transform="translate(0,0)"></path>
<path d="M 975.05 883.284 C 990.819 882.277 1006.47 887.877 1020.95 893.28 C 1006.31 899.601 989.952 908.704 974.722 911.93 C 970.486 912.827 960.202 913.445 955.182 913.986 C 941.754 916.233 940.194 918.517 928.873 926.051 C 926.347 920.276 936.619 914.189 936.036 909.283 L 932.328 908.528 L 931.402 907.115 C 934.378 898.843 965.632 884.922 975.05 883.284 z" fill="rgb(42,43,42)" transform="translate(0,0)"></path>
<path d="M 1261.67 1337.87 L 1262.08 1336.91 C 1266.82 1326.24 1266.34 1306.64 1272.12 1297.95 C 1285.21 1278.26 1303.96 1274.03 1318.24 1252.24 C 1325.27 1241.52 1329.86 1219.13 1334.47 1215.17 C 1337.57 1219.61 1333.35 1270.49 1334.97 1279.76 C 1336.19 1286.71 1329.12 1312.96 1317.74 1309.53 C 1318.39 1305.04 1324.94 1301.33 1326.76 1290.97 C 1329.53 1275.18 1328.16 1260.57 1329.15 1244.35 C 1316.73 1267.99 1308.04 1276.05 1286.24 1290.85 C 1274.2 1299.01 1272.88 1315.52 1271.56 1329.1 C 1270.3 1332.78 1269.33 1335.25 1266.52 1337.94 C 1263.27 1338.96 1264.83 1338.99 1261.67 1337.87 z" fill="rgb(4,3,3)" transform="translate(0,0)"></path>
<path d="M 1027.33 1918.82 C 1028.27 1919.9 1028.22 1919.72 1028.63 1920.92 C 1039.83 1953.33 1058.82 1941.77 1066.19 1950.23 C 1068.31 1958.48 1057.92 1966.12 1051.62 1969.49 C 1033.49 1973.99 1023.72 1967.63 1014.04 1953.28 C 1019.26 1950.16 1020.23 1949.43 1024.54 1945.15 C 1027.27 1935.25 1027.06 1929.09 1027.33 1918.82 z" fill="rgb(42,43,42)" transform="translate(0,0)"></path>
<path d="M 1146.46 1691.75 C 1174.59 1707.85 1188.09 1730.17 1163.81 1757.94 L 1162.5 1757.96 C 1158.16 1755.69 1158.61 1738.72 1155.2 1732.15 C 1150.07 1722.26 1142.87 1714.69 1137.25 1705.32 L 1136.57 1704.16 L 1141 1701.71 C 1146.94 1698.43 1146.58 1698.16 1146.46 1691.75 z" fill="rgb(42,43,42)" transform="translate(0,0)"></path>
<path d="M 924.921 1873.27 L 927.048 1874.42 C 935.933 1892.74 946.069 1895.24 965.549 1892.17 L 974.414 1902.14 C 971.998 1907.9 971.095 1910.19 967.551 1915.56 C 966.939 1916.13 966.327 1916.71 965.715 1917.29 C 961.639 1920.78 956.305 1922.45 950.965 1921.89 C 930.112 1919.84 922.31 1891.34 924.921 1873.27 z" fill="rgb(42,43,42)" transform="translate(0,0)"></path>
<path d="M 1157.7 1762.38 C 1178.85 1772.76 1182.84 1806.6 1155.78 1815.93 L 1153.84 1814.58 C 1150.44 1803.4 1145.83 1794.98 1138.83 1785.8 C 1149.81 1778.36 1152.45 1774.36 1157.7 1762.38 z" fill="rgb(42,43,42)" transform="translate(0,0)"></path>
<path d="M 1085.77 821.915 C 1125.16 817.622 1180.11 839.048 1201.16 873.953 C 1191.56 870.835 1184.31 865.674 1175.72 860.552 C 1149.37 844.844 1127.32 828.881 1095.6 830.46 L 1094.84 827.131 L 1097.61 826.302 C 1096 824.146 1089.38 823.042 1085.77 821.915 z" fill="rgb(42,43,42)" transform="translate(0,0)"></path>
<path d="M 1204.66 840.11 C 1204.86 830.588 1205.51 817.443 1203.85 808.351 C 1201.14 793.553 1183.13 737.706 1194.55 726.37 C 1195.8 728.538 1197.9 749.687 1198.44 753.828 C 1201.67 778.401 1221.38 815.848 1207.42 839.66 L 1204.66 840.11 z" fill="rgb(42,43,42)" transform="translate(0,0)"></path>
<path d="M 1207.9 892.246 C 1211.5 892.244 1214.71 892.546 1217.87 894.311 C 1217.06 896.359 1209.81 897.81 1207.09 898.48 C 1192.07 902.186 1181.54 911.036 1170.77 921.626 C 1167.96 924.766 1165.49 926.801 1162.33 929.552 C 1172.14 912.878 1187.92 895.497 1207.9 892.246 z" fill="rgb(42,43,42)" transform="translate(0,0)"></path>
<path d="M 981.708 1706.39 C 984.744 1710.63 987.574 1760.97 988.64 1770.68 C 980.901 1759.59 980.229 1720.41 981.708 1706.39 z" fill="rgb(4,3,3)" transform="translate(0,0)"></path>
<path d="M 925.371 1007.16 L 929.602 1008.5 L 925.323 1013.56 L 924.463 1017.29 C 920.565 1017.74 921.265 1018.29 918.54 1016.7 C 919.162 1013.32 922.801 1010.12 925.371 1007.16 z" fill="rgb(42,43,42)" transform="translate(0,0)"></path>
<path d="M 1404.13 541.137 C 1405.2 537.564 1406.02 533.327 1408.44 530.657 C 1409.55 534.663 1407.68 540.384 1406.65 544.554 L 1404.13 541.137 z" fill="rgb(42,43,42)" transform="translate(0,0)"></path>
<path d="M 831.046 451.513 L 834.013 451.257 C 833.231 454.22 832.646 455.858 831.606 458.689 C 830.436 457.478 831.018 453.847 831.046 451.513 z" fill="rgb(42,43,42)" transform="translate(0,0)"></path>
<metadata><recraft-signature>{"signed_by": "recraft", "signature_b64": "zxhVQqpWRCObOdxyj0R8K8WKu6sbyoSAv3Rko8602GXIUxN2+eR0SGIIBKK0ODHKVCYk8+hoBQ3gyydYBcWQCw==", "signing_algo": "Ed25519", "generation_timestamp": 1771172042, "identifier": "41e3abc7-bd5a-4255-b39a-a71333878a2c"}</recraft-signature></metadata></svg>