<?xml version="1.0" encoding="UTF-8" standalone="no"?>
<!-- Created with Inkscape (http://www.inkscape.org/) -->

<svg
   xmlns:dc="http://purl.org/dc/elements/1.1/"
   xmlns:cc="http://creativecommons.org/ns#"
   xmlns:rdf="http://www.w3.org/1999/02/22-rdf-syntax-ns#"
   xmlns:svg="http://www.w3.org/2000/svg"
   xmlns="http://www.w3.org/2000/svg"
   xmlns:sodipodi="http://sodipodi.sourceforge.net/DTD/sodipodi-0.dtd"
   xmlns:inkscape="http://www.inkscape.org/namespaces/inkscape"
   width="90.409203mm"
   height="149.73561mm"
   viewBox="0 0 90.409203 149.73561"
   version="1.1"
   id="svg8"
   inkscape:version="0.92.4 (5da689c313, 2019-01-14)"
   sodipodi:docname="logo_light.svg">
  <defs
     id="defs2" />
  <sodipodi:namedview
     id="base"
     pagecolor="#ffffff"
     bordercolor="#666666"
     borderopacity="1.0"
     inkscape:pageopacity="0.0"
     inkscape:pageshadow="2"
     inkscape:zoom="0.35"
     inkscape:cx="-121.42857"
     inkscape:cy="2.9069321"
     inkscape:document-units="mm"
     inkscape:current-layer="layer1"
     showgrid="false"
     fit-margin-top="0"
     fit-margin-left="0"
     fit-margin-right="0"
     fit-margin-bottom="0"
     inkscape:window-width="2560"
     inkscape:window-height="1377"
     inkscape:window-x="-8"
     inkscape:window-y="-8"
     inkscape:window-maximized="1" />
  <metadata
     id="metadata5">
    <rdf:RDF>
      <cc:Work
         rdf:about="">
        <dc:format>image/svg+xml</dc:format>
        <dc:type
           rdf:resource="http://purl.org/dc/dcmitype/StillImage" />
        <dc:title></dc:title>
      </cc:Work>
    </rdf:RDF>
  </metadata>
  <g
     inkscape:label="Calque 1"
     inkscape:groupmode="layer"
     id="layer1"
     transform="translate(0,0.13315301)">
    <path
       style="fill:#e9e3cf;fill-opacity:1;stroke-width:0.26458332"
       d="m 44.259459,149.25492 c -1.94595,-0.8476 -3.51788,-3.67674 -5.37954,-9.682 -2.82765,-9.12132 -5.06142,-13.3103 -12.09213,-22.67633 -1.87951,-2.50381 -4.488854,-6.00917 -5.798541,-7.7897 -1.309688,-1.78054 -2.797969,-3.74782 -3.307292,-4.37175 C 12.78009,98.730258 6.7689418,90.569688 5.0687368,87.611788 c -2.143429,-3.72901 -3.122647,-6.31836 -4.11351905,-10.87741 -0.73502301,-3.38187 -0.81590901,-4.24727 -0.92962401,-9.94596 -0.135951,-6.813 0.248594,-10.65263 1.66332906,-16.60815 2.220929,-9.34927 6.654657,-17.41017 12.5494812,-22.81602 4.600723,-4.2191 8.007189,-6.46049 12.628645,-8.30939 4.43179,-1.77303 8.31382,-2.54262 13.83366,-2.74244 l 4.630204,-0.16762 0.19571,-1.96281 c 0.40911,-4.10302 2.03131,-7.6924499 4.58632,-10.1480999 0.57135,-0.54913 1.51506,-1.4741 2.09714,-2.05549 2.27333,-2.270647 3.73243,-2.677074 4.94662,-1.377872 0.80796,0.864522 1.42169,2.467062 1.18302,3.089012 -0.0936,0.24404 -0.73722,0.68737 -1.43016,0.98517 -4.19273,1.80192 -4.90569,2.21391 -6.0811,3.51403 -1.6129,1.78402 -2.44722,3.6614799 -2.63791,5.9360399 l -0.15408,1.83784 1.82223,0.17166 c 8.67132,0.81689 12.4917,1.94687 18.22638,5.39093 8.38314,5.03465 15.32827,13.59348 18.75394,23.11142 3.59616,9.99163 4.44726,18.75251 2.68129,27.59983 -0.37761,1.89177 -0.79535,3.79677 -0.92831,4.23334 -0.13297,0.43656 -0.61786,2.0439 -1.07754,3.57187 -1.56921,5.216 -4.35834,9.88322 -12.75755,21.348042 -3.23163,4.41113 -5.16241,6.9502 -9.79301,12.8783 -3.99258,5.11129 -6.85026,9.07791 -8.22322,11.41428 -3.84522,6.54343 -5.24131,10.15739 -6.89915,17.85938 -0.86715,4.02859 -1.4887,5.4195 -2.59398,5.8048 -1.0577,0.36872 -1.9975,0.33992 -2.988094,-0.0916 z m 3.192904,-8.12585 c -0.91373,-5.48641 -1.76459,-13.85273 -2.1455,-21.09601 l -0.18577,-3.53257 0.89867,0.4627 c 0.49426,0.25448 2.01411,1.10572 3.37744,1.89163 1.36332,0.78592 2.52485,1.38286 2.58118,1.32654 0.0563,-0.0563 -0.82101,-0.89235 -1.94962,-1.85785 -1.12861,-0.9655 -2.73648,-2.38366 -3.57304,-3.15146 l -1.52103,-1.39601 -0.25202,-7.39917 c -0.13861,-4.06955 -0.20373,-7.447462 -0.14472,-7.506472 0.059,-0.059 2.10704,1.11483 4.55118,2.608552 2.44413,1.49372 5.44609,3.30016 6.67102,4.0143 1.22493,0.71415 2.57124,1.54346 2.9918,1.84292 1.49566,1.06501 0.9555,0.29938 -0.88062,-1.24818 -4.41337,-3.71978 -6.11716,-5.03429 -9.31351,-7.185552 -1.86323,-1.25402 -3.51738,-2.52238 -3.6759,-2.81857 -0.28961,-0.54115 -0.16907,-14.05712 0.12801,-14.35421 0.0756,-0.0756 0.65497,0.1252 1.28753,0.44616 4.57927,2.3235 23.79874,14.35655 25.68747,16.08258 1.10843,1.01295 1.11305,0.53733 0.007,-0.75446 -1.89167,-2.21 -12.28848,-9.55631 -20.78263,-14.68485 -2.15099,-1.2987 -4.34095,-2.71578 -4.86658,-3.14905 l -0.95569,-0.78777 0.13866,-6.80284 c 0.0763,-3.74156 0.22159,-6.93699 0.32292,-7.10096 0.20501,-0.33172 0.91553,0.0422 7.02262,3.69557 2.11005,1.26228 5.4438,3.16682 7.40833,4.23232 3.2586,1.76736 10.636,5.88748 15.61041,8.71808 1.09141,0.62105 2.52016,1.50743 3.175,1.96974 1.54906,1.0936 1.85209,1.27239 1.85209,1.09278 0,-0.19048 -4.32731,-3.4018 -7.18664,-5.33325 -1.21334,-0.81959 -4.46826,-2.85895 -7.23315,-4.53191 -2.7649,-1.67296 -6.99162,-4.23069 -9.39271,-5.68384 -6.11074,-3.69825 -8.15469,-4.97115 -9.59629,-5.97619 l -1.25163,-0.8726 0.0186,-6.00656 c 0.0102,-3.30361 0.0995,-6.20862 0.19843,-6.45557 0.15352,-0.38328 0.74149,-0.12871 4.0163,1.73889 11.03581,6.29365 21.85,11.85648 28.10307,14.45626 1.8505,0.76936 3.31377,1.48097 3.25173,1.58135 -0.0916,0.1483 3.63883,1.99716 4.73184,2.34513 0.16146,0.0514 -0.65893,-0.5809 -1.8231,-1.40512 -2.16129,-1.53019 -6.89462,-4.218 -15.61041,-8.86434 -6.59234,-3.51434 -7.76495,-4.18005 -16.7349,-9.50069 l -5.62239,-3.33499 v -2.4091 c -10e-6,-5.07721 0.32871,-9.63651 0.69477,-9.63651 0.44345,0 4.31331,1.88538 9.88856,4.81767 2.40109,1.26285 6.27062,3.11895 8.59895,4.12466 2.32834,1.00571 4.87026,2.15155 5.64871,2.54632 0.77845,0.39477 1.46949,0.66364 1.53564,0.5975 0.31713,-0.31713 -6.3269,-4.21675 -13.13747,-7.71086 -2.8039,-1.43851 -3.09445,-1.59349 -8.37116,-4.46514 -3.4633,-1.88478 -3.75085,-2.09936 -3.87439,-2.89124 -0.16843,-1.07957 0.0947,-9.4286 0.3166,-10.04781 0.14364,-0.40071 0.71784,-0.18257 4.37773,1.66306 2.31682,1.16834 4.34563,2.23483 4.50845,2.36996 0.16283,0.13514 1.42008,0.82712 2.79389,1.53774 7.84997,4.0605 11.12213,5.84047 12.29558,6.68846 0.72312,0.52256 1.49335,1.03891 1.71163,1.14744 0.66668,0.33148 -0.79438,-0.83303 -3.43958,-2.74144 -5.50578,-3.97221 -20.30218,-12.45298 -21.72672,-12.45298 -0.42738,0 -0.49828,-0.20636 -0.49828,-1.45017 0,-1.30979 -0.0614,-1.46559 -0.63455,-1.60943 -0.349,-0.0876 -0.91455,-0.11963 -1.25677,-0.0712 -0.57312,0.0811 -0.62686,0.22378 -0.68097,1.80787 -0.11993,3.51081 -0.63875,11.75573 -0.78611,12.49252 -0.10773,0.53863 -0.443584,0.91077 -1.144824,1.26851 -1.61043,0.82159 -6.73499,2.33024 -15.34053,4.5162 -9.605129,2.43988 -12.170833,3.23345 -12.170833,3.76445 0,0.28524 0.904224,0.14385 7.540625,-1.1791 5.944758,-1.18506 12.694098,-2.74617 13.493748,-3.12106 0.29104,-0.13645 1.89839,-0.66069 3.57188,-1.16498 1.67349,-0.50429 3.26561,-1.00582 3.53805,-1.11452 0.479084,-0.19112 0.488964,0.0145 0.300924,6.25924 -0.10694,3.55128 -0.238304,6.53116 -0.291924,6.62196 -0.0536,0.0908 -0.72482,0.46195 -1.49155,0.82476 -2.05065,0.97035 -6.60408,2.41204 -18.72425,5.9284 -5.311574,1.54101 -10.541431,3.50276 -9.392711,3.52325 0.742752,0.0133 3.805076,-0.59477 8.598958,-1.70731 6.110003,-1.41798 7.825713,-1.86726 13.626043,-3.56812 2.91042,-0.85344 5.67862,-1.63026 6.15156,-1.72627 0.84251,-0.17103 0.8599,-0.15541 0.8599,0.7726 0,2.39713 -0.60468,11.70123 -0.78133,12.02206 -0.43312,0.78664 -8.58929,3.85341 -16.2843,6.12298 -8.629666,2.54525 -16.9048914,5.58575 -15.081248,5.54119 1.627016,-0.0398 7.570573,-1.47103 15.874998,-3.82286 2.7649,-0.78303 6.39501,-1.79488 8.06692,-2.24855 1.6719,-0.45367 3.96386,-1.22529 5.09323,-1.71471 l 2.05339,-0.88985 -0.002,1.50117 c -0.007,4.11778 -0.55065,11.56032 -0.86832,11.87799 -0.60145,0.60144 -4.64314,2.15676 -12.92113,4.97229 -7.517957,2.55702 -13.733421,5.10912 -13.021152,5.34655 0.492739,0.16424 4.671115,-0.92038 9.350502,-2.42721 13.77249,-4.43495 16.10465,-5.17158 16.37303,-5.17158 0.3753,0 0.3938,0.46336 0.30644,7.67291 -0.0397,3.27422 -0.18152,6.1614 -0.31522,6.41596 -0.1337,0.25455 -3.00716,1.81136 -6.38545,3.45958 -5.89443,2.875792 -11.1927,5.991712 -10.55161,6.205412 0.36411,0.12137 7.99078,-2.94564 13.00821,-5.23116 1.96453,-0.894882 3.70274,-1.683952 3.86268,-1.753492 0.43027,-0.18708 0.63559,3.033392 0.63292,9.927482 l -0.002,5.97935 -1.51904,0.98009 c -1.88291,1.21487 -5.45583,4.50099 -4.03258,3.70889 0.50932,-0.28346 1.98304,-1.07969 3.27492,-1.76939 2.68642,-1.43421 2.79872,-1.39755 2.80861,0.91687 0.0132,3.08323 1.632174,15.13916 2.380334,17.72533 0.14706,0.50837 0.26739,1.2389 0.26739,1.6234 0,0.38451 0.17786,1.04014 0.39524,1.45696 0.21739,0.41682 0.39598,1.00797 0.39688,1.31368 0.002,0.61984 0.39268,1.92639 0.95382,3.18832 0.2039,0.45856 0.37072,1.00634 0.37072,1.21729 0,0.60242 0.61111,2.20108 0.71838,1.87927 0.053,-0.15886 -0.3277,-2.83457 -0.84589,-5.94602 z"
       id="path826"
       inkscape:connector-curvature="0" />
  </g>
</svg>
