<?xml version="1.0" encoding="UTF-8" standalone="no"?>
<!-- Created with Inkscape (http://www.inkscape.org/) -->

<svg
   xmlns:dc="http://purl.org/dc/elements/1.1/"
   xmlns:cc="http://creativecommons.org/ns#"
   xmlns:rdf="http://www.w3.org/1999/02/22-rdf-syntax-ns#"
   xmlns:svg="http://www.w3.org/2000/svg"
   xmlns="http://www.w3.org/2000/svg"
   xmlns:sodipodi="http://sodipodi.sourceforge.net/DTD/sodipodi-0.dtd"
   xmlns:inkscape="http://www.inkscape.org/namespaces/inkscape"
   width="210mm"
   height="210mm"
   viewBox="0 0 210 210"
   version="1.1"
   id="svg8"
   sodipodi:docname="logo_full.svg"
   inkscape:version="0.92.4 (5da689c313, 2019-01-14)"
   inkscape:export-filename="D:\Desktop\image.png"
   inkscape:export-xdpi="300"
   inkscape:export-ydpi="300">
  <defs
     id="defs2" />
  <sodipodi:namedview
     id="base"
     pagecolor="#ffffff"
     bordercolor="#666666"
     borderopacity="1.0"
     inkscape:pageopacity="0"
     inkscape:pageshadow="2"
     inkscape:zoom="0.7"
     inkscape:cx="-12.361656"
     inkscape:cy="367.78147"
     inkscape:document-units="mm"
     inkscape:current-layer="layer1"
     showgrid="false"
     fit-margin-top="0"
     fit-margin-left="0"
     fit-margin-right="0"
     fit-margin-bottom="0"
     inkscape:window-width="2560"
     inkscape:window-height="1377"
     inkscape:window-x="-8"
     inkscape:window-y="-8"
     inkscape:window-maximized="1"
     width="210mm" />
  <metadata
     id="metadata5">
    <rdf:RDF>
      <cc:Work
         rdf:about="">
        <dc:format>image/svg+xml</dc:format>
        <dc:type
           rdf:resource="http://purl.org/dc/dcmitype/StillImage" />
        <dc:title></dc:title>
      </cc:Work>
    </rdf:RDF>
  </metadata>
  <g
     inkscape:label="Calque 1"
     inkscape:groupmode="layer"
     id="layer1"
     transform="translate(0,60.39754)">
    <rect
       style="fill:#e9e3cf;fill-opacity:1;stroke:#ffa500;stroke-width:1.83589172;stroke-miterlimit:10;stroke-dasharray:none;stroke-dashoffset:0;stroke-opacity:0"
       id="rect828"
       width="208.16411"
       height="208.16411"
       x="0.91794586"
       y="-59.479607" />
    <path
       style="fill:#6f6f2f;fill-opacity:1;stroke-width:0.26458332"
       d="m 105.86957,107.88543 c -1.94595,-0.8476 -3.51788,-3.67674 -5.37954,-9.681999 -2.827645,-9.12132 -5.061415,-13.3103 -12.092125,-22.67633 -1.87951,-2.50381 -4.48885,-6.00917 -5.79854,-7.7897 -1.30969,-1.78054 -2.79797,-3.74782 -3.30729,-4.37175 -4.90187,-6.004882 -10.91301,-14.165452 -12.61322,-17.123352 -2.14343,-3.72901 -3.12265,-6.31836 -4.11352,-10.87741 -0.73502,-3.38187 -0.81591,-4.24727 -0.92962,-9.94596 -0.13595,-6.813 0.24859,-10.65263 1.66333,-16.608149 2.22093,-9.34927002 6.65465,-17.4101703 12.54948,-22.816021 4.60072,-4.2191 8.00719,-6.46049 12.62864,-8.30939 4.43179,-1.773031 8.31382,-2.542621 13.833655,-2.742441 l 4.63021,-0.16762 0.19571,-1.96281 c 0.40911,-4.10302 2.03131,-7.69245 4.58632,-10.1481 0.57135,-0.54913 1.51506,-1.4741 2.09714,-2.05549 2.27333,-2.27065 3.73243,-2.67707 4.94662,-1.37787 0.80796,0.86452 1.42169,2.46706 1.18302,3.08901 -0.0936,0.24404 -0.73722,0.68737 -1.43016,0.98517 -4.19273,1.80192 -4.90569,2.21391 -6.0811,3.51403 -1.6129,1.78402 -2.44722,3.66148 -2.63791,5.93604 l -0.15408,1.83784 1.82223,0.17166 c 8.67132,0.81689 12.4917,1.94687 18.22638,5.390931 8.38314,5.03465 15.32827,13.593481 18.75394,23.1114211 3.59616,9.9916299 4.44726,18.7525089 2.68129,27.5998289 -0.37761,1.89177 -0.79535,3.79677 -0.92831,4.23334 -0.13297,0.43656 -0.61786,2.0439 -1.07754,3.57187 -1.56921,5.216 -4.35834,9.88322 -12.75755,21.348042 -3.23163,4.41113 -5.16241,6.9502 -9.79301,12.8783 -3.99258,5.11129 -6.85026,9.07791 -8.22322,11.41428 -3.84522,6.54343 -5.24131,10.15739 -6.89915,17.859379 -0.86715,4.02859 -1.4887,5.4195 -2.59398,5.80479 -1.0577,0.36872 -1.9975,0.33992 -2.9881,-0.0916 z m 3.19291,-8.125849 c -0.91373,-5.48641 -1.76459,-13.85273 -2.1455,-21.09601 l -0.18577,-3.53257 0.89867,0.4627 c 0.49426,0.25448 2.01411,1.10572 3.37744,1.89163 1.36332,0.78592 2.52485,1.38286 2.58118,1.32654 0.0563,-0.0563 -0.82101,-0.89235 -1.94962,-1.85785 -1.12861,-0.9655 -2.73648,-2.38366 -3.57304,-3.15146 l -1.52103,-1.39601 -0.25202,-7.39917 c -0.13861,-4.06955 -0.20373,-7.447462 -0.14472,-7.506472 0.059,-0.059 2.10704,1.11483 4.55118,2.608552 2.44413,1.49372 5.44609,3.30016 6.67102,4.0143 1.22493,0.71415 2.57124,1.54346 2.9918,1.84292 1.49566,1.06501 0.9555,0.29938 -0.88062,-1.24818 -4.41337,-3.71978 -6.11716,-5.03429 -9.31351,-7.185552 -1.86323,-1.25402 -3.51738,-2.52238 -3.6759,-2.81857 -0.28961,-0.54115 -0.16907,-14.05712 0.12801,-14.35421 0.0756,-0.0756 0.65497,0.1252 1.28753,0.44616 4.57927,2.3235 23.79874,14.35655 25.68747,16.08258 1.10843,1.01295 1.11305,0.53733 0.007,-0.75446 -1.89167,-2.21 -12.28848,-9.55631 -20.78263,-14.68485 -2.15099,-1.2987 -4.34095,-2.71578 -4.86658,-3.14905 l -0.95569,-0.78777 0.13866,-6.80284 c 0.0763,-3.74156 0.22159,-6.93699 0.32292,-7.10096 0.20501,-0.33172 0.91553,0.0422 7.02262,3.69557 2.11005,1.26228 5.4438,3.16682 7.40833,4.23232 3.2586,1.76736 10.636,5.88748 15.61041,8.71808 1.09141,0.62105 2.52016,1.50743 3.175,1.96974 1.54906,1.0936 1.85209,1.27239 1.85209,1.09278 0,-0.19048 -4.32731,-3.4018 -7.18664,-5.33325 -1.21334,-0.81959 -4.46826,-2.85895 -7.23315,-4.53191 -2.7649,-1.67296 -6.99162,-4.23069 -9.39271,-5.68384 -6.11074,-3.69825 -8.15469,-4.97115 -9.59629,-5.97619 l -1.25163,-0.8726 0.0186,-6.00656 c 0.0102,-3.303609 0.0995,-6.208619 0.19843,-6.455569 0.15352,-0.38328 0.74149,-0.12871 4.0163,1.73889 11.03581,6.293649 21.85,11.856479 28.10307,14.456259 1.8505,0.76936 3.31377,1.48097 3.25173,1.58135 -0.0916,0.1483 3.63883,1.99716 4.73184,2.34513 0.16146,0.0514 -0.65893,-0.5809 -1.8231,-1.40512 -2.16129,-1.53019 -6.89462,-4.218 -15.61041,-8.86434 -6.59234,-3.51434 -7.76495,-4.18005 -16.7349,-9.500689 L 108.39593,5.47404 V 3.0649401 c -1e-5,-5.0772101 0.32871,-9.6365101 0.69477,-9.6365101 0.44345,0 4.31331,1.88538 9.88856,4.81767 2.40109,1.26284998 6.27062,3.11895 8.59895,4.12466 2.32834,1.0057101 4.87026,2.15155 5.64871,2.54632 0.77845,0.39477 1.46949,0.66364 1.53564,0.5975 0.31713,-0.31713 -6.3269,-4.21675 -13.13747,-7.71086 -2.8039,-1.43851 -3.09445,-1.59349 -8.37116,-4.4651403 -3.4633,-1.88478 -3.75085,-2.09936 -3.87439,-2.8912403 -0.16843,-1.0795704 0.0947,-9.4286004 0.3166,-10.0478104 0.14364,-0.40071 0.71784,-0.18257 4.37773,1.66306 2.31682,1.16834 4.34563,2.23483 4.50845,2.36996 0.16283,0.13514 1.42008,0.82712 2.79389,1.53774 7.84997,4.0605004 11.12213,5.8404707 12.29558,6.6884607 0.72312,0.52256 1.49335,1.0389103 1.71163,1.1474403 0.66668,0.33148 -0.79438,-0.8330303 -3.43958,-2.7414403 -5.50578,-3.9722107 -20.30218,-12.4529807 -21.72672,-12.4529807 -0.42738,0 -0.49828,-0.20636 -0.49828,-1.450171 0,-1.30979 -0.0247,-0.989502 -0.0722,-2.56847 -0.349,-0.0876 -2.36334,0.13375 -2.70556,0.18218 0.12376,1.25637 0.17695,1.390098 0.20552,2.51353 -0.11993,3.510811 -0.63875,11.755731 -0.78611,12.492521 -0.10773,0.5386304 -0.44359,0.9107704 -1.14483,1.2685107 -1.61043,0.82159 -6.734985,2.33024 -15.340525,4.5162003 -9.60513,2.43988 -12.17083,3.23345 -12.17083,3.76444998 0,0.28524 0.90422,0.14385 7.54063,-1.17909998 5.94475,-1.18506 12.69409,-2.74617 13.49374,-3.12106 0.29105,-0.13645 1.898385,-0.66069 3.571875,-1.16498 1.67349,-0.5042903 3.26561,-1.0058203 3.53805,-1.1145203 0.47909,-0.19112 0.48897,0.0145 0.30093,6.25924028 C 106.04259,2.5613801 105.91122,5.54126 105.8576,5.63206 c -0.0536,0.0908 -0.72482,0.46195 -1.49155,0.82476 -2.05065,0.97035 -6.604075,2.41204 -18.724245,5.9284 -5.31157,1.541009 -10.54143,3.502759 -9.39271,3.523249 0.74275,0.0133 3.80508,-0.59477 8.59896,-1.70731 6.11,-1.417979 7.82571,-1.867259 13.62604,-3.568119 2.910415,-0.85344 5.678615,-1.63026 6.151555,-1.72627 0.84251,-0.17103 0.8599,-0.15541 0.8599,0.7726 0,2.39713 -0.60468,11.701229 -0.78133,12.022059 -0.43312,0.78664 -8.589285,3.85341 -16.284295,6.12298 -8.62966,2.54525 -16.90489,5.58575 -15.08124,5.54119 1.62701,-0.0398 7.57057,-1.47103 15.87499,-3.82286 2.7649,-0.78303 6.39501,-1.79488 8.06692,-2.24855 1.67191,-0.45367 3.963855,-1.22529 5.093225,-1.71471 l 2.05339,-0.88985 -0.002,1.50117 c -0.007,4.11778 -0.55065,11.56032 -0.86832,11.87799 -0.60145,0.60144 -4.643125,2.15676 -12.921125,4.97229 -7.51795,2.55702 -13.73342,5.10912 -13.02115,5.34655 0.49274,0.16424 4.67112,-0.92038 9.3505,-2.42721 13.772485,-4.43495 16.104645,-5.17158 16.373025,-5.17158 0.3753,0 0.3938,0.46336 0.30644,7.67291 -0.0397,3.27422 -0.18152,6.1614 -0.31522,6.41596 -0.1337,0.25455 -3.00716,1.81136 -6.385445,3.45958 -5.89443,2.875792 -11.1927,5.991712 -10.55161,6.205412 0.36411,0.12137 7.99078,-2.94564 13.00822,-5.23116 1.964515,-0.894882 3.702725,-1.683952 3.862665,-1.753492 0.43027,-0.18708 0.63559,3.033392 0.63292,9.927482 l -0.002,5.97935 -1.51904,0.98009 c -1.88291,1.21487 -5.455825,4.50099 -4.032575,3.70889 0.50932,-0.28346 1.983035,-1.07969 3.274915,-1.76939 2.68642,-1.43421 2.79872,-1.39755 2.80861,0.91687 0.0132,3.08323 1.63218,15.13916 2.38034,17.72533 0.61751,2.941867 1.29756,6.069729 2.10057,8.445299 0.18899,0.72053 0.89459,2.55543 1.00186,2.23362 0.053,-0.15886 -0.3277,-2.83457 -0.84589,-5.946019 z"
       id="path826"
       inkscape:connector-curvature="0"
       sodipodi:nodetypes="csscccsssccccscccccccccsscccscsscccsscsccsscsscccsccccccccccccsccsccsscccsccccssccsscscccccscsscssscccccssccscccsccsscsccccsscccscssccccccccccscccccs" />
    <ellipse
       style="fill:#d8cfb5;fill-opacity:1;stroke:#ffa500;stroke-width:0.94785649;stroke-miterlimit:10;stroke-dasharray:none;stroke-dashoffset:0;stroke-opacity:0"
       id="path830"
       cx="106.36249"
       cy="123.08307"
       rx="52.234844"
       ry="8.1206818" />
  </g>
</svg>
